<?xml version="1.0" encoding="UTF-8" standalone="no"?>
<svg
   xmlns="http://www.w3.org/2000/svg"
   version="1.1"
   viewBox="0 0 515.08911 515.09564"
   width="100%" height="100%">
<g
   id="g16"
   style="fill:#079a01;fill-opacity:1;stroke:#ffffff;stroke-width:3.1;stroke-miterlimit:4;stroke-dasharray:none;stroke-opacity:1"
   transform="translate(1.5448503,1.5456705)">
	<path
   style="fill:#079a01;fill-opacity:1;stroke:#ffffff;stroke-width:3.1;stroke-miterlimit:4;stroke-dasharray:none;stroke-opacity:1"
   d="M 310.974,396.889 H 201.026 c -2.167,0 -4.245,-0.861 -5.777,-2.392 l -77.745,-77.745 c -1.533,-1.533 -2.393,-3.61 -2.393,-5.778 V 201.026 c 0,-2.167 0.861,-4.244 2.393,-5.778 l 77.745,-77.745 c 1.532,-1.532 3.61,-2.392 5.777,-2.392 h 109.948 c 2.167,0 4.245,0.861 5.777,2.392 l 77.746,77.745 c 1.533,1.533 2.393,3.61 2.393,5.778 v 38.634 c 0,4.513 -3.658,8.17 -8.17,8.17 -4.512,0 -8.17,-3.657 -8.17,-8.17 V 204.411 L 307.591,131.452 H 204.41 l -72.959,72.959 v 103.18 l 72.959,72.959 h 103.18 l 72.959,-72.959 v -35.249 c 0,-4.513 3.658,-8.17 8.17,-8.17 4.512,0 8.17,3.657 8.17,8.17 v 38.634 c 0,2.167 -0.861,4.244 -2.393,5.778 l -77.746,77.745 c -1.531,1.529 -3.609,2.39 -5.776,2.39 z"
   id="path2" />
	<path
   style="fill:#079a01;fill-opacity:1;stroke:#ffffff;stroke-width:3.1;stroke-miterlimit:4;stroke-dasharray:none;stroke-opacity:1"
   d="M 338.348,462.977 H 173.651 c -2.167,0 -4.245,-0.861 -5.777,-2.392 L 51.417,344.125 c -1.533,-1.533 -2.393,-3.61 -2.393,-5.778 V 173.652 c 0,-2.167 0.861,-4.244 2.393,-5.778 l 46.675,-46.675 c 3.191,-3.19 8.364,-3.19 11.554,0 3.191,3.192 3.191,8.364 0,11.555 l -44.282,44.281 v 157.93 l 111.671,111.673 h 157.93 L 446.636,334.965 V 177.035 L 334.965,65.364 H 177.036 l -44.281,44.282 c -3.191,3.19 -8.364,3.19 -11.554,0 -3.191,-3.192 -3.191,-8.364 0,-11.555 l 46.674,-46.675 c 1.532,-1.532 3.61,-2.392 5.777,-2.392 h 164.697 c 2.167,0 4.245,0.861 5.777,2.392 l 116.458,116.458 c 1.533,1.533 2.393,3.61 2.393,5.778 v 164.697 c 0,2.167 -0.861,4.244 -2.393,5.778 L 344.125,460.583 c -1.532,1.533 -3.61,2.394 -5.777,2.394 z"
   id="path4" />
	<path
   style="fill:#079a01;fill-opacity:1;stroke:#ffffff;stroke-width:3.1;stroke-miterlimit:4;stroke-dasharray:none;stroke-opacity:1"
   d="m 283.6,330.802 h -55.2 c -2.167,0 -4.245,-0.861 -5.777,-2.392 L 183.59,289.378 c -1.533,-1.533 -2.393,-3.61 -2.393,-5.778 v -55.2 c 0,-2.167 0.861,-4.244 2.393,-5.778 l 39.033,-39.033 c 1.532,-1.532 3.61,-2.392 5.777,-2.392 h 55.2 c 2.167,0 4.245,0.861 5.777,2.392 l 39.033,39.033 c 1.533,1.533 2.393,3.61 2.393,5.778 v 55.2 c 0,2.167 -0.861,4.244 -2.393,5.778 l -39.033,39.032 c -1.532,1.532 -3.61,2.392 -5.777,2.392 z m -51.815,-16.34 h 48.431 l 34.246,-34.247 v -48.431 l -34.246,-34.247 h -48.431 l -34.246,34.247 v 48.431 z"
   id="path6" />
	<path
   style="fill:#079a01;fill-opacity:1;stroke:#ffffff;stroke-width:3.1;stroke-miterlimit:4;stroke-dasharray:none;stroke-opacity:1"
   d="m 358.657,512 c -3.206,0 -6.249,-1.899 -7.551,-5.046 L 145.799,11.299 c -1.727,-4.169 0.253,-8.948 4.422,-10.675 4.169,-1.724 8.948,0.252 10.675,4.422 L 366.203,500.7 c 1.727,4.169 -0.253,8.948 -4.422,10.675 -1.024,0.423 -2.083,0.625 -3.124,0.625 z"
   id="path8" />
	<path
   style="fill:#079a01;fill-opacity:1;stroke:#ffffff;stroke-width:3.1;stroke-miterlimit:4;stroke-dasharray:none;stroke-opacity:1"
   d="m 503.824,366.825 c -1.043,0 -2.101,-0.2 -3.123,-0.624 L 5.046,160.894 c -4.169,-1.727 -6.148,-6.506 -4.422,-10.675 1.727,-4.169 6.508,-6.153 10.675,-4.422 l 495.654,205.307 c 4.169,1.727 6.148,6.506 4.422,10.675 -1.303,3.146 -4.345,5.046 -7.551,5.046 z"
   id="path10" />
	<path
   style="fill:#079a01;fill-opacity:1;stroke:#ffffff;stroke-width:3.1;stroke-miterlimit:4;stroke-dasharray:none;stroke-opacity:1"
   d="m 8.176,366.825 c -3.206,0 -6.249,-1.899 -7.551,-5.046 -1.727,-4.169 0.253,-8.948 4.422,-10.675 L 500.7,145.798 c 4.17,-1.729 8.948,0.252 10.675,4.422 1.727,4.169 -0.253,8.948 -4.422,10.675 L 11.299,366.201 c -1.022,0.423 -2.082,0.624 -3.123,0.624 z"
   id="path12" />
	<path
   style="fill:#079a01;fill-opacity:1;stroke:#ffffff;stroke-width:3.1;stroke-miterlimit:4;stroke-dasharray:none;stroke-opacity:1"
   d="m 153.344,512 c -1.043,0 -2.101,-0.2 -3.123,-0.624 -4.169,-1.727 -6.148,-6.506 -4.422,-10.675 L 351.105,5.046 c 1.727,-4.168 6.507,-6.15 10.675,-4.422 4.169,1.727 6.148,6.506 4.422,10.675 L 160.895,506.954 C 159.592,510.1 156.55,512 153.344,512 Z"
   id="path14" />
</g>
</svg>
