<?xml version="1.0" encoding="UTF-8" standalone="no"?>
<!-- Generator: Adobe Illustrator 16.0.0, SVG Export Plug-In . SVG Version: 6.00 Build 0)  -->

<svg
   version="1.1"
   viewBox="0 0 886.37201 347.61099"
   enable-background="new 0 0 1400 980"
   xml:space="preserve"
   sodipodi:docname="car.svg"
   inkscape:version="1.4 (e7c3feb100, 2024-10-09)"
   id="svg1"
   xmlns:inkscape="http://www.inkscape.org/namespaces/inkscape"
   xmlns:sodipodi="http://sodipodi.sourceforge.net/DTD/sodipodi-0.dtd"
   xmlns:xlink="http://www.w3.org/1999/xlink"
   xmlns="http://www.w3.org/2000/svg"
   xmlns:svg="http://www.w3.org/2000/svg"><defs
     id="defs81">
	
	
	
	
	
	
	
	
	
	
	
	
	
	
	
	
	
	
	
	
	
	
		
	
	
	
	
	
	
	
	
	
	
	
	
	
	
	
	
	
	
	
	
	
	
	
	
	
	
	
	
	
	

	
	

	
	

	
	

	
	

	
	


	
	

	
	

	
	

	
	

	
	

	
	

	
	

	
	

	
	

	
	

	
	

	
	
</defs><sodipodi:namedview
     id="namedview81"
     pagecolor="#ffffff"
     bordercolor="#000000"
     borderopacity="0.25"
     inkscape:showpageshadow="2"
     inkscape:pageopacity="0.0"
     inkscape:pagecheckerboard="0"
     inkscape:deskcolor="#d1d1d1"
     inkscape:zoom="1.84"
     inkscape:cx="396.19565"
     inkscape:cy="180.97826"
     inkscape:window-width="3440"
     inkscape:window-height="1361"
     inkscape:window-x="0"
     inkscape:window-y="282"
     inkscape:window-maximized="1"
     showguides="false" /><g
     id="g83"><circle
       fill="#58595b"
       cx="192.53598"
       cy="254.91098"
       r="92.176003"
       id="circle2"
       style="stroke:#161616;stroke-opacity:0.57731795;stroke-width:1.7;stroke-dasharray:none" /><circle
       fill="#d1d3d4"
       cx="192.53598"
       cy="254.91098"
       r="41.202736"
       id="circle3"
       style="stroke:#161616;stroke-opacity:0.57731795;stroke-width:1.7;stroke-dasharray:none" /><circle
       fill="#ffffff"
       cx="192.53598"
       cy="254.91098"
       r="19.558477"
       id="circle4"
       style="stroke:#161616;stroke-opacity:0.57731795;stroke-width:1.7;stroke-dasharray:none" /><circle
       fill="#d1d3d4"
       cx="192.50652"
       cy="254.91098"
       r="76.528824"
       id="circle6"
       style="fill:none;stroke:#ffffff;stroke-width:7.8;stroke-dasharray:none;stroke-opacity:0.577318" /></g><path
     fill="#ff816c"
     d="m 874.822,213.295 c 0.74,-10.21 -4.683,-19.42 -13.099,-24.051 l -3.321,45.972 c 8.995,-3.376 15.685,-11.713 16.42,-21.921 z"
     id="path8" /><path
     d="m 858.402,235.74 c -0.11,0 -0.221,-0.037 -0.313,-0.104 -0.144,-0.108 -0.222,-0.28 -0.209,-0.458 l 3.32,-45.972 c 0.013,-0.178 0.115,-0.337 0.271,-0.421 0.156,-0.086 0.347,-0.086 0.502,0.001 8.851,4.869 14.098,14.504 13.37,24.547 -0.724,10.044 -7.302,18.824 -16.758,22.372 -0.058,0.022 -0.12,0.035 -0.183,0.035 z m 3.783,-45.629 -3.2,44.312 c 8.662,-3.58 14.641,-11.803 15.315,-21.166 0.679,-9.362 -4.056,-18.357 -12.115,-23.146 z"
     id="path9" /><polygon
     fill="#58595b"
     points="1134.142,556.822 1134.532,551.41 1137.854,505.438 1138.246,500.025 1122.993,498.923 1122.735,502.465 1119.145,552.177 1118.89,555.719 "
     id="polygon9"
     transform="translate(-276.13,-316.194)" /><path
     d="m 858.012,241.152 c -0.012,0 -0.025,-0.002 -0.039,-0.002 l -15.252,-1.102 c -0.138,-0.011 -0.267,-0.076 -0.358,-0.181 -0.09,-0.104 -0.136,-0.241 -0.125,-0.38 l 4.104,-56.795 c 0.021,-0.289 0.26,-0.518 0.56,-0.485 l 15.252,1.103 c 0.14,0.011 0.269,0.074 0.359,0.18 0.091,0.104 0.136,0.241 0.126,0.381 l -4.104,56.795 c -0.021,0.276 -0.251,0.486 -0.523,0.486 z m -14.694,-2.11 14.209,1.026 4.028,-55.753 -14.209,-1.026 z"
     id="path10" /><path
     fill="#FFFFFF"
     d="m 48.771,157.149 -1.616,0.165 c 0,0 -12.765,8.472 -17.056,46.766 l 3.667,5.057 7.082,9.766 3.258,-22.277 c 0,0 2.173,-21.757 18.516,-40.883 z"
     id="path11"
     style="fill:#edea00;fill-opacity:1;stroke:#000000;stroke-width:0.4;stroke-dasharray:none;stroke-opacity:1" /><path
     d="m 40.848,219.425 c -0.165,0 -0.323,-0.077 -0.424,-0.217 L 29.675,204.386 c -0.077,-0.106 -0.111,-0.235 -0.096,-0.366 4.269,-38.097 16.757,-46.792 17.287,-47.143 0.071,-0.047 0.152,-0.077 0.237,-0.085 l 15.466,-1.572 c 0.21,-0.022 0.417,0.088 0.516,0.278 0.099,0.19 0.074,0.42 -0.065,0.583 -16.05,18.785 -18.372,40.378 -18.394,40.594 l -3.26,22.303 c -0.031,0.211 -0.186,0.382 -0.393,0.434 -0.042,0.009 -0.084,0.013 -0.125,0.013 z m -10.206,-15.489 9.874,13.616 3.071,-21.004 c 0.019,-0.192 2.295,-21.363 17.803,-40.157 l -14.042,1.428 c -1.178,0.899 -12.679,10.523 -16.706,46.117 z"
     id="path12"
     style="fill:#edea00;fill-opacity:1;stroke:#000000;stroke-width:0.4;stroke-dasharray:none;stroke-opacity:1" /><path
     fill="#00b5d9"
     d="m 360.848,114.614 -4.292,-8.811 -26.434,24.4 v 139.619 l 21.689,22.14 H 521.93 l 29.82,-21.914 47.444,-134.424 c 0,0 2.317,-15.965 -4.341,-25.223 -36.533,4.209 -74.055,4.213 -74.055,4.213 z"
     id="path13"
     style="fill:#249e00;fill-opacity:1" /><path
     d="m 521.931,292.486 h -170.12 c -0.141,0 -0.276,-0.055 -0.374,-0.155 l -21.689,-22.142 c -0.096,-0.098 -0.15,-0.229 -0.15,-0.366 v -139.62 c 0,-0.147 0.061,-0.287 0.168,-0.385 l 26.434,-24.4 c 0.122,-0.114 0.29,-0.162 0.452,-0.13 0.163,0.031 0.301,0.136 0.374,0.285 l 4.148,8.517 H 520.8 c 0.375,0 37.909,-0.052 73.994,-4.21 0.188,-0.023 0.374,0.061 0.484,0.214 6.706,9.324 4.53,24.945 4.435,25.605 l -47.468,134.524 c -0.035,0.098 -0.1,0.184 -0.184,0.247 l -29.821,21.916 c -0.09,0.066 -0.199,0.1 -0.309,0.1 z m -169.9,-1.047 h 169.728 l 29.553,-21.716 47.39,-134.272 c -0.002,-0.058 2.145,-15.48 -4.097,-24.495 -36.049,4.13 -73.43,4.182 -73.805,4.182 H 360.848 c -0.199,0 -0.382,-0.114 -0.47,-0.295 l -3.983,-8.178 -25.749,23.767 v 139.177 z"
     id="path14" /><path
     fill="#ffa87f"
     d="m 774.285,118.004 16.359,-5.035 -0.413,-0.388 C 748.851,70.283 702.942,44.656 666.031,29.384 l -7.87,11.805 z"
     id="path15"
     style="fill:#ffa87f;fill-opacity:0.6395421" /><path
     d="m 774.285,118.527 c -0.102,0 -0.202,-0.031 -0.289,-0.088 L 657.872,41.626 c -0.116,-0.078 -0.196,-0.197 -0.224,-0.333 -0.027,-0.137 0,-0.278 0.077,-0.395 l 7.87,-11.805 c 0.138,-0.208 0.405,-0.289 0.635,-0.193 47.789,19.773 89.635,47.804 124.375,83.314 l 0.397,0.372 c 0.137,0.128 0.193,0.319 0.151,0.5 -0.042,0.182 -0.177,0.327 -0.355,0.382 l -16.36,5.035 c -0.049,0.016 -0.101,0.024 -0.153,0.024 z M 658.889,41.043 774.368,117.43 789.645,112.729 C 755.131,77.514 713.614,49.698 666.228,30.032 Z"
     id="path16"
     style="fill:#00551a;fill-opacity:1" /><path
     fill="#ffa87f"
     d="M 399.254,22.664 384.615,11.952 c -10.361,6.165 -15.183,12.519 -15.183,12.519 l -73.198,74.103 27.111,12.201 z"
     id="path17"
     style="fill:#ffa87f;fill-opacity:0.56608135" /><path
     d="m 323.344,111.298 c -0.073,0 -0.145,-0.016 -0.214,-0.046 L 296.02,99.053 c -0.158,-0.072 -0.269,-0.214 -0.301,-0.382 -0.031,-0.168 0.022,-0.342 0.142,-0.464 L 369.06,24.105 c 0.155,-0.212 4.958,-6.455 15.288,-12.601 0.18,-0.107 0.408,-0.097 0.577,0.028 l 14.639,10.712 c 0.118,0.086 0.194,0.218 0.21,0.363 0.018,0.145 -0.027,0.291 -0.124,0.401 l -75.909,88.109 c -0.101,0.117 -0.247,0.181 -0.397,0.181 z m -26.208,-12.892 26.067,11.73 75.285,-87.384 -13.902,-10.173 c -9.938,5.979 -14.69,12.146 -14.737,12.208 z"
     id="path18" /><path
     d="m 521.931,292.486 h -170.12 c -0.141,0 -0.276,-0.055 -0.374,-0.155 l -21.689,-22.142 c -0.096,-0.098 -0.15,-0.229 -0.15,-0.366 v -139.62 c 0,-0.147 0.061,-0.287 0.168,-0.385 l 26.434,-24.4 69.086,-81.963 c 4.793,-5.686 14.825,-6.879 22.396,-6.879 5.309,0 9.441,0.593 9.482,0.599 l 114.043,6.095 c 43.536,7.402 90.005,49.64 90.469,50.066 3.328,3.52 4.685,7.084 4.06,10.622 -1.235,6.986 -9.694,11.288 -10.053,11.468 -10.238,6.752 -30.408,11.941 -59.91,15.394 6.1,9.386 4.032,24.235 3.938,24.879 l -47.468,134.524 c -0.035,0.098 -0.1,0.184 -0.184,0.247 l -29.819,21.916 c -0.09,0.066 -0.199,0.1 -0.309,0.1 z m -169.9,-1.047 h 169.728 l 29.553,-21.716 47.39,-134.272 c -0.002,-0.059 2.185,-15.768 -4.272,-24.745 -0.108,-0.15 -0.129,-0.348 -0.054,-0.517 0.075,-0.17 0.233,-0.287 0.419,-0.308 29.805,-3.434 50.115,-8.602 60.368,-15.358 0.137,-0.073 8.404,-4.283 9.544,-10.749 0.563,-3.192 -0.702,-6.453 -3.763,-9.69 -0.436,-0.397 -46.68,-42.429 -89.851,-49.771 L 457.064,18.219 c -0.211,-0.024 -23.217,-3.29 -30.976,5.914 l -69.131,82.01 -26.311,24.292 v 139.177 z"
     id="path20" /><path
     fill="#00c3e9"
     d="m 831.224,248.133 h 10.723 l 6.439,-80.878 -57.742,-54.286 -16.359,5.035 -116.124,-76.815 7.87,-11.805 C 624.872,12.356 594.903,8.205 594.903,8.205 L 428.173,0.522 c -19.731,0.217 -33.998,5.742 -43.558,11.43 l 14.639,10.712 -75.909,88.11 -27.111,-12.201 -187.968,31.178 c -21.683,4.503 -36.085,14.796 -45.646,25.99 -16.342,19.126 -18.516,40.883 -18.516,40.883 l -3.258,22.277 -4.274,29.231 h 29.053 l 4.527,43.829 H 30.164 l -0.066,0.454 8.133,14.005 h 54.221 9.316 c -8.646,-15.201 -13.609,-32.771 -13.609,-51.51 0,-57.646 46.73,-104.376 104.375,-104.376 57.646,0 104.375,46.731 104.375,104.376 0,18.739 -4.963,36.309 -13.609,51.51 h 343.98 c -8.646,-15.201 -13.608,-32.771 -13.608,-51.51 0,-57.646 46.731,-104.376 104.375,-104.376 57.645,0 104.376,46.731 104.376,104.376 0,18.612 -4.896,36.076 -13.435,51.205 16.967,-1.546 24.412,-8.889 27.607,-14.154 h -9.901 z M 655.449,94.958 c -11.979,7.897 -36.065,12.617 -60.595,15.442 6.658,9.258 4.341,25.223 4.341,25.223 l -47.444,134.424 -29.82,21.914 h -170.12 l -21.689,-22.14 V 130.203 l 26.434,-24.4 69.132,-82.01 c 8.012,-9.505 31.403,-6.1 31.403,-6.1 l 114.09,6.1 c 43.827,7.456 90.144,49.929 90.144,49.929 11.744,12.427 -5.876,21.236 -5.876,21.236 z"
     id="path21"
     style="fill:#00a733;fill-opacity:1" /><path
     fill="#d1d3d4"
     d="m 863.932,248.133 h -21.984 -10.723 l -4.527,43.829 h 9.901 27.333 c 12.104,0 21.917,-9.811 21.917,-21.914 0,-12.103 -9.814,-21.915 -21.917,-21.915 z"
     id="path23" /><path
     d="m 863.932,292.486 h -37.234 c -0.147,0 -0.288,-0.061 -0.389,-0.172 -0.099,-0.11 -0.147,-0.257 -0.132,-0.404 l 4.527,-43.829 c 0.027,-0.269 0.252,-0.471 0.521,-0.471 h 32.707 c 12.374,0 22.44,10.064 22.44,22.438 0,12.373 -10.066,22.438 -22.44,22.438 z m -36.654,-1.047 h 36.653 c 11.797,0 21.394,-9.597 21.394,-21.391 0,-11.795 -9.597,-21.392 -21.394,-21.392 h -32.235 z"
     id="path24" /><path
     fill="#d1d3d4"
     d="M 65.626,248.133 H 36.573 22.437 c -12.103,0 -21.915,9.812 -21.915,21.915 0,12.103 9.812,21.914 21.915,21.914 h 7.727 39.988 z"
     id="path25" /><path
     d="M 70.153,292.486 H 22.438 C 10.065,292.486 0,282.422 0,270.048 0,257.674 10.065,247.61 22.438,247.61 h 43.188 c 0.268,0 0.493,0.202 0.521,0.471 l 4.527,43.829 c 0.016,0.147 -0.033,0.294 -0.132,0.404 -0.099,0.111 -0.24,0.172 -0.389,0.172 z M 22.438,248.657 c -11.795,0 -21.391,9.597 -21.391,21.392 0,11.794 9.596,21.391 21.391,21.391 H 69.573 L 65.154,248.658 H 22.438 Z"
     id="path26" /><path
     fill="#ffa87f"
     d="m 661.324,73.723 c 0,0 -46.316,-42.474 -90.144,-49.929 l -114.09,-6.1 c 0,0 -23.392,-3.406 -31.403,6.1 l -69.132,82.01 4.292,8.811 H 520.8 c 0,0 37.521,-0.004 74.055,-4.213 24.529,-2.826 48.616,-7.545 60.595,-15.442 -0.001,-0.002 17.619,-8.811 5.874,-21.237 z"
     id="path27"
     style="fill:#601f00;fill-opacity:0.30549347" /><path
     d="M 520.8,115.138 H 360.848 c -0.199,0 -0.382,-0.114 -0.47,-0.295 l -4.292,-8.811 c -0.09,-0.186 -0.063,-0.408 0.07,-0.566 l 69.131,-82.01 c 4.793,-5.686 14.825,-6.879 22.396,-6.879 5.309,0 9.441,0.593 9.482,0.599 l 114.043,6.095 c 43.536,7.402 90.005,49.64 90.469,50.066 3.328,3.52 4.685,7.084 4.06,10.622 -1.235,6.986 -9.694,11.288 -10.053,11.468 -10.337,6.817 -30.802,12.041 -60.771,15.494 -36.145,4.165 -73.737,4.217 -74.113,4.217 z M 361.175,114.091 H 520.8 c 0.375,0 37.91,-0.052 73.994,-4.21 29.805,-3.434 50.115,-8.602 60.368,-15.358 0.137,-0.073 8.404,-4.283 9.544,-10.749 0.563,-3.192 -0.702,-6.453 -3.763,-9.69 -0.436,-0.397 -46.68,-42.429 -89.851,-49.772 L 457.063,18.219 c -0.211,-0.024 -23.217,-3.29 -30.976,5.914 l -68.912,81.749 z"
     id="path28" /><path
     d="m 577.395,153.995 h -38.748 c -4.461,0 -8.092,-3.629 -8.092,-8.091 0,-4.462 3.631,-8.092 8.092,-8.092 h 38.748 c 4.461,0 8.089,3.63 8.089,8.092 0,4.462 -3.628,8.091 -8.089,8.091 z"
     id="path30"
     style="fill:#d47505;fill-opacity:0.83657396;stroke:#490321;stroke-opacity:1"
     sodipodi:nodetypes="sssssss" /><use
     x="0"
     y="0"
     xlink:href="#g83"
     id="use83"
     transform="translate(525.4348)" /></svg>
