<?xml version="1.0" encoding="UTF-8" standalone="no"?>
<svg
   viewBox="0 0 1396.608 756.42889"
   version="1.1"
   sodipodi:docname="infinity eyes.svg"
   inkscape:version="1.4 (e7c3feb100, 2024-10-09)"
   id="svg1"
   xmlns:inkscape="http://www.inkscape.org/namespaces/inkscape"
   xmlns:sodipodi="http://sodipodi.sourceforge.net/DTD/sodipodi-0.dtd"
   xmlns:xlink="http://www.w3.org/1999/xlink"
   xmlns="http://www.w3.org/2000/svg"
   xmlns:svg="http://www.w3.org/2000/svg">
  <defs
     id="defs13">
    <clipPath
       clipPathUnits="userSpaceOnUse"
       id="clipPath30">
      <use
         x="0"
         y="0"
         xlink:href="#path13"
         id="use31" />
    </clipPath>
  </defs>
  <sodipodi:namedview
     id="namedview13"
     pagecolor="#ffffff"
     bordercolor="#000000"
     borderopacity="0.25"
     inkscape:showpageshadow="2"
     inkscape:pageopacity="0.0"
     inkscape:pagecheckerboard="0"
     inkscape:deskcolor="#d1d1d1"
     inkscape:zoom="0.35355339"
     inkscape:cx="285.67114"
     inkscape:cy="246.07316"
     inkscape:window-width="3440"
     inkscape:window-height="1361"
     inkscape:window-x="0"
     inkscape:window-y="282"
     inkscape:window-maximized="1" />
  <use
     x="0"
     y="0"
     xlink:href="#path33"
     id="use34"
     transform="matrix(-1,0,0,1,1396.8741,2.0422616)"
     style="fill:#9f5014;fill-opacity:0.703874;stroke:#39040c;stroke-width:11.4;stroke-dasharray:none;stroke-opacity:1" />
  <g
     id="g31"
     transform="matrix(0.79924573,0,0,1,-67.571831,-344.00843)">
    <circle
       style="fill:#379de7;fill-opacity:0.703874;stroke:#20183f;stroke-width:15.5;stroke-dasharray:none;stroke-opacity:1"
       id="path27"
       cx="459.04504"
       cy="725.32764"
       r="182.74936" />
    <path
       style="fill:#108431;fill-opacity:0.703874;stroke:#353f29;stroke-width:15.5;stroke-dasharray:none;stroke-opacity:1"
       d="m 459.92187,583 c 79.32813,-0.18359 143.78516,63.98047 143.96875,143.30859 0.17969,79.33203 -63.98046,143.78907 -143.3125,143.96875 C 381.24609,870.46094 316.79297,806.29687 316.60937,726.96875 316.42969,647.64062 380.58984,583.17969 459.92187,583 Z"
       id="path13" />
    <path
       style="fill:#0c1a10;fill-opacity:1"
       d="M 459.92187,583"
       id="path14" />
    <g
       id="g29"
       clip-path="url(#clipPath30)">
      <circle
         style="fill:#1d2470;fill-opacity:0.730423;stroke:#353f29;stroke-width:16.8389;stroke-dasharray:none;stroke-opacity:1"
         id="path29"
         cx="544.69879"
         cy="641.5932"
         r="109.03417" />
      <circle
         style="fill:#efefef;fill-opacity:0.507402;stroke:#353f29;stroke-width:15.5;stroke-dasharray:none;stroke-opacity:1"
         id="path28"
         cx="547.66016"
         cy="639.97406"
         r="62.096272" />
    </g>
    <path
       d="M 497.67187,587.92969"
       id="path25" />
  </g>
  <path
     d="M 691.22141,416.02282"
     id="path24"
     style="stroke-width:0.894005" />
  <path
     style="fill:#9f5014;fill-opacity:0.703874;stroke:#39040c;stroke-width:10.1917;stroke-dasharray:none;stroke-opacity:1"
     d="m 1093.0501,60.0111 c 64.8763,-0.19141 129.7744,30.58203 179.3744,92.35938 99.1971,123.54296 99.5622,324.30859 0.8242,448.42187 -49.3784,62.05472 -114.1642,93.19532 -179.031,93.38282 -64.5235,0.1836 -129.06249,-30.25 -178.55959,-91.34376 l -0.016,-0.0664 c -0.1342,-0.0899 -0.2403,-0.19922 -0.334,-0.33203 -0.1467,-0.20704 -0.306,-0.41797 -0.4652,-0.61719 L 733.96551,376.29821 913.96441,153.47595 c 0.034,-0.0391 0.04,-0.0547 0.049,-0.0625 49.3847,-62.08204 114.16419,-93.21094 179.03729,-93.40235 z"
     id="path33" />
  <path
     style="fill:#34001b;fill-opacity:0.927483;stroke:#47053c;stroke-width:13.8571;stroke-dasharray:none;stroke-opacity:1"
     d="m 1092.9579,6.9329806 c 75.7129,-0.22266 151.4946,35.7070294 209.393,107.8203094 115.8033,144.22265 116.2341,378.59765 0.9586,523.48437 -57.6332,72.44141 -133.2806,108.79691 -208.9934,109.01561 -75.713,0.2149 -151.49769,-35.707 -209.39619,-107.81639 l -115.9219,-144.375 -82.3004,-102.5039 c -0.7243,-0.90235 -1.355,-1.85157 -1.9045,-2.83985 l -0.016,-0.0742 L 629.04577,320.22987 488.88742,145.67128 C 437.30797,81.433 369.81229,49.433 302.36657,49.6205 234.92397,49.8119 167.5438,82.20253 116.20476,146.72987 13.526659,275.78846 13.910669,484.55018 117.05708,613.01893 c 51.57633,64.23434 119.072,96.23044 186.51772,96.03904 67.34895,-0.1953 134.63856,-32.4883 185.95264,-96.83591 l 0.0687,-0.0547 185.33057,-234.79426 c 32.2021,40.10483 -9.0827,-10.47636 22.8003,28.92186 l -185.08078,234.18909 0.0265,0.0371 -0.0297,0.006 c -0.0749,0.0469 -0.12488,0.0976 -0.17482,0.14453 l 0.0156,0.0586 C 454.8383,713.01087 379.27522,749.28457 303.64659,749.49937 227.93678,749.71817 152.15518,713.79627 94.253579,641.68298 -21.546521,497.45641 -21.974241,263.08532 93.295099,118.20251 150.93134,45.7611 226.5787,9.4017302 302.2885,9.1829802 377.99829,8.9603206 453.77365,44.88219 511.67214,117.00329 l 396.05127,493.76953 c 0.047,0.0625 0.097,0.12891 0.1374,0.20703 l 0.087,0.0508 c 51.5263,64.06252 118.94399,95.97262 186.28669,95.78122 67.4488,-0.1953 134.8258,-32.5781 186.168,-97.10934 102.6813,-129.05469 102.2973,-337.82032 -0.8554,-466.28906 C 1227.9739,79.18301 1160.4782,47.183 1093.0356,47.3705 1025.5961,47.56971 958.22841,79.94081 906.88321,144.46034 l 0.05,-0.008 -0.072,0.0351 -187.4097,231.5609 -23.0595,-28.75 187.569,-231.34605 C 941.59401,43.51088 1017.2507,7.1515106 1092.9574,6.9327606 Z"
     id="path32"
     sodipodi:nodetypes="scccccccccccccccccccccccccccccccccscccccccss" />
  <use
     x="0"
     y="0"
     xlink:href="#g31"
     id="use32"
     transform="translate(799.77171)" />
</svg>
