<?xml version="1.0" encoding="UTF-8" standalone="no"?>
<!-- Created with Inkscape (http://www.inkscape.org/) -->

<svg
   version="1.1"
   viewBox="0 0 1444.387 1625.1055"
   sodipodi:docname="radioactive barrel.svg"
   inkscape:version="1.4 (e7c3feb100, 2024-10-09)"
   id="svg1"
   xmlns:inkscape="http://www.inkscape.org/namespaces/inkscape"
   xmlns:sodipodi="http://sodipodi.sourceforge.net/DTD/sodipodi-0.dtd"
   xmlns="http://www.w3.org/2000/svg"
   xmlns:svg="http://www.w3.org/2000/svg">
  <defs
     id="defs1" />
  <sodipodi:namedview
     id="namedview1"
     pagecolor="#ffffff"
     bordercolor="#000000"
     borderopacity="0.25"
     inkscape:showpageshadow="2"
     inkscape:pageopacity="0.0"
     inkscape:pagecheckerboard="0"
     inkscape:deskcolor="#d1d1d1"
     inkscape:zoom="0.19345619"
     inkscape:cx="1426.6796"
     inkscape:cy="1504.2166"
     inkscape:window-width="3440"
     inkscape:window-height="1361"
     inkscape:window-x="0"
     inkscape:window-y="282"
     inkscape:window-maximized="1"
     inkscape:current-layer="group-R5">
    <inkscape:page
       x="0"
       y="0"
       inkscape:label="1"
       id="page1"
       width="1444.387"
       height="1625.1055"
       margin="0"
       bleed="0" />
  </sodipodi:namedview>
  <g
     id="g1"
     inkscape:groupmode="layer"
     inkscape:label="1"
     transform="translate(-1151.9396,-1082.9009)">
    <g
       id="group-R5">
      <g
         id="g19"
         transform="rotate(75.058054,1874.4956,1894.9857)">
        <path
           id="path5"
           d="m 12989.9,24108.5 -1240.5,-416.8 c 145,-426.8 761.2,-1043.2 1188.1,-1188.2 l 416.9,1240.1 c -150.9,85.7 -275.9,210.6 -364.5,364.9 z m 853.7,1462 259.1,1282.6 c -442.3,87.6 -1283.4,-137.4 -1622.8,-434.8 l 866.2,-981.5 c 147.9,86.5 317.9,133.7 497.5,133.7 z m -5.2,-659.6 c -144.9,0 -270,-98.5 -306.9,-235.9 -44.9,-167.7 53.3,-343.3 225.1,-389.4 165.3,-43.7 344.2,57.2 389.4,224.9 54.2,203 -100.5,400.4 -307.6,400.4 z m 977.9,-313.4 c 0.6,-171.5 -47.2,-349.6 -133.6,-497.4 l 981.6,-866.1 c 297,339 522.7,1180.4 434.7,1622.7 z M 10304,29778.8 8065.86,21425.7 c -74.46,-277.8 -494.64,-155 -423.04,113.4 l 2347.54,8761.8 c 25.74,95.5 113.04,162.2 212.34,162.2 369.2,0 144.2,-509.9 101.3,-684.3 z m 7464.6,-10481.4 2222.7,8294.1 c 85.2,319.2 563.7,176.9 481.6,-129.1 l -2332.7,-8706.6 c -34.6,-129 -173,-212.4 -305.6,-175.9 -327.4,88.4 -116.1,513.9 -66,717.5 z m -1240.2,662.1 685.9,-183.7 1956.3,7301 -686.1,183.9 z m -6302.5,1688.9 5665.3,-1518.1 1956.4,7301 -5665.8,1518.2 z m -1322.83,354.4 685.72,-183.7 1956.11,7301.1 -685.5,183.6 z m 8140.53,-2863.9 c -349.7,-1303.8 1428.3,-1692.3 1733.3,-553.5 l 2333.3,8706.5 c 306.1,1142.9 -1435.3,1664.5 -1769,421.8 l -8311.2,2227 c 336,1252.7 -1381.23,1633.2 -1676.51,530.9 l -2347.83,-8762 c -293.02,-1094.2 1375.38,-1655.4 1726.72,-343.7 z m -4124.5,5785.2 -1113.8,1262.1 c -585.6,663.7 1856.6,1824.9 2860.3,1141.1 109.5,-74.5 163.7,-207.8 137.3,-337.7 L 14469.7,25340 c 41.7,-35.3 80.5,-74.2 115.9,-116.4 l 1649.9,333.4 c 578.6,116.6 615.5,-1059 437.3,-1723.8 -187.6,-699.4 -810.9,-1652.3 -1240.7,-1273.8 l -1262.3,1114 c -51,-18.5 -103.7,-32.9 -157.9,-42.6 l -536.2,-1595.3 c -273.1,-813.6 -2510.9,661.4 -2418.3,1906.5 9.7,132.2 98.1,245.8 223.7,287.8 l 1595.7,536.3 42.3,158 v 0"
           style="fill:#333333;fill-opacity:1;fill-rule:evenodd;stroke:none"
           sodipodi:nodetypes="ccccccccccscccscccccccccscccccccccccccccccccccccccccccccccccccccccccccccc"
           transform="matrix(0.13333333,0,0,-0.13333333,0,5163.96)" />
        <path
           id="path9"
           d="m 18140.2,18755.8 2332.7,8706.6 c 82.1,306 -396.4,448.3 -481.6,129.1 l -2222.7,-8294.1 c -50.1,-203.6 -261.4,-629.1 66,-717.5 132.6,-36.5 271,46.9 305.6,175.9"
           style="fill:#00ab94;fill-opacity:1;fill-rule:evenodd;stroke:none"
           transform="matrix(0.13333333,0,0,-0.13333333,0,5163.96)" />
        <path
           id="path10"
           d="m 17214.3,19775.8 1956.3,7301 -686.1,183.9 -1956.1,-7301.2 685.9,-183.7"
           style="fill:#a1d280;fill-opacity:1;fill-rule:evenodd;stroke:none"
           transform="matrix(0.13333333,0,0,-0.13333333,0,5163.96)" />
        <path
           id="path11"
           d="m 15432.1,22559.4 -1262.3,1114 c -51,-18.5 -103.7,-32.9 -157.9,-42.6 l -536.2,-1595.3 c -273.1,-813.6 -2510.9,661.4 -2418.3,1906.5 9.7,132.2 98.1,245.8 223.7,287.8 l 1595.7,536.3 42.3,158 -1113.8,1262.1 c -585.6,663.7 1856.6,1824.9 2860.3,1141.1 109.5,-74.5 163.7,-207.8 137.3,-337.7 L 14469.7,25340 c 41.7,-35.3 80.5,-74.2 115.9,-116.4 l 1649.9,333.4 c 578.6,116.6 615.5,-1059 437.3,-1723.8 -187.6,-699.4 -810.9,-1652.3 -1240.7,-1273.8 z m 459.1,-2429.1 1956.4,7301 -5665.8,1518.2 -1955.9,-7301.1 5665.3,-1518.1 v 0"
           style="fill:#a1d280;fill-opacity:1;fill-rule:evenodd;stroke:none"
           transform="matrix(0.13333333,0,0,-0.13333333,0,5163.96)" />
        <path
           id="path12"
           d="m 15664.3,23234 c 297,339 522.7,1180.4 434.7,1622.7 l -1282.7,-259.2 c 0.6,-171.5 -47.2,-349.6 -133.6,-497.4 l 981.6,-866.1"
           style="fill:#fff212;fill-opacity:1;fill-rule:evenodd;stroke:none"
           transform="matrix(0.13333333,0,0,-0.13333333,0,5163.96)" />
        <path
           id="path13"
           d="m 13756.6,24285.6 c 165.3,-43.7 344.2,57.2 389.4,224.9 54.2,203 -100.5,400.4 -307.6,400.4 -144.9,0 -270,-98.5 -306.9,-235.9 -44.9,-167.7 53.3,-343.3 225.1,-389.4"
           style="fill:#fff212;fill-opacity:1;fill-rule:evenodd;stroke:none"
           transform="matrix(0.13333333,0,0,-0.13333333,0,5163.96)" />
        <path
           id="path14"
           d="m 13346.1,25436.8 c 147.9,86.5 317.9,133.7 497.5,133.7 l 259.1,1282.6 c -442.3,87.6 -1283.4,-137.4 -1622.8,-434.8 l 866.2,-981.5"
           style="fill:#fff212;fill-opacity:1;fill-rule:evenodd;stroke:none"
           transform="matrix(0.13333333,0,0,-0.13333333,0,5163.96)" />
        <path
           id="path15"
           d="m 12989.9,24108.5 -1240.5,-416.8 c 145,-426.8 761.2,-1043.2 1188.1,-1188.2 l 416.9,1240.1 c -150.9,85.7 -275.9,210.6 -364.5,364.9"
           style="fill:#fff212;fill-opacity:1;fill-rule:evenodd;stroke:none"
           transform="matrix(0.13333333,0,0,-0.13333333,0,5163.96)" />
        <path
           id="path16"
           d="m 9588.79,21819.1 1956.11,7301.1 -685.5,183.6 -1956.33,-7301 685.72,-183.7"
           style="fill:#a1d280;fill-opacity:1;fill-rule:evenodd;stroke:none"
           transform="matrix(0.13333333,0,0,-0.13333333,0,5163.96)" />
        <path
           id="path17"
           d="M 8065.86,21425.7 10304,29778.8 c 42.9,174.4 267.9,684.3 -101.3,684.3 -99.3,0 -186.6,-66.7 -212.34,-162.2 L 7642.82,21539.1 c -71.6,-268.4 348.58,-391.2 423.04,-113.4"
           style="fill:#00ab94;fill-opacity:1;fill-rule:evenodd;stroke:none"
           transform="matrix(0.13333333,0,0,-0.13333333,0,5163.96)" />
      </g>
    </g>
  </g>
</svg>
