<svg version="1.1" viewBox="0 0 19.575 16" xmlns="http://www.w3.org/2000/svg">
  <title>Material Symbols by Google: filter</title>
  <path d="m16.175 12h-3.175q-0.425 0-0.712-0.288t-0.288-0.712 0.288-0.712 0.712-0.288h3.175l-0.9-0.9q-0.275-0.275-0.275-0.687t0.3-0.713q0.275-0.275 0.7-0.275t0.7 0.275l2.6 2.6q0.15 0.15 0.213 0.325t0.062 0.375-0.062 0.375-0.213 0.325l-2.6 2.6q-0.275 0.275-0.687 0.288t-0.713-0.288q-0.275-0.275-0.275-0.7t0.275-0.7zm-8.175-3.7 4.95-6.3h-9.9zm-2 0.7-5.775-7.375q-0.125-0.15-0.175-0.312t-0.05-0.313q0-0.4 0.288-0.7t0.712-0.3h14q0.425 0 0.713 0.3t0.287 0.7q0 0.15-0.05 0.313t-0.175 0.312l-5.775 7.375v6q0 0.425-0.288 0.713t-0.712 0.287h-2q-0.425 0-0.712-0.288t-0.288-0.712z" fill="currentColor"/>
</svg>
