<svg version="1.1" viewBox="0 0 56 46" xmlns="http://www.w3.org/2000/svg">
  <defs>
    <linearGradient id="c" x1="8.467" x2="8.467" y1="293.3" y2="292.77" gradientTransform="matrix(3.7794 0 0 3.7794 -4 -1067.5)" gradientUnits="userSpaceOnUse">
      <stop stop-opacity=".1" offset="0"/>
      <stop stop-color="#fff" stop-opacity=".15" offset="1"/>
    </linearGradient>
    <linearGradient id="d" x1="8.467" x2="8.467" y1="294.62" y2="293.56" gradientTransform="matrix(3.7794 0 0 3.7794 -3.999 -1067.5)" gradientUnits="userSpaceOnUse">
      <stop stop-opacity=".1" offset="0"/>
      <stop stop-opacity=".05" offset=".5"/>
      <stop stop-color="#fff" stop-opacity=".15" offset="1"/>
    </linearGradient>
    <linearGradient id="a" x1="6.879" x2="6.879" y1="285.36" y2="283.77" gradientTransform="matrix(3.7794 0 0 3.7794 -3.999 -1067.5)" gradientUnits="userSpaceOnUse">
      <stop offset="0"/>
      <stop stop-opacity=".2" offset="1"/>
    </linearGradient>
    <linearGradient id="b" x1="1.058" x2="15.875" y1="289.59" y2="289.59" gradientTransform="matrix(3.7794 0 0 3.7794 -4 -1067.5)" gradientUnits="userSpaceOnUse">
      <stop stop-opacity=".1" offset="0"/>
      <stop stop-opacity="0" offset=".108"/>
      <stop stop-opacity="0" offset=".894"/>
      <stop stop-opacity=".1" offset="1"/>
    </linearGradient>
    <linearGradient id="e" x1="8.467" x2="8.467" y1="4.498" y2="9.985" gradientTransform="matrix(3.7794 0 0 3.7794 -3.999 -9)" gradientUnits="userSpaceOnUse">
      <stop offset="0"/>
      <stop stop-opacity="0" offset="1"/>
    </linearGradient>
  </defs>
  <path d="m4.352 1.1542e-5h10.183c2.836 0 2.958 0.108 5.827 2.38 2.953 2.231 3.58 2.294 7.041 2.294l24.23-0.198c2.41-0.019 4.35 1.941 4.352 4.352l0.014 32.817a4.342 4.342 0 0 1-4.352 4.353h-47.28a4.343 4.343 0 0 1-4.352-4.353l-0.015-37.293a4.342 4.342 0 0 1 4.352-4.352z" fill="#ffae70"/>
  <path d="m4.354 1.1542e-5a4.344 4.344 0 0 0-4.353 4.353v7.912a4.256 4.256 0 0 1 4.265-4.265h47.467a4.256 4.256 0 0 1 4.267 4.265v-3.437c0-2.411-1.942-4.37-4.353-4.351l-24.235 0.197c-3.462 0-4.09-0.064-7.043-2.295-2.871-2.272-2.991-2.379-5.829-2.379z" fill="url(#a)" opacity=".45" style="fill:url(#a)"/>
  <rect x="1.2037e-5" y="7.97" width="56" height="37.999" rx="4.353" ry="4.266" fill="url(#b)" style="fill:url(#b)"/>
  <path d="m4.355 8c-2.412 0-4.355 1.902-4.355 4.266v0.888c1e-3 -2.301 1.943-4.154 4.355-4.154h47.292c2.411 0 4.353 1.853 4.353 4.154v-0.889c0-2.363-1.942-4.265-4.353-4.265z" fill="#fff" opacity=".1"/>
  <path d="m1.1542e-5 38.999h56v2h-56z" fill="url(#c)" style="fill:url(#c)"/>
  <path d="m0.028012 42c0.142 2.236 2.008 4 4.326 4h47.292c2.318 0 4.184-1.764 4.326-4h-55.943z" fill="url(#d)" style="fill:url(#d)"/>
  <rect x="1.2037e-5" y="7.97" width="56" height="37.999" rx="4.353" ry="4.266" fill="url(#e)" opacity=".05" style="fill:url(#e)"/>
</svg>
