<svg version="1.1" viewBox="0 0 56.006 46.006" xmlns="http://www.w3.org/2000/svg">
  <defs>
    <linearGradient id="a" x1="6.879" x2="6.879" y1="290.38" y2="283.75" gradientTransform="matrix(.99998 0 0 .99998 0 -280.06)" gradientUnits="userSpaceOnUse">
      <stop offset="0"/>
      <stop stop-opacity=".2" offset="1"/>
    </linearGradient>
    <linearGradient id="b" x1="1.058" x2="15.875" y1="289.59" y2="289.59" gradientTransform="translate(0,-280.07)" gradientUnits="userSpaceOnUse">
      <stop stop-opacity=".1" offset="0"/>
      <stop stop-opacity="0" offset=".108"/>
      <stop stop-opacity="0" offset=".894"/>
      <stop stop-opacity=".1" offset="1"/>
    </linearGradient>
    <linearGradient id="c" x1="8.467" x2="8.467" y1="293.3" y2="292.77" gradientTransform="translate(0,-280.07)" gradientUnits="userSpaceOnUse">
      <stop stop-opacity=".1" offset="0"/>
      <stop stop-color="#fff" stop-opacity=".15" offset="1"/>
    </linearGradient>
    <linearGradient id="d" x1="8.467" x2="8.467" y1="294.62" y2="293.56" gradientTransform="matrix(.99998 0 0 .99998 0 -280.06)" gradientUnits="userSpaceOnUse">
      <stop stop-opacity=".1" offset="0"/>
      <stop stop-opacity=".05" offset=".5"/>
      <stop stop-color="#fff" stop-opacity=".15" offset="1"/>
    </linearGradient>
  </defs>
  <g transform="matrix(3.7796 0 0 3.7796 -3.9988 -8.9954)">
    <path d="m2.21 2.38h2.695c0.75 0 0.783 0.029 1.542 0.63 0.782 0.59 0.948 0.607 1.864 0.607l6.412-0.053a1.146 1.146 0 0 1 1.152 1.152v6.77a1.15 1.15 0 0 1-1.152 1.152h-12.513a1.15 1.15 0 0 1-1.151-1.152v-7.954a1.15 1.15 0 0 1 1.151-1.152z" fill="#ffae70"/>
    <path d="m2.21 2.381a1.15 1.15 0 0 0-1.15 1.152v6.256h14.816v-5.072c0-0.638-0.514-1.156-1.152-1.151l-6.413 0.052c-0.916 0-1.081-0.017-1.863-0.607-0.76-0.602-0.791-0.63-1.542-0.63z" fill="url(#a)" opacity=".45" style="fill:url(#a)"/>
    <path d="m2.21 7.67h12.514a1.15 1.15 0 0 1 1.152 1.152v4.568a1.15 1.15 0 0 1-1.152 1.151h-12.514a1.15 1.15 0 0 1-1.152-1.152v-4.567a1.15 1.15 0 0 1 1.152-1.152z" fill="#ffae70"/>
    <path d="m2.21 7.67h12.513a1.15 1.15 0 0 1 1.152 1.152v4.568a1.15 1.15 0 0 1-1.152 1.151h-12.513a1.15 1.15 0 0 1-1.151-1.152v-4.567a1.15 1.15 0 0 1 1.151-1.152z" fill="url(#b)" style="fill:url(#b)"/>
    <path d="m2.21 7.67c-0.638 0-1.152 0.503-1.152 1.129v0.235c0-0.61 0.514-1.1 1.152-1.1h12.513c0.638 0 1.152 0.49 1.152 1.1v-0.235c0-0.626-0.514-1.129-1.152-1.129z" fill="#fff" opacity=".1"/>
    <path d="m1.058 12.7h14.817v0.529h-14.817z" fill="url(#c)" style="fill:url(#c)"/>
    <path d="m1.065 13.494a1.136 1.136 0 0 0 1.145 1.058h12.513c0.613 0 1.107-0.466 1.145-1.058h-14.802z" fill="url(#d)" style="fill:url(#d)"/>
  </g>
</svg>
