<svg version="1.1" viewBox="0 0 2256.4 1239" xmlns="http://www.w3.org/2000/svg" xmlns:xlink="http://www.w3.org/1999/xlink">
  <defs>
    <linearGradient id="b" x1="683.84" x2="1258.9" y1="1342.6" y2="-45.015" gradientTransform="translate(3.0286 4.2579)" gradientUnits="userSpaceOnUse">
      <stop style="stop-color:#88450b" offset="0"/>
      <stop style="stop-color:#701602" offset="1"/>
    </linearGradient>
    <linearGradient id="a" x1="1887.5" x2="1010.8" y1="1349.7" y2="-58.331" gradientTransform="translate(3.0286 4.2579)" gradientUnits="userSpaceOnUse">
      <stop style="stop-color:#88450b;stop-opacity:.31819" offset="0"/>
      <stop style="stop-color:#701602" offset="1"/>
    </linearGradient>
    <filter id="c" x="-.0013487" y="-.0067536" width="1.0046" height="1.0133" style="color-interpolation-filters:sRGB">
      <feGaussianBlur stdDeviation="1.0445458"/>
    </filter>
  </defs>
  <path d="m1326.4 374c44.012 29.301 132.46 36.141 172.44 39.641 26.27 2.3086 115.61-8.4218 133.21-11.801 36.973-7.0899 72.902-16.051 119.14-17.211 33.781-0.84761 72.551 1.6406 120.9 12.371 25.23 5.6016 45.43 5.461 63.297 0.8711 55.73-14.312 90.062-58.75 157.3-67.133l92.48-11.508-89.789 24.93c-66.129 18.359-93.801 68.18-147.5 90.789-14.621 6.1524-30.859 10.211-49.789 11.629 8.6289 9.3711 18.148 19.274 28.059 28.793 16.969 16.32 34.809 31.68 51.141 40.887 40.559 22.852 61.059 8.8633 105.55 21.992 13 3.8399 27.898 9.711 45.699 19.219 28.41 15.172 48.301 29.551 62.23 41.961 25.789 22.969 30.848 38.762 30.848 38.762s-6.4571-14.98-33.918-34.953c-14.699-10.688-35.379-22.719-64.379-34.699-17.524-7.2383-31.98-11.379-44.48-13.758-22.441-4.2813-38.383-2.4727-53.953-2-18.16 0.5586-35.68-0.6133-60.168-11.383-19.191-8.4297-40.852-23.359-61.539-39.641-25.371-19.969-48.973-42.09-63.68-56.469-30.16-0.6797-55.48 1.539-77.953 5.2422 0.082 0.078 0.1602 0.1601 0.2305 0.2382 19.09 19.66 42.07 46.98 66.461 86.148 27.41 44.023 44.898 72.641 55.699 96.203 12.402 6.0781 48.5 24.18 84.59 46.238 20.109 12.289 40.172 25.629 56.23 38.891 17.281 14.27 33.82 22.551 50.52 27.121 14.91 4.0703 44.551 10.617 73.57 8.8867 28.902-1.7187 57.199-11.699 63.41-15.238 23.449-13.398 36.699-32.48 36.699-32.48s-11.438 20.789-33.809 36.969c-6.2695 4.543-33.988 18.312-64.23 23.352-30.66 5.1094-63.91 1.4297-80.031-1.1602-20.098-3.2304-40.5-10.801-62.5-25.309-16.289-10.742-36.348-21.109-56.316-30.539-18.66-8.8203-37.211-16.66-52.582-22.844 1.5899 14.312 1.4493 29.801 0.129 49.141-1.8282 26.992 6.3203 53.332 20.203 79.062 19.957 37 50.578 72.258 80.797 105.49-35.18-29.469-70.91-61.07-96.219-95.758-20.172-27.652-33.02-57.211-35.16-88.793-2.0898-30.777-5.4882-49.52-16.898-71.117-1.0312-1.4414-1.8906-3-2.5508-4.6328-12.641-22.117-33.609-47.289-68.652-89.527-20.449-24.672-39.227-42.961-55.508-57.012-21.801-18.809-35.5-27.441-49.23-30.469-8.0312-1.7812-20.93-1.3125-22.59-0.7304-22.801 7.9804-57.039 11.789-92.52 13.898-23.039 1.3711-46.52 1.7109-66.98 1.582 20.078 18.539 42.18 37.418 62.078 58.359 2.1133 2.2188 4.2031 4.461 6.2734 6.711 17.25-2.0899 50.949-4.3829 83.289 3.707 21.449 5.3711 42.34 14.562 57.758 31.141 11.801 12.691 20.262 26.16 26.531 40 17.27 38.172 17.309 77.23 39.102 94.012l29.219 22.52-32.02-18.32c-24.34-13.91-30.531-52.941-53.281-89.078-6.8789-10.922-15.508-21.312-26.91-30.621-13.16-10.742-29.77-15.031-46.27-16.82-16.68-1.8086-33.34-0.4219-46.949 1.7813 1.25 1.9297 2.4804 3.8867 3.6679 5.8593 19.98 33.117 41.641 75.879 67.262 111.79 17.93 25.129 37.141 46.672 59.27 58.109l54.809 28.332-58.918-18.332c-26.012-8.0899-50.941-27.461-75.051-51.098-31.98-31.363-61.289-70.211-87.129-99.793-11.672-13.348-25.582-24.5-40.109-35.219-22.242-16.41-59.43-46.219-96.301-68.871-29.242-17.957-60.449-30.688-68.512-33.738-37.078-14.062-76.777-22.23-87.258-24.25 11.77 17.031 26.051 36.461 44.359 57.031 51.82 58.199 135.01 92.898 183.62 136.13 22.48 20 40.25 40.469 49.02 64.289 6.3789 17.32 11.699 37.449 15.398 59.711 3.7304 7.5976 9.3008 16.91 17.551 27.277 11.27 14.16 26.262 30.082 47.309 46.242 56.82 43.629 91.102 34.34 133.64 58.891 15.992 9.2188 33.121 22.328 52.512 44.027 22.109 24.723 37.707 43.613 48.879 58.172 25.199 32.852 27.18 42.582 27.18 42.582s-3.3594-9.2109-32.789-37.57c-13.062-12.57-31.082-28.73-56.32-49.633-19.898-16.48-36.582-25.891-51.832-31.867-19.777-7.7617-37-8.8828-55.488-11.262-26.602-3.4297-54.84-8.9493-93.84-30.52-9.25-5.1211-17.73-10.332-25.5-15.551 4.2304 42.398 9.539 83.059 21.969 112.14 16.16 37.789 37.652 82.883 61.242 121.47 18.188 29.766 37.09 55.387 55.559 70.289l43.148 34.832-47.969-27.82c-21.59-12.516-45.43-36.023-69.121-64.027-30.199-35.699-59.297-78.375-81.789-114.43-9.4883-15.23-17.23-34.039-24.508-54.949-22.66-65.109-35.93-152.41-63.512-202.12-5.6992-10.27-16.711-16.789-28.398-24.34-11.52-7.4375-24.57-14.109-38.543-20.559 3.9023 20.309 6.1328 41.059 4.5898 60.719-2.6289 33.332-3.4765 57.332-1.8593 80.312 1.7617 24.957 5.9531 48.188 13.102 79.969 4.9102 21.77 11.32 43.129 17.738 61.93 11.992 35.184 23.5 60.668 23.5 60.668s-15.449-23.524-32.918-56.609c-9.5195-18.02-19.441-38.648-27.91-59.918-12.68-31.879-20.781-55.379-26.73-81.051-1.7695-7.6406-3.3008-15.43-4.6602-23.648-12.73 13.59-27.84 30.797-41.25 48.988-14.898 20.211-27.918 41.129-32.75 59.75l-21.879 84.785 7.2891-87.273c1.8008-21.223 11.84-46.562 24.328-71.391 21.332-42.41 50.281-81.941 57.703-91.84-0.1329-1.5312-0.25-3.0898-0.3829-4.6718-1.8984-24.148-11.449-49.16-21.598-71.527-3.5391-7.8008-8.1406-15.09-14.191-20.641-6.5899-6.043-15.918-10.66-25.328-15.633-9.0196-4.7578-17.891-9.7266-26.582-14.957-5.3086 18.23-12.32 36.68-22.09 53.047-7.5703 12.66-11.781 26.012-13.668 39.812-5.9805 43.84 4.2578 88.559-8.9922 116.72-5.8711 12.48-10.719 24.281-14.621 34.672-7.9765 21.277-11.848 35.988-11.848 35.988s1.3281-15.258 5.6211-37.73c2.1289-11.129 4.9765-23.84 8.7265-37.418 8.1016-29.332-10.059-70.652-11.547-113.88-0.6524-18.84 2.1093-37.566 9.2968-56.199 7.6133-19.711 10.312-41.848 11.613-62.07 0.1289-1.9493 0.2305-3.879 0.3203-5.7774-0.6328-0.5195-1.2617-1.0312-1.8906-1.5508-35.199-29.039-61.43-56.77-81.461-79.402-19.75-22.328-32.852-40.789-40.59-52.797-15.711 23.887-33.922 49.637-53.691 74.098-1.4297 1.7812-5.6172 8.1406-8.5703 17.352-2.9805 9.2891-4.7305 21.43-4.3867 26.57 1.1094 16.859 3.3672 30.027 6.7383 42.82 7.3984 28.09 18.629 54.16 29.371 107.04 2.9687 14.629 3.7578 30.059 2.7695 45.871-4.4219 70.707-41.762 147.28-24.031 169.23-4.3086-4.2227-6.3906-11.172-7.1093-20.223-3.2383-41.199 24.32-126.73 4.0703-188.45-16.629-50.66-30.711-74.93-41.211-101.65-4.6914-11.941-8.5586-24.281-11.801-39.18-7.1172 6.707-14.309 13.02-21.547 18.816-7.0235 5.6328-13.434 11.75-17.992 19.191-5.4688 8.9492-9.5195 15.031-14.871 34.5-3.3281 12.16-6.918 26.422-10.148 41.789-5.5508 26.359-10.648 55.57-11.309 83.121-1.4102 58.809 41.02 104.47 57 151.61 5.4179 16 8.7382 31.852 7.4101 48.313l-16.793 150.37-7.668-150.37c-2.0899-25.602-17.711-47.152-34.66-69.902-16.02-21.508-33.219-43.449-46.16-68-5.7422 6.4101-12.059 14.469-18.539 24.48-10.93 16.879-22.34 38.41-32.312 66.18-21.219 59.109-37.73 119.75-56.277 162.42-13.863 31.859-28.82 53.754-47.191 58.606-15.414 4.0742-25.434 7.5156-32.02 10.281-11.191 4.6992-12.238 7.3125-12.238 7.3125s0.72266-2.7734 11.418-8.9609c6.2734-3.6289 15.914-8.375 30.898-14.453 15.812-6.4102 25.871-28.082 34.602-58.035 12.949-44.469 21.57-106.45 35.078-167.49 9.1407-41.277 22.383-71.719 34.902-94.16 11.898-21.328 23.859-35.629 32.879-44.629 0-0.051-0.01-0.1016-0.019-0.1602-4.3399-31.211-4.1719-65.109-2.7813-95.891 0.3203-7.25 0.75-14.289 1.25-21.059-24.699 12.258-47.82 24.309-67.758 38.16-20.383 14.168-37.41 29.949-47.699 51.09-1.2617 2.5898-6.8907 16.891-10.391 31.73-3.5 14.848-4.8828 30.238-5.7929 35.02-7.3594 38.578-14.133 70.418-24.844 101.85-9.7539 28.621-22.461 56.762-41.855 89.098-15.812 26.363-28.422 53.273-38.191 77.441-18.926 46.832-27.191 82.836-27.191 82.836s4.3086-36.961 18.082-85.949c7.2422-25.762 17.105-54.629 30.27-83.309 14.887-32.445 23.98-60.227 30.184-88.164 4.6094-20.762 7.5039-41.524 9.7891-64.172-15.277 11.23-34.98 22.102-60.617 30.609-55.75 18.5-111.8 32.051-149.77 54.59-20.508 12.18-35.621 26.75-41.48 46.75-6.4844 22.152-19.172 40.879-32.957 55.699-23.637 25.414-49.922 39.168-49.922 39.168s24.602-15.828 45.523-42.898c11.598-15.004 21.996-33.48 26.156-54.707 4.6758-23.852 20.352-42.609 42.879-58.93 36.715-26.59 92.621-45.98 147.9-70.109 23.562-10.293 40.512-22.43 52.891-34.242 5.9258-5.6485 10.637-11.23 14.371-16.438 2.3438-3.2735 7.9922-11.203 10.594-20.543 3.2695-11.73 3.3555-25.238 4.3828-29.52 6.4922-27.008 20.016-49.469 37.82-69.828 31.129-35.582 78.578-62.793 128.27-95.512 6.25-4.1211 39.66-27.391 42.68-29.629 26.75-19.852 50.961-52.859 73.051-87.34 19.762-30.84 36.961-63.359 50.469-91.25-18.277 14.199-46.07 31.348-84.82 44.07-18.277 6-39.16 11.34-62.82 14.848-10.656 1.5898-23.316 1.5117-33.688 5.9804-10.391 4.4805-17.902 10.352-28.68 20.902-13.07 12.777-27.551 28.379-41.031 49.039-30.02 45.988-51.43 86.281-85.039 123.77-20.27 22.609-44.035 43.73-76.91 64.09 26.488-26.391 44.355-51.398 58.48-77.141 12.48-22.75 21.484-45.508 29.914-69.348-5.7148 0.3867-12.492 1.1172-20.422 2.3867-14.012 2.2422-31.039 5.8321-51.539 11.863-35.383 10.398-57.633 19.977-72.934 35.848-16.324 16.941-24.906 39.992-34.02 75.711-7.1172 27.898-17.168 47.191-27.203 60.5-17.051 22.621-33.559 27.621-33.559 27.621s15.457-6.6133 29.438-30.371c8.0391-13.672 15.457-32.98 19.16-60.129 5.5664-40.793 13.129-67.152 29.09-88.02 15.582-20.383 39.504-35.23 79.031-51.941 27.176-11.5 48.848-18.082 65.621-22.102 13.504-3.2305 24.223-4.6875 32.367-5.2578 2.5546-7.4297 5.2032-14.992 8.0234-22.73 7.1484-19.652 15.52-36.539 23.98-51.332-74.356-8-123.67-10.5-162.7 3.3203-32.855 11.633-57.406 34.32-84.262 72.699-21.676 30.973-38.707 59.301-56.305 84.871-1.5391 2.2305-7.418 11.621-12.934 23.062-7.8711 16.297-16.012 37.25-18.395 51.77-2.7578 16.797-3.9531 36.207-0.88281 58.168 7.5859 54.281 26.398 59.641 33.473 78.473 3.2539 8.6562 4.4102 19.758 0.96484 38.949-0.0273-18.352-2.6719-28.5-7.1406-35.973-11-18.41-31.273-20.77-49.551-76.27-7.9062-24-10.488-46.027-10.836-65.449-1.1016 0.8594-2.2109 1.7109-3.3359 2.5586-30.121 22.73-68.75 41.73-125.16 55.762-50.613 12.602-86.801 26.828-112.71 40.34-51.02 26.609-61.695 49.82-61.695 49.82s8.4258-24.66 57.41-57.09c25.023-16.57 60.477-34.969 110.84-53.242 50.031-18.148 83.637-38.707 108.9-62.27 5.5898-5.2188 22.301-22.27 37.492-46.82 23.598-38.148 48.719-90.648 62.816-116.06 24.234-43.68 49.168-72.801 79.535-93.051-25.793 7.5625-55.648 17.262-87.293 26.109-10.707 2.9922-20.84 6.6523-28.727 11.332-6.9961 4.1485-12.379 9.711-18.582 16.738-9 10.191-20.973 21.23-36.809 31.953-27.457 18.59-66.941 37.02-124.4 47.348-53.926 9.6914-97.027 14.531-130.37 16.73-59.648 3.9297-87.312-0.539-87.312-0.539s27.77 1.539 86.23-8.5625c32.504-5.6094 74.301-14.828 126.23-29.93 40.27-11.707 70-26.707 92.168-42.059 10.914-7.5586 19.758-15.191 26.906-22.48-4.5898 0.6211-9.1758 1.1602-13.746 1.6211-54.57 5.4805-106.8 0.5313-147.63-27.93-29.59-20.621-58.609-34.762-84.598-44.43-54.512-20.281-94.668-21.262-94.668-21.262s40.645-4.2812 98.355 8.9414c28.398 6.5079 60.543 17.32 94.199 34.738 37.422 19.371 81.848 16.93 127.05 6.2891 70.902-16.68 142.5-55.18 193.51-76.707 32.066-13.543 60.098-14.082 83.75-10.562 17.496 2.6015 45.957 24.82 77.301 34.082 9.7816 2.8938 56.433 10.008 105.32 9.789 47.6-0.21361 90.067-34.042 122.68-115.28 31.504-78.476-0.5703-272.43-0.5703-272.43l412.69-0.05079s-52.666 162.43-44.5 233.59c4.7245 41.169 9.6172 102.85 53.629 132.15" fill-rule="evenodd" style="fill:url(#b);filter:url(#c);mix-blend-mode:normal;paint-order:stroke fill markers;stroke-dasharray:23, 34.5, 17.25;stroke-linecap:round;stroke-width:11.5;stroke:url(#a)"/>
</svg>
