<?xml version="1.0" encoding="UTF-8" standalone="no"?>
<!-- Created with Inkscape (http://www.inkscape.org/) -->

<svg
   version="1.1"
   viewBox="0 0 2556.6663 2556.6665"
   inkscape:version="1.4 (e7c3feb100, 2024-10-09)"
   sodipodi:docname="merge left.svg"
   id="svg1"
   xmlns:inkscape="http://www.inkscape.org/namespaces/inkscape"
   xmlns:sodipodi="http://sodipodi.sourceforge.net/DTD/sodipodi-0.dtd"
   xmlns="http://www.w3.org/2000/svg"
   xmlns:svg="http://www.w3.org/2000/svg">
  <defs
     id="defs1" />
  <sodipodi:namedview
     id="namedview1"
     pagecolor="#ffffff"
     bordercolor="#000000"
     borderopacity="0.25"
     inkscape:showpageshadow="2"
     inkscape:pageopacity="0.0"
     inkscape:pagecheckerboard="0"
     inkscape:deskcolor="#d1d1d1"
     inkscape:zoom="0.3700274"
     inkscape:cx="1280.9862"
     inkscape:cy="1297.2012"
     inkscape:window-width="3440"
     inkscape:window-height="1361"
     inkscape:window-x="0"
     inkscape:window-y="282"
     inkscape:window-maximized="1"
     inkscape:current-layer="group-R5">
    <inkscape:page
       x="0"
       y="0"
       inkscape:label="1"
       id="page1"
       width="2556.6663"
       height="2556.6665"
       margin="0"
       bleed="0" />
  </sodipodi:namedview>
  <g
     id="g1"
     inkscape:groupmode="layer"
     inkscape:label="1"
     transform="translate(-68.386963,-51.720065)">
    <g
       id="group-R5">
      <path
         id="path3"
         d="M 9531.07,921.402 748.73,9703.7 c -314.437,314.5 -314.437,824.3 0,1138.7 l 8782.34,8782.4 c 314.44,314.4 824.23,314.4 1138.73,0 l 8782.3,-8782.4 c 314.4,-314.4 314.4,-824.2 0,-1138.7 L 10669.8,921.402 C 10355.3,607 9845.51,607 9531.07,921.402"
         style="fill:#f3b513;fill-opacity:1;fill-rule:nonzero;stroke:none"
         transform="matrix(0.13333333,0,0,-0.13333333,0,2699.8)" />
      <path
         id="path4"
         d="m 10124.2,19181.1 c -91,0 -176.52,-35.4 -240.87,-99.7 L 1310.01,10508 c -132.81,-132.8 -132.81,-348.9 0,-481.8 L 9873.33,1462.9 c 62.07,-62 143.47,-104.3 231.07,-109.2 98.4,-5.5 191.7,30.2 260.7,99.2 l 8573.4,8573.3 c 68.9,69 104.7,162.4 99.2,260.7 -4.9,87.7 -47.2,169.1 -109.3,231.1 l -8563.3,8563.4 c -64.3,64.3 -149.9,99.7 -240.9,99.7 z m -38.9,-18153.2 c -168.37,9.5 -325.7,87.3 -444.96,206.6 l -8561.07,8561 c -260.028,260.1 -260.028,683.2 0,943.2 l 8573.34,8573.4 c 125.97,126 293.47,195.3 471.59,195.3 178.2,0 345.7,-69.3 471.6,-195.3 l 8573.4,-8573.3 c 260,-260.1 260,-683.2 0,-943.3 L 10595.8,1222.2 c -135.1,-135.1 -317.9,-205.1 -510.5,-194.3"
         style="fill:#231f20;fill-opacity:1;fill-rule:nonzero;stroke:none"
         transform="matrix(0.13333333,0,0,-0.13333333,0,2699.8)" />
      <path
         id="path5"
         d="m 11057.5,12196.7 v 1363.6 c 0.2,0.2 0.2,0.2 0.4,0.3 l 1576.6,-483.9 c 161.9,-28 286.2,123.1 203.7,247.6 L 11584.5,15215 10119.1,17425.2 8653.68,15215 7402.55,13328.1 c -83.49,-126 42.29,-278.9 206.07,-250.5 l 1573.85,483 c 0.17,-0.1 0.2,-0.1 0.37,-0.3 v -924.5 l -9.73,0.2 c 2.98,-27.7 6.52,-55.3 9.73,-82.9 V 4247.3 h 1874.66 v 3545.6 c 389.5,-537.1 832.4,-1042.3 1327.7,-1511.3 225.4,-213.5 458.4,-417.2 699.4,-610 l 1260.2,1222.3 c -1551,1187.5 -2690.8,2805.1 -3199.7,4644.6 -59.2,214.2 -87.6,435.9 -87.6,658.2"
         style="fill:#231f20;fill-opacity:1;fill-rule:nonzero;stroke:none"
         transform="matrix(0.13333333,0,0,-0.13333333,0,2699.8)" />
    </g>
  </g>
</svg>
