<?xml version="1.0" encoding="UTF-8" standalone="no"?>
<svg
   viewBox="0 0 970.40637 967.37335"
   version="1.1"
   id="svg195"
   sodipodi:docname="open book.svg"
   inkscape:version="1.4 (e7c3feb100, 2024-10-09)"
   xmlns:inkscape="http://www.inkscape.org/namespaces/inkscape"
   xmlns:sodipodi="http://sodipodi.sourceforge.net/DTD/sodipodi-0.dtd"
   xmlns="http://www.w3.org/2000/svg"
   xmlns:svg="http://www.w3.org/2000/svg">
  <defs
     id="defs195" />
  <sodipodi:namedview
     id="namedview195"
     pagecolor="#ffffff"
     bordercolor="#000000"
     borderopacity="0.25"
     inkscape:showpageshadow="2"
     inkscape:pageopacity="0.0"
     inkscape:pagecheckerboard="0"
     inkscape:deskcolor="#d1d1d1"
     inkscape:zoom="0.97558594"
     inkscape:cx="-28.700701"
     inkscape:cy="497.13714"
     inkscape:window-width="3440"
     inkscape:window-height="1361"
     inkscape:window-x="0"
     inkscape:window-y="282"
     inkscape:window-maximized="1"
     inkscape:current-layer="svg195" />
  <path
     fill="#2B2E3C"
     d="m 578.49664,0.50173305 c 0.61,-6e-4 0.915,-0.0201 1.555,0.0772 4.309,0.65420005 15.195,9.33960005 18.826,12.31969995 2.957,2.4275 5.523,5.3707 8.281,8.0209 4.747,4.5604 9.66,9.0141 14.489,13.4903 4.671,4.3296 10.151,8.238 14.47,12.892 5.867,6.3215 11.021,13.9688 16.427,20.7512 0.144,-0.0762 0.287,-0.154 0.432,-0.2285 3.899,-2.0051 6.983,-2.1148 11.108,-0.7186 4.69,1.5874 8.205,4.9663 10.699,9.171 15.955,26.890097 29.221,55.643097 43.446,83.464097 l 91.312,180.044 99.49,194.4 42.028,83.177 c 2.489,5.033 6.228,9.336 8.591,14.415 4.203,9.036 0.405,18.57 -0.515,27.84 -0.497,5.009 -0.133,10 -1.205,14.958 -1.045,4.836 -2.8,9.534 -4.531,14.158 5.648,9.584 10.924,19.113 14.929,29.548 1.669,4.348 2.389,9.069 0.267,13.413 -1.687,3.453 -4.873,6.72 -8.353,8.364 -4.987,2.356 -10.737,3.775 -15.982,5.46 l -20.696,6.869 c -22.216,7.254 -44.289,14.87 -66.566,21.94 l -180.873,59.074 c -4.621,8.02 -10.964,13.128 -18.96,17.614 -14.557,8.168 -30.074,9.879 -46.134,5.432 l -240.855,81.875 c -19.434,6.24 -38.588,13.625 -57.84,20.415 -7.226,2.548 -15.091,6.127 -22.528,7.731 -5.862,1.265 -15.27,-0.621 -20.287,-4.03 -1.916,-1.302 -3.246,-3.991 -4.305,-6.022 -3.054,-5.862 -5.563,-12.191 -8.302,-18.223 -5.367,-11.646 -10.629,-23.34 -15.785,-35.081 l -33.267,-74.743 -170.890504,-382.999 -30.2338002,-68.341 c -1.8508,-4.223 -5.7014,-9.131 -6.19440005,-13.666 -0.466,-4.287 3.00030005,-12.184 5.83090005,-15.267 4.5369002,-4.942 11.1329002,-4.904 17.3261002,-5.244 1.6172,-7.846 2.6587,-15.881 4.09,-23.771 1.9119,-10.541 4.201,-21.014 6.0445,-31.566 2.4043,-13.761 4.588,-27.382 8.078,-40.928 l -2.5046,-1.563 c -1.8123,-1.111 -3.9424,-2.501 -4.1291,-4.879 -0.0592,-0.754 0.1404,-1.499 0.6263,-2.07 1.2732,-1.498 3.302,-2.081 5.1626,-2.464 7.8501,-1.616 19.5314,-2.22 27.875,-3.178 25.315,-2.87 50.666004,-5.403 76.048004,-7.597 l 211.909,-18.843 c 23.744,-20.87 46.35,-43.02 69.366,-64.682 l 94.921,-88.691397 c 10.817,-10.3147 21.724,-20.5357 32.718,-30.6616 6.467,-6.0562 17.181,-17.8055999 24.591,-21.45629995 z"
     id="path2"
     style="fill:#4f536b;fill-opacity:1;stroke:#281500;stroke-opacity:1"
     sodipodi:nodetypes="ccccscccsccccccsccssscccccccccsccccccsccccccsccccccccc" />
  <path
     fill="#F7F2E1"
     d="m 377.97564,237.41103 c 16.981,-16.049 33.144,-32.9 49.948,-49.101 33.561,-31.891 67.353,-63.537 101.374,-94.936997 13.766,-12.7679 26.121,-27.4723 40.574,-39.4007 2.852,5.1898 5.079,10.6941 7.573,16.0604 4.557,9.6787 9.256,19.2903 14.094,28.8313 4.541,8.745997 9.641,17.190997 14.134,25.958997 15.462,30.17 29.885,60.881 44.907,91.269 l 48.788,97.172 42.194,84.53 c 7.255,14.459 16.167,28.818 21.324,44.179 6.25,18.618 8.643,39.389 3.091,58.464 -0.115,0.395 -0.235,0.789 -0.361,1.182 -0.96,-21.51 -6.577,-38.854 -19.475,-56.327 2.107,9.257 4.492,18.46 5.855,27.868 1.067,7.358 1.378,14.903 1.783,22.321 0.264,4.823 0.89,10.125 0.124,14.914 l -0.966,1.08 -0.777,-0.004 c -2.917,-3.523 -4.688,-9.174 -6.175,-13.467 -0.312,1.198 0.547,2.998 -0.155,3.704 l -2.349,-1.948 -0.519,0.063 c 0.082,0.185 0.167,0.37 0.247,0.556 0.997,2.325 1.415,4.483 1.808,6.963 -0.73,0.163 -0.354,0.161 -1.125,-0.023 0.847,4.501 4.251,12.362 1.706,16.577 l -1.031,0.596 c -3.492,-6.426 -5.038,-32.93 -6.177,-34.254 -1.106,5.21 -0.221,10.893 -0.034,16.167 -3.154,-4.435 -6.61,-8.58 -9.879,-12.92 -3.043,-4.038 -5.783,-8.361 -9.094,-12.184 2.652,5.413 8.31,14.785 10.122,19.777 l -1.359,0.96 -0.626,-0.71 c -0.959,1.796 -0.431,5.797 -0.455,7.884 -0.071,6.096 -0.602,12.257 -0.102,18.334 0.703,8.548 2.702,16.958 3.777,25.463 -5.01,-12.695 -7.825,-25.988 -12.559,-38.783 0.592,7.526 2.399,14.829 4.115,22.159 -4.027,-5.369 -9.025,-9.946 -13.537,-14.901 -3.25,-3.568 -6.231,-7.907 -9.956,-10.958 3.184,6.547 8.03,12.137 11.499,18.549 l -0.487,1.171 c 0.39,5.92 1.303,11.984 2.245,17.843 -0.938,0.297 -1.705,0.1 -2.682,0 l -0.514,0.216 c -5.874,-4.55 -10.41,-11.201 -15.495,-16.614 -3.589,-3.822 -7.712,-7.278 -11.021,-11.345 -1.535,-1.886 -2.751,-3.992 -3.983,-6.082 1.197,-0.125 2.396,-0.261 3.58,-0.48 3.524,-0.654 14.788,-4.463 16.348,-7.904 2.362,-5.213 -13.793,-35.26 -16.866,-41.596 2.091,-2.268 4.945,-4.838 5.943,-7.817 2.614,-7.805 -7.161,-33.337 -11.181,-40.907 -3.137,-5.907 -7.076,-11.174 -10.995,-16.565 -2.865,-3.942 -5.471,-8.198 -8.653,-11.891 -8.443,-9.799 -21.275,-18.01 -33.592,-21.862 -0.902,-1.141 -7.287,-6.72 -7.311,-6.955 -0.19,-1.847 0.993,-3.187 -0.148,-5.056 -3.925,-2.258 -6.038,-8.499 -9.006,-12.16 -5.024,-6.197 -10.236,-7.285 -17.754,-8.028 -4.025,1.886 -7.729,4.213 -12.069,5.348 -3.502,0.916 -10.539,-0.293 -13.031,2.015 1.18,2.087 5.192,3.435 7.321,4.718 4.327,2.607 1.904,9.714 3.087,14.394 2.388,0.312 4.615,0.791 6.937,1.402 0.829,1.303 1.575,2.78 2.817,3.729 l 1.576,-0.812 0.364,0.662 c -0.336,0.986 -0.606,1.948 -0.836,2.964 0.546,1.509 1.657,2.032 2.941,2.847 -1.177,2.619 -1.83,5.047 -2.118,7.899 -0.961,9.491 -2.024,19.962 -1.695,29.479 0.244,7.077 1.597,13.999 1.502,21.12 -0.205,15.352 -2.106,30.945 -1.672,46.252 0.215,7.611 1.324,15.124 2.527,22.63 0.457,2.852 0.855,8.147 3.098,10.242 0.989,0.924 1.667,0.782 2.905,0.74 2.321,-1.188 3.848,-3.663 5.437,-5.68 -0.071,-3.706 -0.072,-7.413 -0.004,-11.119 1.441,-2.319 3.052,-4.775 5.165,-6.528 l 0.92,0.288 c 0.193,-0.2 0.382,-0.404 0.579,-0.6 0.574,-0.57 0.916,-0.854 1.62,-1.194 0.608,1.859 0.386,3.603 1.814,5.089 3.262,9.324 3.361,31.58 3.42,42.129 5.357,1.653 10.649,1.752 16.214,2.056 l 0.16,0.692 c 1.457,6.475 0.706,13.67 3.051,19.878 1.485,3.931 4.446,7.201 6.543,10.806 4.918,8.46 12.731,22.823 14.333,32.273 1.012,5.974 0.421,12.126 -0.505,18.061 -3.637,-5.681 -7.314,-11.754 -12.874,-15.762 1.724,4.634 4.018,9.083 5.584,13.753 1.328,3.959 1.611,8.139 2.638,12.167 1.196,4.691 3.454,9.15 4.164,13.958 0.341,2.307 0.334,4.295 -0.314,6.533 l -0.45,0.439 c -1.414,-2.08 -0.307,-5.771 -1.416,-8.227 -1.802,-3.992 -5.347,-7.476 -7.736,-11.158 2.301,6.044 6.69,12.164 5.93,18.861 l -0.548,0.517 c -4.991,-3.355 -6.205,-15.021 -8.97,-20.476 0.26,5.236 1.929,10.267 2.562,15.458 -5.897,-12.149 -12.5,-24.01 -19.091,-35.783 2.44,12 18.224,44.328 16.926,53.421 l -0.745,0.394 c -1.718,-1.679 -2.119,-4.055 -3.727,-5.668 -0.715,2.39 1.231,6.581 1.472,9.305 0.236,2.659 -0.336,5.498 -0.673,8.142 -3.053,-8.587 -8.562,-15.449 -12.719,-23.463 -3.589,-6.92 -6.146,-14.56 -10.191,-21.203 1.38,6.798 3.813,13.42 5.864,20.044 1.873,6.047 3.467,12.175 5.278,18.24 1.137,3.809 2.552,7.613 3.324,11.513 -1.236,3.922 -2.42,7.823 -4.125,11.575 -1.193,-4.491 -2.081,-8.807 -2.787,-13.389 -0.169,6.012 0.298,12.335 -0.242,18.287 -0.204,-0.024 -0.425,0.004 -0.611,-0.084 l 0.583,0.143 -0.628,-0.331 c -1.654,-9.874 -2.908,-20.835 -5.994,-30.334 -0.246,7.504 -0.115,15.015 0.391,22.506 0.403,5.754 1.284,11.63 1.224,17.388 -0.056,5.351 -1.866,10.568 -2.219,15.934 -1.16,-3.097 -2.073,-7.049 -3.855,-9.794 0.932,5.597 1.264,11.588 2.982,16.994 0.27,0.851 0.535,1.701 0.82,2.548 -6.302,-10.832 -11.7,-22.289 -17.412,-33.443 -6.599,-12.89 -13.498,-25.668 -19.88,-38.663 -7.047,-14.349 -13.528,-28.989 -20.424,-43.413 l -83.281,-176.488 c -23.489,-50.769 -48.091,-101.019 -71.075,-152.014 -6.9,-15.309 -14.755,-30.2 -20.91,-45.839 z"
     id="path3"
     style="fill:#cbbc8c;fill-opacity:1" />
  <path
     fill="#27272f"
     d="m 709.37764,548.08903 c -0.201,-3.885 -1.913,-15.842 -0.369,-18.701 l 0.806,0.858 c 0.39,5.92 1.303,11.984 2.245,17.843 -0.938,0.297 -1.705,0.1 -2.682,0 z"
     id="path4" />
  <path
     fill="#2b2e3c"
     d="m 569.35164,95.397033 c 0.271,0.018 0.55,-0.018 0.813,0.053 1.274,0.345 1.638,0.738 2.097,1.848 -1.333,2.877997 -4.347,5.630997 -6.449,8.080997 -17.799,20.747 -37.848,40.506 -58.073,58.887 -0.68,-0.258 -1.178,-0.677 -1.703,-1.174 -0.555,-0.524 -1.218,-1.534 -1.103,-2.34 0.234,-1.643 2.071,-3.356 3.158,-4.56 7.174,-7.947 15.187,-15.241 22.685,-22.893 8.694,-8.872 17.04,-18.192 25.966,-26.816 4.008,-3.874 8.205,-7.666997 12.609,-11.085997 z"
     id="path5" />
  <path
     fill="#2b2e3c"
     d="m 585.21464,129.82603 c 1.052,0.235 1.431,0.062 2.078,0.974 -1.329,2.693 -3.759,5.354 -5.583,7.773 -12.71,16.853 -28.174,31.046 -43.547,45.401 -3.504,3.272 -6.679,7.148 -10.609,9.906 l -0.942,0.049 -0.564,-0.77 c -0.134,-10.626 49.556,-52.201 59.167,-63.333 z"
     id="path6" />
  <path
     fill="#2b2e3c"
     d="m 572.16664,264.89303 c 0.475,-0.028 0.629,-0.051 1.156,0 1.286,0.123 1.919,0.261 2.72,1.27 -1.203,4.646 -48.338,49.06 -55.108,55.539 l -4.044,-4.363 c 2.787,-3.387 6.39,-6.213 9.52,-9.294 5.378,-5.293 10.734,-11.743 16.843,-16.175 0.375,0.077 1.036,0.232 1.405,0.221 2.489,-0.072 3.996,-4.228 5.015,-6.121 3.003,-5.579 17.131,-16.441 22.493,-21.077 z"
     id="path7" />
  <path
     fill="#2b2e3c"
     d="m 570.93464,411.94503 c 1.158,0.945 1.862,2.791 2.552,4.123 -10.792,10.601 -21.123,21.657 -31.751,32.424 -5.555,5.628 -11.317,12.282 -17.912,16.701 -1.168,-1.114 -1.888,-1.871 -2.455,-3.396 0.084,-0.486 0.076,-0.998 0.254,-1.458 1.35,-3.49 43.375,-43.165 49.312,-48.394 z"
     id="path8" />
  <path
     fill="#2b2e3c"
     d="m 577.08564,283.37703 c 0.947,1.015 1.506,1.588 1.911,2.954 -1.659,3.513 -5.81,6.759 -8.448,9.688 -3.491,3.875 -6.273,8.319 -9.795,12.174 -6.454,7.067 -13.968,13.252 -21.013,19.722 -4.511,4.144 -8.755,8.858 -13.678,12.494 -1.137,-0.962 -1.927,-1.404 -2.469,-2.809 8.161,-11.459 23.965,-24.732 34.228,-34.79 6.524,-6.393 12.356,-13.426 19.264,-19.433 z"
     id="path9" />
  <path
     fill="#2b2e3c"
     d="m 620.37864,264.42703 c 0.519,0.257 0.827,0.386 1.316,0.749 1.04,0.773 1.311,1.4 1.372,2.635 -4.125,5.591 -23.552,23.378 -29.375,26.816 -0.101,0.214 -0.205,0.427 -0.303,0.643 -3.597,7.939 -13.781,16.548 -20.01,22.968 l -0.61,0.164 c -1.392,-1.039 -1.892,-2.629 -2.579,-4.168 5.197,-6.624 11.167,-12.973 17.367,-18.672 1.524,-1.401 5.586,-3.97 6.151,-5.876 0.296,-1.001 0.454,-1.997 1.083,-2.862 4.76,-6.539 18.915,-17.228 25.588,-22.397 z"
     id="path10" />
  <path
     fill="#2b2e3c"
     d="m 575.14764,455.93403 c 1.095,1.106 2.149,2.335 2.178,3.945 -3.23,6.161 -40.609,43.231 -47.543,49.049 -0.132,-0.032 -0.276,-0.032 -0.396,-0.096 -1,-0.527 -1.309,-1.187 -1.394,-2.305 -0.15,-1.979 1.019,-3.55 2.171,-5.023 4.265,-5.45 9.915,-9.966 14.774,-14.902 z"
     id="path11" />
  <path
     fill="#2b2e3c"
     d="m 612.45664,199.32803 c 0.162,0.027 0.331,0.025 0.485,0.082 1.074,0.398 1.649,1.028 2.232,1.966 -0.572,6.599 -35.119,37.263 -42.343,44.325 -0.675,-0.467 -1.542,-0.97 -2.101,-1.564 -0.958,-1.016 -0.958,-1.294 -0.863,-2.58 2.805,-4.005 6.591,-7.499 9.97,-11.023 10.33,-10.773 21.202,-21.596 32.62,-31.206 z"
     id="path12" />
  <path
     fill="#2b2e3c"
     d="m 599.72464,532.45003 4.225,2.819 c -5.781,8.556 -13.864,15.51 -21.17,22.715 -7.526,7.423 -14.913,15.01 -22.669,22.194 -0.219,0.123 -0.472,0.173 -0.713,0.244 -0.75,0.223 -1.217,0.045 -1.866,-0.454 -0.455,-0.35 -0.844,-0.903 -0.855,-1.486 -0.096,-4.893 37.24,-39.646 43.048,-46.032 z"
     id="path13" />
  <path
     fill="#2b2e3c"
     d="m 651.83564,255.32503 c 1.534,0.636 2.188,1.847 2.86,3.265 -0.029,0.42 0.031,0.856 -0.089,1.259 -0.844,2.831 -35.421,37.317 -40.334,41.931 -0.441,-0.228 -1.245,-0.571 -1.61,-0.947 -0.915,-0.94 -1.369,-1.807 -1.221,-3.145 0.382,-3.437 35.357,-37.912 40.394,-42.363 z"
     id="path14" />
  <path
     fill="#2b2e3c"
     d="m 734.52664,429.37303 c 0.479,0.156 0.685,0.202 1.166,0.468 1.07,0.592 1.566,1.11 1.854,2.27 -4.283,9.079 -31.139,36.981 -39.316,44.079 -0.596,-0.362 -1.321,-0.743 -1.848,-1.215 -0.953,-0.852 -1.142,-1.54 -1.282,-2.758 2.451,-4.582 33.202,-37.203 39.426,-42.844 z"
     id="path15" />
  <path
     fill="#27272f"
     d="m 626.00864,209.84203 c 1.475,0.07 2.464,0.234 3.568,1.256 -0.025,0.349 0.05,0.719 -0.074,1.046 -1.022,2.709 -38.954,40.119 -43.879,44.795 l -0.7,0.098 c -0.432,-0.28 -1.145,-0.717 -1.496,-1.07 -0.934,-0.939 -0.997,-1.424 -0.953,-2.634 4.244,-5.71 10.219,-10.841 15.219,-15.919 9.181,-9.321 18.108,-19.362 28.315,-27.572 z"
     id="path16" />
  <path
     fill="#2b2e3c"
     d="m 561.16964,128.37303 c 1.687,1.369 2.711,3.253 3.871,5.063 -8.76,6.969 -15.748,15.152 -23.5,23.134 -5.097,5.247 -10.545,10.167 -15.914,15.13 l -1.069,0.386 c -0.388,-0.248 -0.537,-0.319 -0.894,-0.685 -0.567,-0.583 -1.225,-1.481 -1.175,-2.296 0.11,-1.785 1.52,-3.402 2.645,-4.705 3.858,-4.469 8.574,-8.473 12.801,-12.616 7.883,-7.665 15.63,-15.47 23.235,-23.411 z"
     id="path17" />
  <path
     fill="#2b2e3c"
     d="m 548.78364,334.46003 c 0.736,0.56 1.546,1.125 2.193,1.786 0.866,0.886 1.338,1.924 1.234,3.185 -0.339,4.113 -30.961,30.983 -36.44,35.717 -1.419,-0.881 -2.716,-2.289 -3.963,-3.408 8.015,-7.258 15.207,-14.88 22.8,-22.542 4.81,-4.854 9.862,-9.421 14.176,-14.738 z"
     id="path18" />
  <path
     fill="#27272f"
     d="m 486.04264,303.38303 c 1.833,0.44 2.641,2.006 3.694,3.439 -5.661,5.885 -11.995,11.173 -17.824,16.904 -7.65,7.522 -14.815,15.621 -22.033,23.559 -1.498,-0.802 -2.353,-1.445 -2.949,-3.03 1.083,-6.095 32.819,-35.632 39.112,-40.872 z"
     id="path19" />
  <path
     fill="#27272f"
     d="m 538.36364,201.34003 c 0.432,0.148 0.534,0.149 0.94,0.483 1.06,0.873 1.568,2.295 1.852,3.578 -0.291,1.267 -1.137,2.085 -1.971,3.028 -6.276,7.093 -13.413,13.656 -20.048,20.425 -5.297,5.406 -10.231,11.132 -15.42,16.639 -0.557,-0.358 -1.295,-0.764 -1.794,-1.218 -0.959,-0.875 -1.147,-0.964 -1.188,-2.253 4.763,-8.706 29.33,-32.31 37.629,-40.682 z"
     id="path20" />
  <path
     fill="#27272f"
     d="m 515.19664,200.36903 c 0.263,0.03 0.531,0.029 0.787,0.091 1.157,0.279 2.471,1.198 3.031,2.225 -0.658,3.902 -30.791,32.541 -35.689,37.565 -0.471,0.546 -0.146,0.317 -1.097,0.469 -0.989,-1.28 -1.531,-1.672 -1.654,-3.314 2.753,-6.954 27.777,-30.32 34.622,-37.036 z"
     id="path21" />
  <path
     fill="#2b2e3c"
     d="m 726.02564,414.91503 c 0.476,0.252 1.421,0.658 1.835,1.059 0.416,0.402 0.874,0.927 0.737,1.534 -1.38,6.107 -27.415,31.467 -33.507,36.228 -0.756,-0.33 -1.336,-0.628 -1.999,-1.134 -0.778,-0.593 -0.578,-0.683 -0.682,-1.586 3.395,-5.918 27.528,-31.504 33.616,-36.101 z"
     id="path22" />
  <path
     fill="#2b2e3c"
     d="m 537.76164,417.82303 c 1.829,0.954 3.36,3.164 4.727,4.705 -9.627,10.796 -21.975,21.904 -32.544,31.989 l -1.286,0.865 c -1.182,0.033 -1.118,-0.039 -2.003,-0.844 -1.961,-7.284 26.776,-28.625 31.106,-36.715 z"
     id="path23" />
  <path
     fill="#27272f"
     d="m 561.89764,203.96603 c 0.395,0.218 1.036,0.546 1.357,0.845 0.48,0.448 0.992,1.147 0.961,1.829 -0.061,1.325 -0.916,2.29 -1.717,3.267 -3.882,4.738 -8.993,8.858 -13.404,13.124 -7.653,7.402 -15.142,15.08 -23.095,22.156 -0.875,0.476 -0.376,0.368 -1.524,0.155 -0.483,-0.674 -0.756,-0.766 -0.681,-1.66 0.125,-1.497 0.834,-2.564 1.713,-3.726 3.712,-4.903 8.802,-9.229 13.154,-13.617 7.577,-7.64 14.666,-15.811 23.236,-22.373 z"
     id="path24" />
  <path
     fill="#2b2e3c"
     d="m 526.12764,405.37403 c 1.593,0.954 2.893,2.297 4.24,3.561 -9.428,10.95 -22.721,23 -33.215,33.159 -0.578,0.473 -0.892,0.632 -1.567,0.898 -0.83,-0.989 -1.11,-1.347 -1.172,-2.716 -0.223,-4.899 26.326,-29.992 31.714,-34.902 z"
     id="path25" />
  <path
     fill="#27272f"
     d="m 556.71964,352.40503 c 1.098,0.787 1.636,1.147 2.18,2.438 -0.723,4.707 -31.855,32.541 -37.292,37.742 -1.207,-1.067 -2.203,-1.854 -2.807,-3.402 1.113,-3.744 32.284,-31.337 37.919,-36.778 z"
     id="path26" />
  <path
     fill="#27272f"
     d="m 467.21564,223.02103 c 0.933,0.067 1.921,0.23 2.786,0.615 1.159,0.517 1.552,0.968 2.029,2.107 -2.429,4.295 -8.124,8.344 -11.63,12.04 -6.803,7.172 -13.34,14.646 -19.993,21.961 -0.503,0.433 -1.064,0.783 -1.611,1.157 -0.318,-0.166 -0.682,-0.327 -0.923,-0.605 -0.883,-1.019 -0.961,-1.859 -0.753,-3.145 0.714,-4.413 25.269,-30.41 30.095,-34.13 z"
     id="path27" />
  <path
     fill="#2b2e3c"
     d="m 427.38764,212.87003 c 0.8,0.187 0.624,0.054 1.319,0.652 1.299,1.119 1.799,2.138 1.883,3.822 -3.03,3.71 -7.155,6.796 -10.7,10.023 -7.309,6.655 -14.594,14.648 -23.306,19.426 -1.174,0.186 -1.593,0.512 -2.659,-0.091 -0.025,-0.164 -0.071,-0.327 -0.075,-0.493 -0.136,-5.33 28.512,-28.887 33.538,-33.339 z"
     id="path28" />
  <path
     fill="#2b2e3c"
     d="m 686.68664,335.26903 c 0.263,0.14 0.541,0.255 0.789,0.42 1.152,0.767 1.704,1.643 2.023,2.925 -4.458,6.498 -27.356,28.78 -33.963,34.126 -0.546,-0.109 -0.88,-0.147 -1.414,-0.392 -1.198,-0.551 -1.531,-1.411 -1.885,-2.574 0.698,-2.781 30.165,-31.22 34.45,-34.505 z"
     id="path29" />
  <path
     fill="#2b2e3c"
     d="m 721.94564,396.98503 c 1.093,0.976 1.636,1.381 1.984,2.867 -1.075,4.363 -26.076,30.029 -31.275,34.048 -0.238,-0.267 -0.471,-0.537 -0.699,-0.813 -0.696,-0.841 -1.479,-1.97 -1.216,-3.128 1.033,-4.561 26.049,-29.922 31.206,-32.974 z"
     id="path30" />
  <path
     fill="#2b2e3c"
     d="m 697.13364,349.90503 c 0.35,0.293 0.96,0.781 1.231,1.125 0.377,0.478 0.799,1.168 0.606,1.784 -0.889,2.85 -30.34,33.662 -34.025,36.159 -0.643,-0.579 -1.576,-1.272 -2.052,-1.982 -0.348,-0.518 -0.597,-1.112 -0.397,-1.723 1.291,-3.958 30.382,-32.717 34.637,-35.363 z"
     id="path31" />
  <path
     fill="#2b2e3c"
     d="m 543.57364,461.92803 c 2.288,0.654 3.191,2.762 4.305,4.697 -5.707,5.896 -11.52,11.831 -17.465,17.489 -4.313,4.103 -9.085,7.894 -12.764,12.596 l -0.861,0.773 -1.264,-0.391 c -0.748,-0.881 -1.13,-1.594 -1.069,-2.797 0.085,-1.685 1.529,-3.511 2.531,-4.767 2.647,-3.319 6.09,-6.041 9.002,-9.138 5.752,-6.116 11.231,-12.974 17.585,-18.462 z"
     id="path32" />
  <path
     fill="#2b2e3c"
     d="m 482.60364,185.85003 c 1.421,0.725 2.568,1.516 3.311,2.963 -0.818,3.908 -25.851,25.238 -30.692,31.291 -0.408,-0.104 -0.453,-0.086 -0.87,-0.376 -1.528,-1.064 -2.194,-2.74 -2.43,-4.508 0.185,-0.801 0.422,-1.319 0.965,-1.947 3.91,-4.529 8.968,-8.383 13.375,-12.463 5.345,-4.948 10.456,-10.697 16.341,-14.96 z"
     id="path33" />
  <path
     fill="#27272f"
     d="m 498.22564,338.40403 0.768,0.132 c 1.116,0.815 1.656,1.324 2.36,2.559 -0.025,1.181 -0.174,1.472 -0.913,2.45 -3.368,4.459 -8.205,8.366 -12.255,12.205 -6.032,5.637 -11.89,11.457 -17.566,17.453 -0.758,-0.225 -1.797,-0.747 -2.345,-1.361 -0.421,-0.472 -0.979,-1.151 -0.857,-1.83 0.784,-4.347 25.773,-27.282 30.808,-31.608 z"
     id="path34" />
  <path
     fill="#27272f"
     d="m 610.80464,178.36303 c 0.548,0.159 0.828,0.403 1.278,0.742 -0.379,1.383 -43.649,46.634 -47.896,50.118 -0.314,-0.269 -0.627,-0.54 -0.92,-0.832 -0.957,-0.953 -1.288,-1.25 -1.283,-2.619 4.705,-7.153 15.227,-16.003 21.685,-22.101 8.982,-8.482 17.893,-17.114 27.136,-25.308 z"
     id="path35" />
  <path
     fill="#2b2e3c"
     d="m 566.03264,369.47903 0.662,0.156 c 0.845,1.18 0.655,1.316 0.489,2.782 l 0.195,-0.005 c -2.209,5.97 -24.829,27.153 -30.72,32.4 -0.925,-0.648 -0.941,-0.643 -1.24,-1.729 2.49,-11.056 21.158,-27.473 30.614,-33.604 z"
     id="path36" />
  <path
     fill="#27272f"
     d="m 444.48264,225.76603 c 0.67,0.092 1.314,0.291 1.968,0.462 0.748,0.931 1.292,1.809 1.387,3.042 0.08,1.035 -0.224,1.779 -0.802,2.611 -1.858,2.68 -5.406,5.28 -7.749,7.63 -7.62,7.645 -15.093,15.281 -22.99,22.651 -0.315,0.123 -0.677,-0.025 -1.012,-0.074 -0.701,-0.882 -1.15,-1.373 -1.262,-2.518 1.502,-4.188 25.655,-28.883 30.46,-33.804 z"
     id="path37" />
  <path
     fill="#27272f"
     d="m 604.72364,160.35203 c 0.052,0.009 0.105,0.012 0.154,0.028 1.283,0.41 1.53,0.278 2.243,1.474 -3.09,7.229 -25.605,28.788 -31.989,35.11 -1.154,-1.237 -2.017,-2.179 -2.617,-3.775 0.552,-5.83 18.191,-19.206 23.084,-23.698 3.164,-2.904 6.129,-6.063 9.125,-9.139 z"
     id="path38" />
  <path
     fill="#2b2e3c"
     d="m 711.81564,381.34803 c 0.426,0.23 1.021,0.529 1.384,0.832 1.001,0.838 1.209,1.237 1.328,2.445 -3.715,6.802 -22.155,26.698 -28.358,31.969 -0.568,0.221 -0.904,0.163 -1.501,0.128 -0.481,-0.706 -0.863,-0.984 -0.857,-1.885 0.039,-6.372 22.472,-28.257 28.004,-33.489 z"
     id="path39" />
  <path
     fill="#2b2e3c"
     d="m 703.29964,364.89203 c 1.295,0.756 1.915,1.612 2.382,2.986 -1.231,3.922 -25.517,29.09 -30.091,32.519 -0.308,-0.106 -0.632,-0.174 -0.924,-0.317 -1.16,-0.568 -1.42,-0.943 -1.777,-2.082 1.941,-6.713 24.73,-27.805 30.41,-33.106 z"
     id="path40" />
  <path
     fill="#2b2e3c"
     d="m 572.63264,510.39303 c 1.123,1.053 1.445,1.992 1.752,3.423 -0.497,3.06 -22.458,24.851 -26.107,27.914 -0.837,0.703 -0.697,0.519 -1.678,0.424 -1.197,-0.559 -2.047,-1.001 -3.04,-1.903 0.033,-0.333 0.027,-0.672 0.1,-0.998 0.866,-3.883 24.394,-25.459 28.973,-28.86 z"
     id="path41" />
  <path
     fill="#2b2e3c"
     d="m 577.96964,427.90603 0.871,0.284 c 0.687,0.983 1.132,1.52 0.998,2.815 -0.471,4.555 -20.991,24.425 -24.726,28.187 -1.67,-1.278 -1.9,-3.569 -2.349,-5.506 5.623,-8.571 16.922,-19.905 25.206,-25.78 z"
     id="path42" />
  <path
     fill="#27272f"
     d="m 505.18564,378.37303 c 1.751,0.584 3.179,2.346 4.486,3.612 -3.797,4.19 -8.227,8.004 -12.293,11.95 -5.024,4.877 -9.851,9.97 -14.709,15.012 -0.563,0.186 -1.013,0.21 -1.601,0.249 -1.11,-1.03 -1.308,-1.226 -1.74,-2.664 0.987,-5.703 20.663,-23.303 25.857,-28.159 z"
     id="path43" />
  <path
     fill="#27272f"
     d="m 536.60264,251.31803 c 0.807,0.295 1.688,0.577 2.438,0.999 1.148,0.645 1.539,1.228 1.941,2.439 -2.758,5.331 -20.895,20.465 -26.373,25.943 l -0.812,0.644 c -1.546,-0.547 -2.667,-2.203 -3.725,-3.424 8.151,-9.657 18.24,-17.099 26.531,-26.601 z"
     id="path44" />
  <path
     fill="#2b2e3c"
     d="m 664.59664,335.48503 c 0.201,0.045 0.416,0.046 0.601,0.134 1.127,0.533 1.237,0.935 1.439,2.037 -2.561,4.589 -21.763,24.305 -26.293,26.584 -0.889,-0.615 -1.689,-1.289 -2.515,-1.983 -0.247,-0.886 -0.479,-1.105 -0.136,-2.008 2.303,-6.073 20.949,-22.146 26.904,-24.764 z"
     id="path45" />
  <path
     fill="#2b2e3c"
     d="m 497.69064,363.96603 c 1.693,0.363 3.133,1.87 4.45,2.963 -9.319,8.397 -18.409,16.965 -26.747,26.351 -0.331,0.278 -0.934,0.582 -1.31,0.809 l -1.081,-0.466 c -0.712,-1.033 -0.923,-1.256 -0.724,-2.578 1.131,-7.544 19.204,-21.897 25.412,-27.079 z"
     id="path46" />
  <path
     fill="#27272f"
     d="m 466.73764,298.49303 c 1.04,1.116 1.86,2.452 2.725,3.71 -9.342,9.549 -19.025,18.591 -28.124,28.408 -0.293,-0.116 -0.59,-0.22 -0.878,-0.347 -1.218,-0.537 -1.709,-0.817 -2.181,-2.063 1.596,-6.825 22.278,-24.419 28.458,-29.708 z"
     id="path47" />
  <path
     fill="#2b2e3c"
     d="m 590.31864,570.45503 c 1.29,0.938 2.031,2.712 2.821,4.102 -8.77,8.247 -17.565,16.808 -25.999,25.407 -0.934,0.206 -0.407,0.198 -1.569,-0.188 -0.5,-0.881 -0.72,-1.384 -0.741,-2.426 -0.051,-2.517 1.58,-4.939 3.124,-6.776 2.688,-3.196 6.435,-5.736 9.574,-8.495 4.325,-3.801 8.47,-7.809 12.79,-11.624 z"
     id="path48" />
  <path
     fill="#2b2e3c"
     d="m 567.21364,488.91603 c 1.515,1.097 2.71,3.123 3.842,4.618 -7.778,6.93 -14.034,15.583 -22.145,22.119 -1.921,-1.373 -3.285,-2.365 -3.726,-4.782 1.117,-3.166 18.431,-18.284 22.029,-21.955 z"
     id="path49" />
  <path
     fill="#2b2e3c"
     d="m 612.80664,570.35903 c 0.461,0.074 1.259,0.176 1.674,0.356 1.118,0.484 1.265,0.928 1.501,1.986 -2.382,4.844 -18.33,22.233 -23.102,25.52 -1.837,-1.268 -3.247,-2.582 -4.726,-4.252 z"
     id="path50" />
  <path
     fill="#27272f"
     d="m 491.92964,249.93103 c 0.301,0.003 0.606,-0.042 0.902,0.011 1.289,0.23 1.741,0.678 2.48,1.636 -0.554,3.566 -20.098,20.913 -24.061,24.684 -0.596,-0.305 -0.757,-0.36 -1.343,-0.805 -1.02,-0.773 -1.716,-1.752 -1.851,-3.027 2.274,-4.864 19.064,-19.002 23.873,-22.499 z"
     id="path51" />
  <path
     fill="#27272f"
     d="m 514.13064,174.90203 c 1.696,1.182 3.086,2.534 4.549,3.984 -2.771,3.591 -6.518,6.621 -9.775,9.775 -4.352,4.192 -8.523,8.569 -12.501,13.118 -0.629,0.322 -0.819,0.146 -1.492,0.017 -1.1,-0.991 -1.466,-1.235 -1.933,-2.615 2.037,-5.155 16.48,-19.211 21.152,-24.279 z"
     id="path52" />
  <path
     fill="#2b2e3c"
     d="m 511.85464,395.53503 c 1.102,0.654 2.012,1.599 2.963,2.456 -8.496,7.697 -15.761,16.96 -24.161,24.882 l -1.532,-0.008 c -0.965,-0.912 -0.922,-0.965 -1.099,-2.292 2.01,-5.949 18.303,-21.235 23.829,-25.038 z"
     id="path53" />
  <path
     fill="#2b2e3c"
     d="m 497.29864,145.37303 c 1.575,0.543 2.33,1.836 3.041,3.241 -0.346,2.896 -17.761,18.074 -21.226,21.386 l -1.073,0.516 -0.986,-0.434 c -0.619,-1.185 -0.909,-1.586 -0.635,-2.974 0.875,-4.425 16.852,-18.717 20.879,-21.735 z"
     id="path54" />
  <path
     fill="#27272f"
     d="m 505.74964,307.42003 c 0.228,0.177 0.479,0.327 0.682,0.531 0.604,0.606 1.142,2.011 1.13,2.845 -0.026,1.952 -21.297,22.2 -24.436,24.791 -1.09,-0.93 -1.665,-1.516 -2.323,-2.83 0.675,-4.759 19.969,-20.106 24.369,-24.725 z"
     id="path55" />
  <path
     fill="#27272f"
     d="m 547.73964,263.38603 c 0.375,0.203 0.957,0.494 1.263,0.775 0.845,0.773 1.204,1.684 1.01,2.828 -0.768,4.53 -15.944,17.934 -19.797,21.38 -1.359,-1.172 -2.45,-2.487 -3.595,-3.866 6.989,-7.076 13.881,-14.297 21.119,-21.117 z"
     id="path56" />
  <path
     fill="#27272f"
     d="m 444.82764,269.35503 c 1.857,0.889 2.779,2.465 3.894,4.116 -6.433,6.444 -12.856,12.866 -18.944,19.642 -0.94,0.414 -1.555,0.452 -2.565,0.534 -0.705,-0.828 -0.591,-0.408 -0.574,-1.474 0.101,-6.195 13.58,-18.419 18.189,-22.818 z"
     id="path57" />
  <path
     fill="#27272f"
     d="m 633.21864,225.89503 c 0.377,0.05 0.744,0.08 1.102,0.235 1.299,0.563 1.491,0.814 1.888,2.067 -0.777,3.363 -15.124,19.056 -17.967,22.501 -0.479,-0.244 -0.689,-0.331 -1.16,-0.676 -1.15,-0.84 -1.526,-1.412 -1.779,-2.781 2.292,-5.924 12.631,-17.408 17.916,-21.346 z"
     id="path58" />
  <path
     fill="#2b2e3c"
     d="m 661.38464,270.94403 c 0.467,0.304 1.251,0.733 1.635,1.167 0.914,1.034 1.033,1.346 0.916,2.623 -3.934,5.993 -12.148,13.673 -17.845,18.15 -0.395,-0.129 -0.845,-0.252 -1.189,-0.492 -1.159,-0.809 -1.316,-1.277 -1.563,-2.561 1.746,-5.794 13.098,-15.089 18.046,-18.887 z"
     id="path59" />
  <path
     fill="#27272f"
     d="m 605.94264,253.30803 c 1.684,0.436 2.879,1.999 4.062,3.216 -6.824,6.359 -13.716,12.73 -20.185,19.451 -1.411,-0.749 -2.787,-1.597 -4.174,-2.394 5.756,-7.336 13.313,-14.096 20.297,-20.273 z"
     id="path60" />
  <path
     fill="#2b2e3c"
     d="m 569.77664,390.85103 c 0.68,0.288 0.997,0.495 1.53,1.039 0.549,0.56 0.684,0.937 0.512,1.752 -0.972,4.6 -15.532,16.367 -19.68,19.51 -1.467,-0.626 -2.248,-2.216 -3.118,-3.489 5.712,-6.903 13.784,-13.184 20.756,-18.812 z"
     id="path61" />
  <path
     fill="#2b2e3c"
     d="m 455.10164,186.38603 0.938,0.255 c 1.049,0.956 1.655,1.401 2.008,2.83 -0.796,2.589 -14.842,17.028 -17.465,18.841 -0.966,-0.136 -1.473,-0.193 -2.268,-0.816 -0.723,-0.567 -0.557,-0.772 -0.672,-1.612 2.076,-6.305 12.332,-15.178 17.459,-19.498 z"
     id="path62" />
  <path
     fill="#27272f"
     d="m 452.52164,289.39203 1.508,0.4 c 0.494,0.582 0.979,0.823 0.913,1.646 -0.331,4.134 -15.577,17.536 -19.295,20.763 -0.291,-0.072 -0.599,-0.092 -0.873,-0.215 -1.093,-0.493 -1.22,-1.153 -1.512,-2.182 1.725,-5.862 14.311,-16.326 19.259,-20.412 z"
     id="path63" />
  <path
     fill="#27272f"
     d="m 473.56264,244.61803 c 0.773,0.916 1.21,1.685 1.672,2.79 -1.303,4.384 -15.074,17.205 -19.178,19.895 l -1.191,-0.761 c -0.34,-0.778 -0.613,-1.06 -0.475,-1.934 0.85,-5.385 14.6,-16.819 19.172,-19.99 z"
     id="path64" />
  <path
     fill="#27272f"
     d="m 641.34364,241.39203 c 1.322,0.816 2.112,2.089 3.062,3.301 -4.563,6.44 -10.666,12.06 -16.22,17.646 -1.488,-1.11 -2.589,-1.956 -3.024,-3.77 2.911,-5.679 11.32,-12.832 16.182,-17.177 z"
     id="path65" />
  <path
     fill="#27272f"
     d="m 503.05764,261.43903 c 2.066,0.511 4.212,0.785 6.312,1.137 -5.829,5.872 -12.165,11.163 -17.905,17.156 -0.629,0.727 -0.699,0.762 -1.675,1.114 l -1.388,-0.726 c -0.812,-1.307 -0.909,-1.565 -0.959,-3.099 2.711,-5.123 11.223,-11.368 15.615,-15.582 z"
     id="path66" />
  <path
     fill="#27272f"
     d="m 635.25564,296.83103 c 1.324,0.641 2.381,1.489 3.027,2.823 -0.166,3.238 -12.613,15.112 -15.582,18.155 -1.323,-0.961 -2.448,-1.657 -3.166,-3.189 0.315,-3.046 12.95,-14.868 15.721,-17.789 z"
     id="path67" />
  <path
     fill="#27272f"
     d="m 666.88964,288.83403 c 0.906,0.134 1.411,0.51 2.189,0.971 l 0.258,1.052 c -5.672,7.588 -13.448,14.8 -20.183,21.496 -0.538,-0.349 -0.926,-0.575 -1.417,-1.019 -0.98,-0.885 -1.086,-1.649 -1.105,-2.889 2.969,-4.453 15.483,-14.766 20.258,-19.611 z"
     id="path68" />
  <path
     fill="#2b2e3c"
     d="m 602.66664,504.96803 c 0.937,1.155 1.107,1.286 1.236,2.748 -1.707,4.396 -12.204,16.491 -16.427,18.432 -1.167,-1.01 -1.455,-1.088 -1.791,-2.568 1.688,-5.485 12.276,-15.376 16.982,-18.612 z"
     id="path69" />
  <path
     fill="#27272f"
     d="m 561.27164,178.40003 c 0.539,0.097 1.01,0.411 1.496,0.66 0.35,0.597 0.829,1.084 0.769,1.809 -0.345,4.161 -12.034,13.652 -15.518,16.571 l -3.523,-3.043 c 4.875,-5.87 10.972,-11.061 16.776,-15.997 z"
     id="path70" />
  <path
     fill="#27272f"
     d="m 603.86064,305.84603 c 0.866,0.198 1.171,0.495 1.856,1.034 0.294,1.047 0.502,1.488 0.146,2.558 -1.16,3.491 -10.441,13.178 -13.796,14.772 -1.384,-0.678 -2.535,-1.165 -3.508,-2.417 0.644,-3.467 12.24,-13.08 15.302,-15.947 z"
     id="path71" />
  <path
     fill="#27272f"
     d="m 576.77764,531.56903 c 0.205,0.231 0.428,0.448 0.615,0.694 0.798,1.048 1.081,1.925 0.644,3.183 -1.534,4.427 -10.126,12.111 -14.43,13.851 -0.41,-0.149 -0.905,-0.321 -1.291,-0.508 -1.142,-0.554 -1.399,-0.519 -1.761,-1.745 3.211,-5.55 11.124,-11.572 16.223,-15.475 z"
     id="path72" />
  <path
     fill="#2b2e3c"
     d="m 595.43764,143.41803 c 0.942,1 1.575,2.454 1.503,3.853 -0.229,4.448 -6.234,9.408 -9.59,11.817 -1.511,1.085 -2.169,0.981 -3.985,0.681 -1.15,-0.778 -1.866,-1.009 -2.382,-2.322 3.762,-5.141 9.803,-9.581 14.454,-14.029 z"
     id="path73" />
  <path
     fill="#27272f"
     d="m 634.19564,340.86203 c 1.671,0.763 3.134,2.175 4.557,3.327 -4.24,4.573 -9.05,8.818 -13.875,12.757 -0.422,-0.011 -0.874,-0.006 -1.285,-0.104 -1.358,-0.323 -1.629,-0.452 -2.216,-1.615 0.971,-4.538 9.366,-11.024 12.819,-14.365 z"
     id="path74" />
  <path
     fill="#2b2e3c"
     d="m 473.79264,336.47903 c 1.236,1.125 2.06,2.989 2.892,4.446 -3.873,4.389 -8.238,8.556 -12.718,12.32 -0.363,-0.215 -0.854,-0.489 -1.163,-0.762 -1.058,-0.935 -1.061,-1.265 -1.131,-2.585 2.368,-5.244 7.992,-9.5 12.12,-13.419 z"
     id="path75" />
  <path
     fill="#27272f"
     d="m 606.37964,551.40503 c 0.132,0.005 0.265,-0.009 0.395,0.013 1.331,0.222 1.578,0.374 2.445,1.335 0.045,0.55 0.116,0.936 -0.047,1.503 -1.097,3.827 -8.186,9.243 -11.508,11.232 -0.783,-0.318 -1.336,-0.593 -2.011,-1.12 -0.789,-0.617 -0.602,-0.766 -0.734,-1.694 1.856,-4.926 7.164,-8.524 11.46,-11.269 z"
     id="path76" />
  <path
     fill="#27272f"
     d="m 504.17864,284.48503 3.489,3.967 c -4.087,4.047 -8.09,8.271 -12.536,11.925 -1.3,-0.693 -2.324,-1.292 -3.376,-2.358 0.831,-3.266 9.715,-10.844 12.423,-13.534 z"
     id="path77" />
  <path
     fill="#27272f"
     d="m 413.73864,240.88403 c 1.085,0.02 1.252,0.105 2.182,0.678 l 0.234,1.194 c -1.543,4.877 -9.489,10.808 -13.282,14.465 l -0.881,0.197 -0.853,-0.579 c -0.086,-0.502 -0.174,-0.873 -0.141,-1.402 0.297,-4.743 9.122,-11.847 12.741,-14.553 z"
     id="path78" />
  <path
     fill="#27272f"
     d="m 556.28464,231.45603 c 1.338,0.961 2.236,3.003 3.074,4.431 -4.361,3.496 -8.329,7.458 -12.365,11.317 -0.131,-0.06 -0.274,-0.098 -0.394,-0.179 -1.211,-0.816 -1.486,-1.183 -1.963,-2.494 0.748,-4.387 8.327,-10.005 11.648,-13.075 z"
     id="path79" />
  <path
     fill="#2b2e3c"
     d="m 577.79464,111.36003 c 1.014,0.006 1.808,0.287 2.526,1.028 0.488,0.502 0.552,1 0.488,1.701 -0.309,3.419 -7.961,8.515 -10.545,10.609 l -3.437,-3.168 c 2.929,-4.283 6.755,-7.247 10.968,-10.17 z"
     id="path80" />
  <path
     fill="#27272f"
     d="m 486.47964,204.96803 c 0.135,0.038 0.286,0.041 0.406,0.113 1.171,0.707 1.456,1.249 1.932,2.446 -0.881,3.398 -5.342,5.587 -7.489,8.249 -0.962,1.192 -1.574,2.84 -2.184,4.237 -0.73,-0.601 -1.525,-1.208 -2.165,-1.904 -0.83,-0.903 -1.431,-1.966 -1.248,-3.237 0.553,-3.85 7.797,-7.779 10.748,-9.904 z"
     id="path81" />
  <path
     fill="#2b2e3c"
     d="m 640.03764,315.87903 c 1.426,0.725 2.614,2.022 3.781,3.104 -3.974,3.747 -7.979,7.463 -12.012,11.146 -1.143,-0.93 -1.937,-1.546 -2.503,-2.965 0.619,-4.182 7.509,-8.597 10.734,-11.285 z"
     id="path82" />
  <path
     fill="#27272f"
     d="m 564.25564,318.53803 c 1.387,0.634 2.191,0.979 3.002,2.358 -0.089,3.945 -5.831,7.472 -7.942,10.883 -0.111,0.181 -0.219,0.364 -0.328,0.545 -1.732,-1.163 -3.233,-2.634 -4.777,-4.031 2.992,-3.6 6.359,-6.87 10.045,-9.755 z"
     id="path83" />
  <path
     fill="#27272f"
     d="m 577.68264,161.96103 c 1.387,0.445 2.244,1.647 3.247,2.674 -3.793,3.802 -7.543,7.646 -11.25,11.533 -0.037,-0.011 -0.078,-0.014 -0.112,-0.033 -1.564,-0.887 -2.062,-2.585 -2.857,-4.149 3.541,-3.465 7.101,-6.928 10.972,-10.025 z"
     id="path84" />
  <path
     fill="#2b2e3c"
     d="m 583.26564,600.47503 c 1.256,1.24 1.832,2.689 2.559,4.277 -2.956,3.325 -5.761,6.44 -9.447,8.979 -1.18,0.122 -1.053,0.315 -2.104,-0.43 -0.114,-0.677 -0.163,-0.752 -0.098,-1.521 0.324,-3.817 6.201,-9 9.09,-11.305 z"
     id="path85" />
  <path
     fill="#2b2e3c"
     d="m 674.75264,302.97103 c 1.225,1.115 1.83,2.078 2.045,3.694 -1.672,1.617 -8.264,9.227 -9.417,9.727 -1.305,-0.703 -2.243,-1.376 -3.344,-2.368 l 0.031,-0.905 c 2.873,-3.827 6.967,-7.144 10.685,-10.148 z"
     id="path86" />
  <path
     fill="#27272f"
     d="m 473.40064,170.42503 c 1.124,0.696 1.403,0.848 2.037,1.99 -0.545,3.745 -7.137,8.076 -10.03,10.308 -1.403,-0.828 -2.339,-2.62 -3.247,-3.963 3.794,-2.713 7.542,-5.491 11.24,-8.335 z"
     id="path87" />
  <path
     fill="#27272f"
     d="m 513.82464,346.82703 c 0.14,0.018 0.283,0.02 0.419,0.055 1.16,0.29 1.834,0.648 2.529,1.597 -0.269,3.693 -6.111,8.765 -8.583,11.471 -0.213,0.038 -0.422,0.121 -0.639,0.116 -1.387,-0.034 -1.671,-0.304 -2.408,-1.329 -0.051,-3.602 6.308,-9.366 8.682,-11.91 z"
     id="path88" />
  <path
     fill="#27272f"
     d="m 657.41264,321.93103 c 1.037,0.688 1.066,0.62 1.35,1.82 -1.726,3.976 -10.997,10.173 -14.514,13.328 -0.707,-0.595 -1.193,-1.171 -1.772,-1.884 0.489,-2.736 12.118,-11.291 14.936,-13.264 z"
     id="path89" />
  <path
     fill="#27272f"
     d="m 553.43964,91.473033 c 0.036,0.01 0.074,0.013 0.107,0.031 1.079,0.593 1.16,0.59 1.476,1.74 -1.865,3.565 -10.415,8.706997 -13.797,11.463997 -0.958,0.093 -1.151,-0.028 -1.998,-0.411 0.818,-2.546 3.723,-5.527997 5.682,-7.329997 0.22,-0.202 0.447,-0.397 0.666,-0.6 2.346,-2.18 5.033,-3.455 7.864,-4.894 z"
     id="path90" />
  <path
     fill="#27272f"
     d="m 522.47964,290.44703 c 1.254,0.663 1.643,0.727 2.305,1.954 -1.096,4.129 -5.998,7.818 -9.004,10.722 -1.242,-1.158 -1.959,-2.687 -2.782,-4.151 2.775,-3.231 6.166,-5.881 9.481,-8.525 z"
     id="path91" />
  <path
     fill="#27272f"
     d="m 513.21464,128.93303 c 0.874,0.041 1.304,0.086 2.086,0.538 0.811,0.469 0.664,0.708 0.897,1.551 -1.149,3.663 -5.768,6.919 -8.597,9.45 -0.866,0.1 -1.4,-0.192 -2.207,-0.478 -0.405,-0.787 -0.56,-0.705 -0.397,-1.464 0.702,-3.274 5.628,-7.56 8.218,-9.597 z"
     id="path92" />
  <path
     fill="#27272f"
     d="m 496.63664,170.68103 c 1.364,1.079 2.194,2.743 3.093,4.213 -2.831,2.606 -5.465,5.213 -7.944,8.159 -0.185,-0.145 -0.375,-0.283 -0.554,-0.434 -0.739,-0.623 -1.737,-1.533 -1.703,-2.571 0.102,-3.15 5.012,-7.097 7.108,-9.367 z"
     id="path93" />
  <path
     fill="#27272f"
     d="m 563.51964,248.10803 c 0.271,0.167 0.566,0.3 0.814,0.5 1.09,0.88 1.181,1.343 1.315,2.633 -1.535,3.698 -4.942,5.981 -7.928,8.49 -0.038,-0.013 -0.08,-0.019 -0.114,-0.04 -1.119,-0.693 -1.226,-0.991 -1.769,-2.175 0.388,-3.705 4.947,-7.152 7.682,-9.408 z"
     id="path94" />
  <path
     fill="#27272f"
     d="m 539.70864,518.42603 c 1.111,1.031 1.734,1.622 2.121,3.159 -0.463,3.491 -4.672,6.442 -7.173,8.748 -0.194,-0.115 -0.403,-0.207 -0.581,-0.345 -0.94,-0.732 -1.593,-1.336 -1.498,-2.602 0.242,-3.204 4.989,-6.876 7.131,-8.96 z"
     id="path95" />
  <path
     fill="#27272f"
     d="m 510.25564,323.44003 c 1.745,1.839 3.492,3.033 5.636,4.322 -1.764,2.174 -3.318,3.498 -5.837,4.785 l -0.803,0.284 c -1.677,-0.291 -3.028,-1.672 -4.323,-2.724 1.498,-2.455 3.43,-4.52 5.327,-6.667 z"
     id="path96" />
  <path
     fill="#27272f"
     d="m 514.63064,250.88403 c 0.472,0.025 1.238,0.046 1.678,0.16 1.283,0.335 1.477,0.705 2.034,1.782 -0.465,3.195 -4.912,6.099 -7.238,8.082 -0.708,0.556 -0.316,0.351 -1.176,0.615 l -1.153,-0.861 c -0.018,-0.193 -0.061,-0.386 -0.053,-0.581 0.128,-3.263 3.724,-6.939 5.908,-9.197 z"
     id="path97" />
  <path
     fill="#27272f"
     d="m 479.94264,284.86403 c 0.164,0.002 0.331,-0.025 0.491,0.007 1.159,0.23 1.889,0.85 2.501,1.792 -0.331,3.208 -4.044,5.766 -6.319,7.845 l -0.627,0.347 -0.894,-0.434 c -0.613,-1.068 -1.185,-2.063 -0.974,-3.351 0.399,-2.429 3.986,-4.717 5.822,-6.206 z"
     id="path98" />
  <path
     fill="#27272f"
     d="m 555.72064,555.34103 c 0.841,0.069 1.639,0.386 2.443,0.633 0.399,0.453 0.85,0.685 0.777,1.344 -0.279,2.511 -4.491,5.601 -6.289,7.255 l -0.636,0.421 -1.708,-0.371 -0.456,-1.061 c 0.073,-3.029 3.883,-6.146 5.869,-8.221 z"
     id="path99" />
  <path
     fill="#27272f"
     d="m 681.04764,319.45603 c 0.871,0.017 1.393,0.123 2.216,0.353 l 0.091,0.818 c -2.002,3.039 -5.305,5.534 -7.723,8.35 -0.76,-0.043 -1.273,-0.453 -1.929,-0.816 -0.342,-1.12 -0.383,-0.69 -0.101,-1.738 0.868,-3.233 4.732,-5.503 7.446,-6.967 z"
     id="path100" />
  <path
     fill="#27272f"
     d="m 621.70964,332.93303 c 1.145,0.94 1.725,1.262 2.287,2.656 -0.637,2.48 -3.443,4.675 -5.234,6.487 -1.02,-1.128 -1.922,-2.558 -2.837,-3.784 1.846,-1.869 3.837,-3.597 5.784,-5.359 z"
     id="path101" />
  <path
     fill="#27272f"
     d="m 462.67564,278.34303 c 1.429,1.065 2.956,1.982 4.467,2.924 l -3.946,4.639 c -0.803,0.066 -1.658,-0.171 -2.453,-0.307 -0.619,-0.485 -1.124,-0.597 -1.211,-1.442 -0.233,-2.279 1.787,-4.203 3.143,-5.814 z"
     id="path102" />
  <path
     fill="#27272f"
     d="m 611.10364,322.39003 c 1.617,0.915 2.39,2.332 3.401,3.848 l -3.875,3.704 c -0.775,0.078 -1.371,-0.181 -1.988,-0.631 -0.758,-0.553 -0.613,-1.168 -0.772,-2.045 0.643,-2.206 1.64,-3.256 3.234,-4.876 z"
     id="path103" />
  <path
     fill="#27272f"
     d="m 513.71164,469.85303 c 0.461,0.071 0.626,0.072 1.102,0.28 1.171,0.511 1.7,1.099 2.116,2.257 -0.403,1.833 -1.486,2.636 -2.832,3.867 l -0.684,0.096 c -1.376,-0.826 -1.441,-0.884 -2.062,-2.362 0.399,-2.232 0.865,-2.522 2.36,-4.138 z"
     id="path104" />
  <path
     fill="#27272f"
     d="m 456.27464,355.82003 c 1.25,0.669 2.397,1.139 3.14,2.411 -0.276,1.574 -1.057,1.95 -2.197,3.03 -0.175,0.002 -0.352,0.034 -0.525,0.007 -1.241,-0.194 -1.473,-0.441 -2.171,-1.384 0.079,-1.688 0.862,-2.702 1.753,-4.064 z"
     id="path105" />
  <path
     fill="#F7F2E1"
     d="m 89.756636,264.74503 c 17.308004,-1.265 34.576004,-3.286 51.861004,-4.853 l 110.169,-9.86 c 33.785,-3.069 67.711,-5.006 101.456,-8.325 14.154,27.592 26.544,55.966 39.537,84.099 l 48.56,103.129 c -2.74,1.033 -5.466,1.959 -7.913,3.603 l -1.494,0.545 -0.319,-0.377 c 1.296,-1.142 2.581,-2.184 3.998,-3.172 -6.426,2.438 -13.827,4.294 -18.039,10.081 -0.057,0.078 -0.116,0.154 -0.174,0.231 -9.72,0.252 -12.12,1.653 -19.185,8.045 4.473,-1.717 11.018,-4.615 15.901,-3.969 -0.115,0.912 -0.218,1.826 -0.308,2.74 0.802,0.771 0.916,0.748 1.997,0.734 3.917,-0.051 8.555,-2.463 12.239,-3.772 0.273,-1.483 -0.413,-2.215 -1.058,-3.531 l -0.07,-0.669 -0.605,-0.221 c -0.735,0.748 -1.458,1.394 -2.295,2.025 l -0.476,-0.487 0.082,-0.873 c 0.846,-1.05 1.569,-1.802 2.757,-2.473 1.432,-0.809 2.56,-1.998 4.054,-2.655 1.144,-0.509 2.227,-1.205 3.314,-1.827 2.718,-1.202 5.41,-2.492 8.256,-3.361 l 36.477,79.813 c 4.435,9.43 8.808,18.888 13.118,28.375 1.698,3.822 4.007,8.151 4.95,12.181 -1.505,-0.651 -1.709,-0.977 -3.325,-0.468 -4.693,5.038 -2.365,8.783 -3.877,12.365 -0.693,1.643 -2.978,3.322 -3.997,4.943 -0.113,2.701 -0.211,5.404 -0.295,8.107 -1.805,1.123 -2.802,2.041 -3.32,4.205 -0.775,3.233 0.744,6.378 2.482,9.03 l 0.815,1.226 c -1.376,1.514 -2.651,2.85 -2.635,5.017 0.007,0.883 0.168,1.767 0.331,2.632 -0.719,0.18 -0.412,0.205 -0.921,0.081 -0.744,-0.956 -1.614,-2.018 -2.822,-2.402 -3.818,-1.214 -4.843,3.366 -7.506,4.046 -1.527,0.391 -3.504,-0.314 -5.065,0.284 -1.9,0.729 -3.083,3.342 -4.817,4.126 -3.024,1.367 -7.249,1.364 -10.515,2.666 -0.255,0.102 -0.504,0.215 -0.758,0.317 -5.886,2.377 -4.607,6.027 -11.999,6.46 -4.672,0.274 -6.984,2.219 -10.048,5.684 l -10.075,2.753 c -3.793,-7.085 -6.368,-15.294 -9.616,-22.688 l -26.969,-62.113 -18.234,-41.341 c -2.619,-5.784 -6.706,-12.386 -8.341,-18.453 1.91,-1.959 4.375,-4.585 4.649,-7.474 0.104,-1.099 -0.057,-2.086 -0.852,-2.906 -1.745,-1.803 -5.096,-2.385 -7.489,-2.535 0.202,0.127 0.399,0.263 0.606,0.382 0.757,0.43 1.17,0.55 1.964,0.771 1.89,0.528 3.435,1.687 4.547,3.296 0.091,1.256 0.127,1.263 -0.61,2.275 -2.257,-0.801 -2.831,-3.338 -5.113,-4.38 l -0.472,0.42 -0.014,0.353 1.939,1.391 -0.044,0.531 c -3.773,0.204 -7.543,-0.106 -11.317,0.092 -12.383,0.652 -24.225,4.622 -35.002,10.648 -5.022,2.809 -10.183,6.877 -15.442,9.039 -1.555,1.013 -3.008,1.763 -3.889,3.445 -0.037,1.216 -0.157,1.723 0.851,2.616 1.653,1.463 4.834,2.229 6.917,2.965 6.346,21.016 12.494,42.09 18.443,63.221 l 12.992,48.932 c 1.645,5.968 12.541,41.2 11.973,45.255 -5.033,1.916 -13.458,-0.296 -18.679,-1.186 -2.359,1.043 -4.675,2.145 -7.171,2.82 l -5.67,-1.653 -6.174,1.859 c -0.24,-0.169 -0.484,-0.331 -0.719,-0.505 -4.931,-3.651 -8.882,0.034 -13.806,-0.677 -1.293,-1.863 -2.01,-3.085 -4.306,-3.714 -3.574,-0.98 -3.71,-2.351 -5.601,-5.348 -3.829,-1.813 -7.887,-4.855 -11.765,-6.194 -1.418,-0.49 -3.036,0.519 -4.28,0.141 -3.453,-1.05 -4.795,-3.318 -8.897,-2.886 -0.65,-0.085 -1.493,-0.14 -2.132,-0.346 -1.174,-0.377 -2.031,-2.22 -2.517,-3.253 -5.358,-11.418 -9.817,-23.995 -14.812,-35.679 l -42.522,-99.491 -68.431,-159.468 c -10.677,-24.857 -22.373004,-49.299 -32.438004,-74.41 z"
     id="path106"
     style="fill:#19a0bd;fill-opacity:1" />
  <path
     fill="#2b2e3c"
     d="m 300.19764,411.52903 c 1.938,-0.814 2.401,-1.002 4.479,-0.464 l 0.65,0.828 c 7.13,0.798 25.486,6.261 29.822,11.464 0.434,0.521 0.544,0.448 0.418,1.006 -0.231,1.027 -1.079,1.952 -1.694,2.789 -0.083,1.367 0.403,1.982 1.002,3.195 l -1.141,-0.408 c -0.222,1.171 -0.107,2 0.062,3.15 0.119,0.805 0.075,0.511 0.081,1.558 1.11,3.744 2.387,7.519 3.036,11.374 1.253,-0.437 1.464,-0.824 2.736,-0.294 0.978,0.456 1.695,0.72 2.334,1.616 -0.098,0.778 0.042,1.04 -0.605,1.593 -2.064,1.766 -5.42,2.252 -8.015,2.851 4.213,0.201 12.006,-0.046 15.142,3.239 1.336,1.399 1.447,2.944 1.302,4.786 -0.105,1.324 -0.479,2.261 0.098,3.479 l 1.443,0.192 c 0.202,0.127 0.399,0.263 0.606,0.382 0.757,0.43 1.17,0.55 1.964,0.771 1.89,0.528 3.435,1.687 4.547,3.296 0.091,1.256 0.127,1.263 -0.61,2.275 -2.257,-0.801 -2.831,-3.338 -5.113,-4.38 l -0.472,0.42 -0.014,0.353 1.939,1.391 -0.044,0.531 c -3.773,0.204 -7.543,-0.106 -11.317,0.092 -12.383,0.652 -24.225,4.622 -35.002,10.648 -5.022,2.809 -10.183,6.877 -15.442,9.039 l -0.199,-0.435 c 2.893,-3.306 18.915,-12.005 23.476,-13.52 0.26,-0.087 0.522,-0.166 0.783,-0.249 l -0.018,-0.446 c -5.096,-0.161 -20.863,10.702 -26.013,13.779 l -0.405,-0.517 c -1.29,-1.407 -2.81,-3.047 -2.595,-5.118 0.338,-3.261 5.531,-5.014 7.862,-6.846 1.074,-2.52 -3.094,-5.29 -3.477,-8.094 1.102,-1.023 2.181,-2.07 3.236,-3.141 l -0.042,-0.635 c -2.37,-0.077 -3.176,2.797 -5.55,2.847 -0.643,-1.086 -0.671,-1.127 -0.523,-2.377 0.573,-0.69 1.547,-1.678 1.788,-2.547 0.858,-3.105 -2.12,-9.792 -3.275,-12.711 -0.985,-2.487 -1.652,-3.761 -4.287,-4.84 -0.289,-0.118 -0.582,-0.229 -0.873,-0.344 1.327,-7.468 7.777,-17.263 12.381,-23.158 1.169,-1.497 4.767,-4.996 5.324,-6.566 0.207,-0.587 0.143,-1.236 0.215,-1.854 z"
     id="path107" />
  <path
     fill="#F7F2E1"
     d="m 290.01364,486.91303 c 0.265,-0.211 0.523,-0.433 0.796,-0.634 14.72,-10.862 43.006,-23.111 61.446,-19.679 l 1.939,1.391 -0.044,0.531 c -3.773,0.204 -7.543,-0.106 -11.317,0.092 -12.383,0.652 -24.225,4.622 -35.002,10.648 -5.022,2.809 -10.183,6.877 -15.442,9.039 l -0.199,-0.435 c 2.893,-3.306 18.915,-12.005 23.476,-13.52 0.26,-0.087 0.522,-0.166 0.783,-0.249 l -0.018,-0.446 c -5.096,-0.161 -20.863,10.702 -26.013,13.779 z"
     id="path108"
     style="fill:#cf8a4a;fill-opacity:1;stroke:#281500;stroke-opacity:1" />
  <path
     fill="#F7F2E1"
     d="m 336.91264,446.02103 c -1.224,0.129 -2.169,0.161 -3.401,-0.027 -0.242,-0.322 -0.39,-0.493 -0.573,-0.891 -1.055,-2.288 -5.832,-14.712 -5.208,-16.389 1.064,-0.602 1.773,-0.93 2.993,-1.068 1.859,1.275 2.494,4.865 3.153,7.001 1.11,3.744 2.387,7.519 3.036,11.374 z"
     id="path109"
     style="fill:#fff108;fill-opacity:1;stroke:#776d00;stroke-opacity:1" />
  <path
     fill="#f7f2e1"
     d="m 320.51658,429.60503 0.97897,-0.014 c 2.55573,2.438 5.02192,14.193 6.17912,18.333 -4.60492,1.768 -9.23115,3.461 -13.87615,5.077 l -0.56538,-0.032 c -2.67085,-2.038 -5.50969,-13.677 -6.70953,-17.66 4.50941,-2.672 9.13735,-4.187 13.99297,-5.704 z"
     id="path110"
     style="fill:#fff108;fill-opacity:1;stroke:#776d00;stroke-width:0.923451;stroke-opacity:1" />
  <path
     fill="#F7F2E1"
     d="m 299.46264,436.97303 c 1.113,0.162 1.216,0.329 1.854,1.305 1.541,2.352 5.873,13.61 5.212,16.171 -2.971,2.24 -7.016,3.585 -10.438,5.073 l -0.24,-0.081 c -2.083,-2.219 -5.616,-13.776 -6.967,-17.308 3.452,-1.913 6.976,-3.552 10.579,-5.16 z"
     id="path111"
     style="fill:#fff108;fill-opacity:1;stroke:#776d00;stroke-opacity:1" />
  <path
     fill="#27272f"
     d="m 300.19764,411.52903 c -0.708,-0.69 -1.287,-1.356 -1.861,-2.161 0.358,-3.125 -1.043,-7.114 -0.213,-9.869 0.955,0.399 1.731,4.083 2.534,5.151 0.993,1.322 2.774,1.86 3.868,3.021 0.941,1 0.354,2.165 0.151,3.394 -2.078,-0.538 -2.541,-0.35 -4.479,0.464 z"
     id="path112" />
  <path
     fill="#27272f"
     d="m 333.87664,434.64703 c -0.006,-1.047 0.038,-0.753 -0.081,-1.558 -0.169,-1.15 -0.284,-1.979 -0.062,-3.15 l 1.141,0.408 c 1.697,5.079 3.563,10.159 4.774,15.38 -1.272,-0.53 -1.483,-0.143 -2.736,0.294 -0.649,-3.855 -1.926,-7.63 -3.036,-11.374 z"
     id="path113" />
  <path
     fill="#2B2E3C"
     d="m 426.98464,440.09303 -0.07,-0.669 -0.605,-0.221 c -0.735,0.748 -1.458,1.394 -2.295,2.025 l -0.476,-0.487 0.082,-0.873 c 0.846,-1.05 1.569,-1.802 2.757,-2.473 1.432,-0.809 2.56,-1.998 4.054,-2.655 0.341,1.399 0.612,2.4 0.266,3.847 -0.939,1.151 -2.336,1.22 -3.713,1.506 z"
     id="path114"
     style="fill:#4f536b;fill-opacity:1;stroke:#281500;stroke-opacity:1" />
  <path
     fill="#2B2E3C"
     d="m 302.94964,271.46503 0.978,0.589 0.196,0.95 c -1.838,3.51 -3.534,9.58 -6.349,12.145 -0.733,0.668 -1.14,1.152 -1.605,2.056 0.142,0.607 0.37,1.379 0.371,2.018 0.002,1.991 -2.781,4.107 -4.049,5.592 0.528,0.655 0.908,1.202 1.239,1.977 -0.505,1.067 -0.926,1.502 -1.883,2.138 -4.243,2.819 -0.73,2.884 -1.849,6.514 -1.041,0.882 -2.287,1.772 -2.964,2.979 -1.158,2.063 1.196,2.045 1.703,3.892 -0.487,1.524 -1.284,2.009 -2.529,2.888 -0.16,0.113 -0.323,0.223 -0.485,0.335 -0.318,2.184 1.248,3.976 1.314,6.27 -0.507,0.555 -1.007,1.044 -1.577,1.54 -2.169,1.881 1.552,5.795 0.447,8.453 -0.653,0.367 -1.541,0.763 -2.088,1.265 -1.164,1.066 -0.035,3.457 0.044,5.011 -0.357,1.001 -0.637,1.387 -1.502,1.964 -0.827,0.552 -0.791,0.48 -1.274,1.472 0.158,0.573 0.437,1.37 0.459,1.984 0.09,2.52 -3.64,10.755 -5.328,12.791 -0.947,1.142 -1.84,2.329 -2.759,3.495 2.867,0.657 5.727,1.34 8.582,2.049 2.879,-1.468 6.684,-3.929 9.901,-4.311 2.104,-0.251 4.453,0.328 6.11,1.668 1.225,0.992 2.086,2.37 2.124,3.987 0.034,1.45 -0.593,2.704 -1.52,3.774 -2.666,3.08 -6.934,2.894 -10.414,4.477 -3.75,1.706 -6.053,5.824 -10.004,7.485 -3.485,1.463 -24.256,0.738 -30.188,1.24 0.101,1.613 0.59,4.041 -0.202,5.483 l -2.274,0.506 c -0.607,1.004 -0.534,0.606 -0.61,1.674 -0.566,7.907 -3.567,2.827 -5.592,5.53 -1.167,1.557 -1.246,3.47 -2.782,5.028 -1.658,0.41 -2.325,-0.065 -3.908,-0.63 -2.224,1.879 -3.991,5.454 -5.641,7.866 -0.949,1.388 -1.951,2.995 -3.661,3.31 l -0.892,-1.195 c -1.755,0.372 -7.767,10.477 -11.802,11.888 -0.609,-0.559 -0.992,-0.85 -1.743,-1.241 -1.38,1.424 -1.781,4.171 -2.314,6.062 -0.244,0.528 -0.296,0.701 -0.697,1.222 -0.733,0.954 -1.756,2.127 -2.948,2.224 l -0.49,-1.76 -0.986,1.101 c -0.169,1.075 -0.271,1.741 -0.771,2.723 l -0.803,-0.718 c -5.582,1.567 -3.889,5.869 -6.628,9.478 -0.506,0.666 -0.442,0.455 -1.384,0.598 -1.192,-1.978 -1.369,-4.844 -1.259,-7.102 0.693,-14.21 9.563,-41.492 21.331,-50.432 5.902,-4.483 12.231,-6.312 17.969,-11.607 -0.583,-1.567 -1.265,-4.306 -2.317,-5.581 -1.096,-1.329 -4.93,-1.051 -6.676,-1.621 -1.453,-0.474 -1.89,-1.118 -2.489,-2.4 l 0.505,-1.1 c 0.752,-0.542 1.342,-1.001 2.264,-1.201 2.329,-0.505 3.815,-1.645 5.967,-2.436 3.601,-1.322 9.674,0.455 13.473,0.975 4.726,-8.299 11.06,-22.994 13.558,-32.126 1.273,-4.655 1.515,-9.547 2.98,-14.159 1.173,-3.779 3.122,-7.271 5.722,-10.255 7.527,-8.742 29.475,-23.35 39.999,-28.791 z"
     id="path115"
     style="fill:#887762;fill-opacity:1;stroke:#723d00;stroke-opacity:1" />
  <path
     fill="#2B2E3C"
     d="m 186.93964,317.51703 c 1.058,0.028 0.511,-0.06 1.631,0.317 -0.903,0.917 -1.657,1.771 -2.399,2.832 l 0.486,0.525 c 1.272,-0.016 2.544,0.003 3.815,0.055 -1.466,2.278 -4.772,2.824 -6.98,4.222 -0.987,0.625 -1.705,1.142 -2.007,2.3 0.748,0.836 1.46,1.458 1.721,2.581 -2.217,2.336 -5.29,0.385 -7.311,1.808 1.074,1.147 1.858,1.633 2.123,3.207 l -0.895,0.96 c -2.798,1.24 -7.054,-0.479 -9.86,-1.362 -3.438,-1.081 -6.123,-1.025 -9.699,-0.861 -1.255,0.201 -2.364,0.334 -3.643,0.311 0.645,-0.628 1.227,-1.236 1.776,-1.949 -1.624,-1.307 -4.726,-1.659 -6.755,-2.163 3.517,-0.218 7.527,0.406 10.901,-0.516 -0.558,-0.821 -1.074,-1.169 -1.011,-2.186 5.131,-0.979 8.237,3.231 11.205,3.19 0.825,-0.011 2.562,-2.919 3.093,-3.657 3.539,-4.916 8.206,-7.664 13.809,-9.614 z"
     id="path116"
     style="fill:#4f536b;fill-opacity:1;stroke:#281500;stroke-opacity:1" />
  <path
     fill="#27272F"
     d="m 406.98264,379.49803 0.578,0.349 c -0.223,0.575 -0.499,1.18 -0.681,1.77 -1.807,5.847 -8.405,9.587 -10.147,16.398 0.315,0.77 0.587,1.515 0.808,2.317 -0.337,0.174 -0.764,0.408 -1.129,0.555 -2.375,0.957 -7.746,2.485 -10.07,1.482 -0.635,-1.391 -0.321,-1.644 0.124,-3.059 l -0.825,-0.294 c -2.796,0.731 -5.597,1.186 -8.449,1.633 -2.809,0.481 -5.583,1.327 -8.341,2.047 7.569,-9.452 10.282,-4.658 19.621,-7.974 0.221,-0.537 0.438,-1.076 0.625,-1.625 l 0.187,-0.562 c 6.237,-3.889 11.279,-9.471 17.699,-13.037 z"
     id="path117"
     style="fill:#4f536b;fill-opacity:1;stroke:#281500;stroke-opacity:1" />
  <path
     fill="#2B2E3C"
     d="m 375.55864,297.01703 0.526,0.312 0.131,0.604 c -1.392,1.784 -2.804,3.855 -4.46,5.393 -2.058,1.911 -5.001,3.292 -6.602,5.596 0.72,0.283 1.002,0.363 1.793,0.217 0.909,-0.169 0.975,-0.676 1.478,-1.391 0.879,0.457 1.196,0.782 1.718,1.622 -0.211,0.603 -0.231,0.756 -0.64,1.363 -1.036,1.536 -2.882,3.362 -4.713,3.825 -2.398,0.607 -9.162,2.099 -11.114,0.879 0.049,-1.627 0.544,-2.103 1.411,-3.45 -5.141,0.354 -10.119,1.638 -15.103,2.872 6.621,-5.135 9.266,-6.583 17.867,-6.364 5.722,-4.017 11.445,-8.35 17.708,-11.478 z"
     id="path118"
     style="fill:#4f536b;fill-opacity:1;stroke:#281500;stroke-opacity:1" />
  <path
     fill="#2B2E3C"
     d="m 397.04564,482.85403 c 3.14,-1.854 6.286,-3.391 9.666,-4.755 -1.319,1.381 -2.621,2.735 -3.789,4.248 l 0.163,0.793 c 0.863,0.294 1.681,0.551 2.576,0.734 0.241,0.049 0.483,0.09 0.725,0.135 -1.646,0.88 -3.401,0.983 -5.226,1.219 -0.02,1.309 0.088,1.534 -0.89,2.499 -1.073,1.06 -3.089,2.123 -4.64,2.033 -1.38,-0.08 -1.695,-0.551 -2.479,-1.529 -0.112,-1.031 0.106,-1.559 0.515,-2.5 -3.94,0.567 -7.828,1.231 -11.726,2.043 0.289,-0.264 0.581,-0.525 0.876,-0.782 4.648,-4.027 8.313,-4.591 14.229,-4.138 z"
     id="path119"
     style="fill:#4f536b;fill-opacity:1;stroke:#281500;stroke-opacity:1" />
  <path
     fill="#2B2E3C"
     d="m 279.82664,575.67203 c 1.647,-0.197 4.325,-0.731 5.697,0.265 -0.865,1.589 -3.092,2.521 -4.62,3.416 l 4.062,-1.101 c 1.861,-0.487 4.499,-1.116 6.265,-0.067 -2.144,2.327 -8.58,3.407 -11.661,5.085 l -0.631,0.351 c -4.002,1.401 -9.347,1.82 -13.561,2.351 2.613,-1.387 8.364,-2.579 10.181,-4.529 -0.518,-0.204 -2.31,-0.711 -2.584,-1.081 1.121,-2.08 4.722,-3.634 6.852,-4.69 z"
     id="path120"
     style="fill:#4f536b;fill-opacity:1;stroke:#281500;stroke-opacity:1" />
  <path
     fill="#27272F"
     d="m 170.35164,277.12503 c 1.749,-0.114 3.521,-0.352 5.241,0.074 -1.478,2.19 -5.086,1.831 -6.63,4.639 -0.397,0.721 0.018,1.179 0.269,1.895 -0.672,0.847 -0.939,0.883 -1.987,1.177 -2.295,0.643 -3.013,1.647 -4.812,3.064 -1.559,-0.222 -2.699,-1.508 -3.86,-2.494 -3.215,-0.347 -6.223,-0.116 -9.433,0.182 4.556,-3.337 7.531,-3.559 13.043,-3.431 2.697,-2.097 5.001,-3.788 8.169,-5.106 z"
     id="path121"
     style="fill:#4f536b;fill-opacity:1;stroke:#281500;stroke-opacity:1" />
  <path
     fill="#F7F2E1"
     d="m 355.93264,215.31003 1.09,0.182 c 4.306,3.668 8.549,14.684 11.122,20.146 -20.118,1.994 -40.271,3.225 -60.413,4.917 l -144.513,12.533 -51.55,5.139 c -8.232,0.798 -16.814004,0.944 -24.959004,2.253 -1.324,0.213 -2.296,0.17 -3.258,1.168 -0.268,1.324 0.282,2.506 0.8,3.709 2.524,5.858 5.58,11.55 8.238,17.364 6.338,13.959 12.535004,27.981 18.590004,42.065 l 151.138,352.31 c 20.645,47.512 42.685,94.487 62.637,142.293 9.191,-4.7 32.026,-7.552 42.854,-9.5 21.633,-3.892 43.331,-7.899 65.098,-10.966 9.88,-1.392 19.871,-1.92 29.739,-3.356 10.017,-1.458 19.963,-3.351 30.003,-4.667 16.414,-2.15 32.89,-3.651 49.306,-5.679 26.856,-3.317 53.761,-6.615 80.801,-8.113 4.294,9.14 8.472,18.334 12.532,27.58 -5.836,-2.24 -11.719,-3.24 -17.93,-3.612 -30.804,-0.498 -63.698,3.572 -94.369,7.107 -72.314,8.205 -144.158,20.131 -215.245,35.73 -6.474,-17.062 -14.58,-33.788 -21.83,-50.559 l -52.153,-119.758 -185.412604,-429.648 c 29.1196,-3.999 58.624604,-5.661 87.878604,-8.645 73.223,-7.158 146.493,-13.822 219.806,-19.993 z"
     id="path122"
     style="fill:#9b8129;fill-opacity:1" />
  <path
     fill="#F7F2E1"
     d="m 577.75664,11.936433 c 2.214,1.9742 37.294,73.3736 41.104,81.1686 19.288,39.016997 38.831,77.907997 58.627,116.669997 l 42.022,79.951 c 49.658,98.388 100.649,196.098 152.96,293.103 -0.647,0.208 -1.287,0.429 -1.932,0.644 -8.896,2.973 -17.088,10.182 -24.679,15.604 -33.585,23.989 -64.101,51.68 -93.929,80.125 -11.131,10.616 -22.682,20.845 -33.604,31.674 -6.063,6.01 -11.669,12.491 -17.611,18.623 -20.78,21.444 -41.862,42.858 -59.994,66.629 -3.585,-8.676 -7.47,-16.87 -11.877,-25.16 53.012,-60.464 111.68,-114.575 172.475,-167.063 8.405,-8.076 34.603,-27.664 38.686,-34.474 -1.137,-0.609 -2.886,-1.354 -3.58,-2.45 -2.429,-3.829 -4.147,-9.058 -6.067,-13.238 -3.557,-7.55 -7.319,-15.002 -11.281,-22.348 l -35.704,-63.97 c -5.091,-8.947 -10.778,-17.568 -15.604,-26.663 -3.607,-6.798 -6.851,-13.786 -10.459,-20.583 -7.726,-14.556 -15.788,-28.914 -23.13,-43.679 -3.367,-6.773 -6.123,-13.837 -9.373,-20.667 -5.013,-10.541 -10.457,-20.944 -15.675,-31.391 l -72.741,-145.776 c -9.493,-19.366 -18.799,-38.89 -28.762,-58.017 -4.69,-9.003 -9.959,-17.7 -14.64,-26.706997 -7.163,-14.0533 -13.707,-28.4147 -19.61,-43.0424 -0.645,-1.6136 -1.167,-2.6514 -2.806,-3.3446 -1.519,0.2557 -2.411,0.6748 -3.552,1.7476 l -191.285,182.568397 c -3.489,-6.609 -7.17,-13.289 -9.912,-20.246 7.026,-9.44 17.275,-17.293 26.023,-25.122 10.291,-9.284 20.482,-18.677 30.573,-28.177 z"
     id="path123"
     style="fill:#9b8129;fill-opacity:1" />
  <path
     fill="#F7F2E1"
     d="m 954.75364,649.53503 c -0.154,4.27 -2.093,12.719 -2.537,18.062 -92.455,26.186 -179.691,60.502 -259.618,114.514 -11.65,7.872 -24.187,14.883 -34.686,24.321 5.913,-2.345 10.842,-6.313 16.176,-9.706 l 33.891,-21.76 c 16.196,-10.309 33.232,-19.402 50.248,-28.28 48.214,-25.157 101.933,-45.092 153.464,-62.17 13.465,-4.463 27.245,-7.945 40.694,-12.464 -0.951,4.301 -2.079,8.528 -3.264,12.769 -36.534,9.03 -72.57,19.969 -107.959,32.772 -61.549,22.066 -121.659,48.647 -174.37,87.876 12.502,-4.548 28.482,-16.443 40.233,-23.699 11.14,-6.879 22.628,-12.81 34.388,-18.541 24.298,-11.843 48.838,-21.832 74.059,-31.491 43.28,-16.769 87.55,-30.86 132.56,-42.193 -0.273,4.463 -1.757,8.517 -3.328,12.658 -1.985,0.578 -4.025,1.002 -6.038,1.473 -18.69,3.295 -37.177,8.256 -55.486,13.217 -52.719,13.939 -104.068,32.621 -153.418,55.819 -12.465,6.003 -24.186,13.393 -35.994,20.561 -6.601,4.007 -13.289,8.425 -20.377,11.511 -5.656,2.461 -18.114,5.357 -23.871,2.767 -1.087,-0.489 -1.487,-1.406 -1.918,-2.47 -0.684,-1.686 -1.249,-2.652 -2.588,-3.909 -0.129,-0.121 -0.262,-0.237 -0.393,-0.355 12.486,-14.685 26.206,-28.017 39.719,-41.716 l 37.725,-38.601 c 10.876,-10.942 21.738,-21.798 32.915,-32.433 5.049,-4.805 10.038,-10.128 15.657,-14.253 -0.817,1.412 -1.824,2.689 -2.698,4.065 -1.766,2.781 -2.998,5.663 -2.043,9 0.478,1.671 2.927,3.451 3.929,4.986 4.654,7.132 2.226,9.462 10.891,13.622 2.048,-2.093 3.3,-4.368 4.543,-6.977 2.243,1.564 5.362,4.266 8.311,3.763 1.369,-0.234 1.603,-0.747 2.271,-1.815 0.394,-3.563 -1.592,-5.695 -3.536,-8.462 l 0.638,-2.17 c 0.785,-2.622 1.725,-5.35 0.28,-7.937 -1.565,-2.801 -5.091,-3.62 -7.915,-4.553 -0.289,-1.891 -0.507,-4.064 -1.662,-5.661 -1.705,-2.358 -4.764,-2.386 -7.393,-2.73 3.654,-3.983 7.616,-7.726 11.446,-11.542 20.348,13.979 52.819,20.682 77.401,19.226 l -58.282,28.043 c -8.935,4.292 -18.062,8.233 -26.892,12.737 -37.249,19.001 -73.51,40.499 -106.65,66.078 -8.579,6.621 -19.305,13.801 -25.157,23.008 15.198,-6.534 33.795,-22.021 48.328,-31.47 29.809,-19.46 60.554,-37.446 92.126,-53.892 26.599,-13.545 54.478,-25.162 82.345,-35.818 11.539,-4.413 23.384,-8.272 35.13,-12.1 10.933,-3.563 21.835,-6.855 32.026,-12.318 5.994,-3.213 11.373,-7.142 16.679,-11.362 z"
     id="path124"
     style="fill:#96a795;fill-opacity:0.869482" />
  <path
     fill="#F7F2E1"
     d="m 13.318736,349.51903 c 1.7107,-0.166 5.1075,-0.527 6.404,0.88 1.9641,2.131 7.9924,18.935 9.8419,23.02 l 177.633004,400.971 51.446,114.711 c 5.005,11.31 10.072,22.592 15.199,33.847 2.375,5.206 4.586,10.658 7.293,15.694 1.866,3.47 4.913,5.876 8.127,8.008 7.743,-1.743 15.586,-5.216 23.063,-7.9 14.119,-5.105 28.29,-10.064 42.512,-14.876 l 179.881,-60.878 45.94,-16.025 c 7.615,-2.583 15.507,-5.845 23.439,-7.21 4.861,-0.837 9.445,0.894 13.933,2.527 -2.81,1.501 -5.678,2.779 -8.601,4.041 -16.896,6.557 -34.705,11.695 -51.868,17.564 l -131.127,44.538 -95.085,32.805 -27.038,9.449 c -5.204,1.8 -10.585,3.954 -15.997,4.99 -5.504,1.053 -10.206,-0.892 -14.721,-3.841 -3.195,-5.635 -5.402,-12.405 -8.068,-18.368 -6.749,-14.736 -13.277,-29.572 -19.584,-44.503 -4.76,-11.132 -10.158,-21.976 -15.166,-32.998 -7.11,-15.649 -13.869,-31.48 -20.843,-47.194 -52.268,-115.403 -103.85,-231.115 -154.743104,-347.132 l -26.281,-60.19 c -5.5702,-12.481 -11.6328,-24.848 -16.7575,-37.517 -0.9022,-2.23 -3.5091002,-7.599 -3.1426002,-9.945 0.2996,-1.918 2.8817002,-3.465 4.3103002,-4.468 z"
     id="path125"
     style="fill:#9da6c1;fill-opacity:1" />
  <path
     fill="#F7F2E1"
     d="m 428.83964,645.28503 c 4.652,-1.73 9.721,-2.77 14.508,-4.154 9.279,-2.74 18.54,-5.539 27.783,-8.396 16.375,-5.057 32.641,-10.647 49.261,-14.849 1.977,-0.5 3.92,-1.409 5.905,-1.809 1.412,-0.285 1.916,-0.149 3.072,0.658 0.417,1.169 0.889,2.139 0.589,3.398 -5.012,2.519 -11.731,2.857 -17.198,4.548 -15.826,4.894 -31.7,9.825 -47.441,14.984 -8.16,2.674 -16.797,5.073 -24.582,8.691 l -0.665,0.314 c 13.134,-1.609 26.244,-5.662 39.016,-9.084 l 53.813,-14.609 c 1.47,2.628 2.772,5.38 4.134,8.067 -2.921,1.201 -5.194,2.236 -7.436,4.53 1.976,0.833 6.202,-2.513 8.954,-1.699 l 0.711,1.977 c -0.093,0.357 -0.015,0.814 -0.279,1.071 -1.578,1.538 -10.859,3.298 -13.567,4.215 -7.968,2.699 -15.733,6.302 -23.617,9.276 -6.939,2.618 -14.232,4.687 -21.057,7.524 -1.153,0.479 -1.852,0.662 -2.654,1.639 2.103,0.941 5.73,0.174 7.988,-0.279 4.685,-0.938 9.32,-2.631 13.938,-3.884 14.214,-3.859 28.405,-8.104 42.73,-11.505 5.029,8.855 9.866,18.293 13.883,27.649 -8.988,3.925 -18.109,7.749 -27.286,11.207 -7.381,2.781 -15.124,5.168 -22.176,8.705 15.153,-1.523 36.973,-9.912 52.394,-14.379 3.757,8.265 10.505,18.651 12.674,27.042 -3.741,5.049 2.009,14.938 -1.136,20.333 l -0.662,-0.254 c -1.387,-4.674 -1.693,-8.418 -1.673,-13.26 -2.557,6.506 -1.993,12.667 -1.525,19.45 -1.584,-2.809 -3.205,-5.599 -4.601,-8.508 0.508,3.013 1.048,6.022 1.419,9.056 -1.578,-3.512 -2.615,-6.955 -3.464,-10.704 -0.492,2.062 -0.928,4.14 -1.649,6.137 -1.04,-1.749 -1.317,-4.334 -1.967,-6.322 -0.867,-2.656 -0.867,-5.663 -1.183,-8.436 -1.441,6.81 -3.063,13.581 -4.863,20.304 -1.078,-6.263 -2.408,-13.026 -1.434,-19.377 0.185,-1.212 0.858,-3.845 -0.07,-4.691 -3.582,4.439 -6.157,20.88 -6.868,21.573 -1.503,-3.884 -1.691,-8.546 -2.774,-12.647 l -0.281,0.56 -0.029,-0.162 c -0.436,2.066 -0.881,3.988 -1.713,5.934 -1.058,-0.706 -1.98,-5.09 -2.476,-6.471 -1.383,2.994 0.782,7.145 -1.788,9.745 l -0.724,-0.107 -0.907,-2.652 -0.476,0.147 c -0.159,1.317 -0.069,4.55 -0.838,5.451 -0.604,-1.704 -0.96,-3.304 -1.255,-5.086 l 0.21,1.208 -0.719,0.275 c -0.272,1.533 -0.38,3.459 -1.237,4.748 -2.786,-7.378 2.8,-17.426 1.068,-22.108 -2.062,2.14 -2.794,6.185 -4.107,8.901 -1.889,3.91 -5.553,7.165 -8.986,9.705 -0.086,-3.725 0.017,-7.412 0.179,-11.134 -3.308,11.577 -5.894,18.156 -15.803,25.65 -0.345,-6.914 1.113,-13.704 0.853,-20.608 -1.311,4.458 -2.985,8.792 -4.281,13.238 -0.467,1.6 -1.554,4.944 -2.885,5.937 -0.137,0.102 -0.302,0.16 -0.453,0.241 -0.13,-0.604 -0.363,-1.335 -0.375,-1.947 l -0.56,0.012 c -1.051,2.268 -1.971,4.923 -3.672,6.776 l -0.178,-0.138 0.791,-0.53 -0.835,-0.068 c 0.638,-3.902 1.736,-7.543 2.879,-11.319 l -0.427,-0.058 c -4.269,5.611 -7.576,9.455 -10.015,16.238 -0.956,-3.594 -1.55,-7.027 -3.194,-10.409 l -0.315,-0.069 0.635,1.413 -0.926,0.14 c 0.145,2.475 0.62,4.826 1.113,7.247 -4.994,-8.803 -5.848,-17.138 -6.339,-27.115 -2.075,5.069 -4.09,10.854 -4.445,16.332 -2.018,-4.245 -7.389,-14.947 -7.474,-19.269 l -0.672,-2.457 c -2.631,-1.78 -11.241,-24.979 -12.828,-29.514 21.452,-7.488 43.257,-14.087 64.353,-22.599 l -0.008,-0.715 0.89,0.116 -0.151,-0.252 c -8.828,-0.915 -56.258,14.321 -67.445,18.404 l -4.789,-12.1 c 4.405,-1.107 17.54,-3.449 20.223,-6.646 l -0.555,-0.569 c -6.648,-0.463 -14.537,2.608 -20.996,4.342 -2.75,-7.486 -6.127,-14.715 -8.982,-22.16 z"
     id="path126"
     style="fill:#989ee0;fill-opacity:1" />
  <path
     fill="#27272f"
     d="m 459.12764,716.97803 c 12.319,-3.451 28.443,-9.316 40.807,-10.278 0.219,-0.017 0.438,-0.039 0.658,-0.058 l 0.395,-0.03 c -12.371,5.648 -27.866,9.727 -41.188,12.823 z"
     id="path127" />
  <path
     fill="#F7F2E1"
     d="m 38.478336,293.31903 c 2.4837,2.117 32.0554,72.762 36.6454,83.19 l 129.327904,297.957 54.883,124.725 c 11.866,26.616 23.323,53.412 34.367,80.38 -1.629,5.822 -3.22,11.654 -4.774,17.497 -2.575,-3.388 -12.134,-27.537 -14.584,-33.096 l -40.282,-90.5 -141.728004,-322.667 -42.8355,-98.652 c -5.1734,-11.975 -10.9401,-23.755 -15.782,-35.863 1.7519,-7.616 3.006,-15.349 4.7622,-22.971 z"
     id="path128"
     style="fill:#96a795;fill-opacity:0.869482" />
  <path
     fill="#F7F2E1"
     d="m 44.389936,260.39503 c 2.3522,4.416 4.0784,9.516 6.0214,14.137 l 12.5581,29.923 37.785204,87.492 137.692,317.187 29.477,67.667 c 11.09,26.154 21.785,52.486 34.588,77.874 -3.541,4.011 -4.986,11.183 -6.62,16.241 l -0.459,0.793 c -1.486,-1.662 -6.873,-16.959 -8.309,-20.315 l -30.545,-69.749 -216.722404,-497.962 c 0.92,-7.822 2.7648,-15.62 4.5337,-23.288 z"
     id="path129"
     style="fill:#96a795;fill-opacity:0.869482" />
  <path
     fill="#F7F2E1"
     d="m 32.636336,325.49903 c 0.1598,0.209 0.3368,0.406 0.4795,0.627 2.6166,4.053 5.1771,11.967 7.2707,16.693 7.6757,17.205 15.1419,34.502 22.3971,51.888 l 60.916004,140.195 117.506,265.722 32.104,71.962 c 3.984,9.052 8.682,18.025 12.102,27.294 2.518,6.822 0.14,13.329 -1.477,20.071 -2.923,-3.498 -10.939,-22.881 -13.241,-28.065 l -28.382,-63.886 c -72.511,-160.053 -143.570004,-320.759 -213.169504,-482.099 0.6687,-6.906 1.9758,-13.643 3.4942,-20.402 z"
     id="path130"
     style="fill:#96a795;fill-opacity:0.869482" />
  <path
     fill="#F7F2E1"
     d="m 359.37364,241.19303 10.774,-0.307 c 11.578,18.796 20.571,39.247 29.896,59.216 10.902,22.909 21.579,45.925 32.028,69.045 25.281,55.169 50.869,110.198 76.764,165.083 5.679,12.005 11.734,23.833 17.497,35.799 l 23.301,49.429 37.382,76.276 c 5.732,11.936 11.051,24.027 16.629,36.021 3.594,7.728 17.142,32.938 18.165,39.195 -0.967,1.048 -1.762,1.018 -3.128,1.343 -2.457,0.359 -4.914,0.892 -7.358,1.344 -3.483,-12.234 -13.212,-28.052 -19.136,-39.761 -10.009,-19.783 -19.59,-39.845 -29.347,-59.757 -7.692,-16.101 -15.3,-32.243 -22.824,-48.424 l -59.378,-124.387 c -3.441,-7.031 -31.676,-69.282 -33.483,-70.932 -0.536,-0.489 -1.626,-0.915 -2.284,-1.286 l -0.076,-0.743 1.918,-0.039 c -6.29,-11.828 -11.636,-24.21 -17.251,-36.371 l -22.192,-47.411 -29.935,-64.748 c -5.975,-12.837 -12.467,-25.547 -17.962,-38.585 z"
     id="path131"
     style="fill:#9b8129;fill-opacity:1" />
  <path
     fill="#F7F2E1"
     d="m 346.00664,676.79903 c 0.701,2.065 1.065,4.236 1.506,6.369 l 0.359,0.749 -0.5,0.335 c 1.363,1.659 18.249,67.524 19.51,74.147 0.541,2.847 0.412,5.444 0.131,8.306 -0.358,3.657 -0.374,6.818 -0.031,10.473 -2.087,-2.99 -2.606,-6.1 -3.203,-9.609 -0.538,3.218 -0.951,6.418 -2.241,9.438 l -0.506,-0.14 c -0.574,-2.786 -0.209,-5.43 -0.228,-8.232 -1.419,3.985 -1.351,9.207 -3.155,12.733 l -0.713,0.204 -0.325,-0.793 c -0.934,-0.48 -1.759,-1.076 -2.623,-1.671 l -0.598,0.349 -0.693,-0.52 c -2.064,-6.015 -2.286,-17.78 -2.963,-24.522 -0.983,7.369 -2.802,22.988 -6.453,28.923 l -0.859,0.161 c -0.132,-1.015 0.692,-2.235 1.115,-3.176 -0.558,-1.866 -1.244,-4.376 -2.914,-5.446 -1.202,1.484 -1.448,13.073 -1.692,15.576 -2.48,-10.001 -6.369,-16.983 -12.199,-25.403 2.877,8.069 4.773,16.202 6.274,24.624 -1.543,-3.35 -2.552,-6.831 -3.612,-10.356 -0.518,3.31 -0.419,6.744 -1.333,9.974 -0.605,-1.125 -0.94,-1.86 -1.949,-2.695 -0.679,1.704 -0.432,3.888 -0.455,5.723 l -0.677,0.201 0.204,0.163 c -0.737,-1.077 -1.384,-2.108 -2.416,-2.934 -0.927,1.586 -0.301,5.12 -0.669,7.15 -2.578,-2.552 -3.458,-9.878 -4.484,-13.546 l -0.393,-0.215 c -0.138,2.447 0.033,4.818 0.204,7.256 -6.272,-11.165 -12.326,-25.989 -17.369,-37.936 16.617,-4.308 34.282,-8.03 50.195,-14.413 2.206,-0.884 5.857,-2.072 6.842,-4.351 l -0.51,-0.522 c -2.492,-0.904 -4.944,-0.63 -7.509,-0.162 -4.167,0.761 -8.353,2.625 -12.434,3.844 -12.83,3.831 -25.481,7.62 -38.003,12.403 -2.94,-5.872 -5.781,-12.254 -8.08,-18.407 -0.474,-1.266 -0.86,-1.934 -0.264,-3.213 l -0.655,-0.776 c -0.409,-0.233 -0.614,-0.308 -0.936,-0.728 -2.073,-2.7 -8.828,-18.118 -8.471,-20.737 l 1.452,-0.631 -0.915,-1.891 -1.313,0.39 c -1.644,-0.625 -2.009,-1.783 -2.955,-3.231 23.277,-7.399 46.192,-15.872 69.506,-23.235 z"
     id="path132"
     style="fill:#989ee0;fill-opacity:1" />
  <path
     fill="#F7F2E1"
     d="m 346.00664,676.79903 c 0.701,2.065 1.065,4.236 1.506,6.369 l 0.359,0.749 -0.5,0.335 c -21.891,6.504 -43.549,15.037 -65.688,20.514 l -0.915,-1.891 -1.313,0.39 c -1.644,-0.625 -2.009,-1.783 -2.955,-3.231 23.277,-7.399 46.192,-15.872 69.506,-23.235 z"
     id="path133"
     style="fill:#989ee0;fill-opacity:1" />
  <path
     fill="#27272f"
     d="m 347.51264,683.16803 0.359,0.749 -0.5,0.335 c -21.891,6.504 -43.549,15.037 -65.688,20.514 l -0.915,-1.891 c 15.404,-6.11 31.176,-11.25 47.223,-15.387 6.37,-1.681 12.961,-3.591 19.521,-4.32 z"
     id="path134" />
  <path
     fill="#27272f"
     d="m 353.14564,706.66903 c -1.771,1.615 -3.438,2.802 -5.631,3.791 -9.594,4.329 -20.318,6.806 -30.407,9.826 -8.675,2.596 -17.838,6.035 -26.814,7.352 l -0.655,-0.776 c 21.318,-9.27 41.535,-13.45 63.507,-20.193 z"
     id="path135" />
  <path
     fill="#27272f"
     d="m 353.98764,779.10803 c 1.178,-3.532 2.231,-7.202 3.757,-10.596 -0.295,4.096 -0.673,8.186 -1.134,12.267 -0.934,-0.48 -1.759,-1.076 -2.623,-1.671 z"
     id="path136" />
  <path
     fill="#27272f"
     d="m 320.81164,706.66103 0.472,0.047 0.228,0.413 c -6.256,4.547 -25.779,10.031 -33.688,11.839 -0.754,-0.395 -0.392,-0.093 -0.928,-1.066 3.634,-3.973 27.826,-9.736 33.916,-11.233 z"
     id="path137" />
  <path
     fill="#F7F2E1"
     d="m 623.20364,44.882133 c 3.664,1.764 8.909,5.4873 10.916,9.0089 6.802,11.935 12.425,24.6494 18.725,36.862 l 41.569,79.979997 133.207,259.213 c 19.964,39.694 40.691,79 62.169,117.896 l 19.384,36.222 c 5.647,10.387 11.641,20.533 16.399,31.376 3.955,9.013 5.842,17.001 2.011,26.532 -3.242,8.067 -9.918,17.494 -18.079,20.956 -32.121,13.626 -75.235,7.906 -106.844,-4.734 -3.249,-1.363 -6.389,-2.983 -9.547,-4.543 3.593,-3.613 7.583,-6.971 11.577,-10.123 24.51,11.968 53.626,18.815 80.763,12.327 11.705,-2.799 22.398,-8.545 28.694,-19.097 4.664,-7.815 6.933,-17.494 4.613,-26.443 -2.323,-8.959 -8.973,-17.426 -16.932,-22.048 -3.718,-8.605 -8.452,-16.914 -12.801,-25.217 -9.582,-18.288 -19.588,-36.388 -28.642,-54.943 -23.163,-47.47 -47.597,-94.228 -71.775,-141.181 l -109.719,-214.701 c -14.075,-27.987 -29.583,-55.234997 -43.592,-83.276497 -3.981,-7.9696 -8.804,-15.8053 -12.096,-24.0664 z"
     id="path138"
     style="fill:#96a795;fill-opacity:0.869482" />
  <path
     fill="#F7F2E1"
     d="m 605.11964,28.423133 c 3.695,2.3106 8.806,5.0568 11.105,8.8255 1.844,3.0232 3.175,6.6492 4.669,9.8823 2.59,5.599 5.236,11.1722 7.936,16.7189 9.111,18.9832 18.646,37.760197 28.599,56.315197 4.964,9.288 10.365,18.34 15.246,27.671 l 43.64,84.728 c 5.797,11.44 11.235,23.057 17.076,34.479 6.287,12.292 13.09,24.322 19.33,36.629 7.754,15.291 14.923,30.878 22.68,46.17 l 47.142,90.992 c 11.373,22.264 22.609,44.597 33.706,67 12.685,26.092 25.111,52.618 39.681,77.741 -4.767,-1.047 -9.984,-0.569 -14.837,-0.408 -5.389,-21.09 -15.435,-40.818 -24.913,-60.277 l -29.543,-59.747 c -11.29,-22.948 -23.378,-45.369 -35.049,-68.105 l -50.171,-98.802 c -17.745,-34.864 -34.224,-70.34 -52.398,-104.983 -4.446,-8.476 -9.372,-16.675 -13.855,-25.116 -18.324,-34.361 -35.97,-69.078997 -52.926,-104.135097 -5.269,-11.0701 -13.058,-24.3627 -17.118,-35.5788 z"
     id="path139"
     style="fill:#96a795;fill-opacity:0.869482" />
  <path
     fill="#F7F2E1"
     d="m 659.71664,72.231533 c 1.435,-0.1257 2.653,-0.1705 4.091,0.0648 0.498,0.3601 0.719,0.4751 1.127,1.0315 1.623,2.2126 2.841,5.4545 4.072,7.9261 3.944,8.0381 7.836,16.1011 11.676,24.188097 9.714,20.146 19.913,40.156 29.969,60.141 l 168.143,329.092 c 17.926,34.32 35.373,68.888 52.336,103.693 5.593,11.437 13.772,24.392 17.197,36.504 -3.304,6.962 -8.991,11.581 -15.179,15.891 l -5.999,4.377 c 3.625,-6.545 7.147,-13.706 8.36,-21.155 1.528,-9.378 -1.308,-18.432 -5.152,-26.894 -5.714,-12.578 -12.721,-24.669 -19.151,-36.893 l -30.695,-59.342 -113.198,-221.001 c -25.768,-51.779 -51.919,-103.368 -78.449,-154.762 -6.092,-11.906 -11.733,-24.032 -17.672,-36.014997 -4.149,-8.373 -8.4,-17.346 -13.915,-24.9221 -0.611,-0.839 -0.451,-0.3526 -0.458,-1.4187 z"
     id="path140"
     style="fill:#96a795;fill-opacity:0.869482" />
  <path
     fill="#F7F2E1"
     d="m 310.34264,491.62303 c 3.522,5.483 5.249,13.892 7.239,20.178 5.961,19.106 11.613,38.308 16.953,57.597 l 26.509,91.099 15.484,52.497 c 2.93,9.949 6.169,19.868 8.58,29.956 1.686,7.05 2.851,13.852 2.294,21.103 -0.834,-3.151 -1.442,-6.388 -2.131,-9.576 -0.99,4.862 -1.039,9.821 -2.658,14.552 -0.701,-4.294 -1.244,-8.625 -0.434,-12.951 0.428,-2.289 1.234,-4.469 1.338,-6.807 l -0.651,0.349 c -3.749,6.535 -3.824,12.781 -5.214,19.965 l -0.916,-10.784 c -0.601,2.337 -1.022,4.612 -2.411,6.628 l -0.79,0.102 c -2.318,-4.491 -3.425,-16.978 -4.693,-22.716 -2.899,-13.112 -6.087,-26.16 -9.56,-39.132 l -38.395,-139.829 c -6.191,-22.041 -13.463,-43.996 -18.743,-66.262 3.045,-1.749 5.659,-3.539 8.199,-5.969 z"
     id="path141"
     style="fill:#4e7156;fill-opacity:1" />
  <path
     fill="#F7F2E1"
     d="m 485.34764,566.76103 c 1.019,-1.621 3.304,-3.3 3.997,-4.943 1.512,-3.582 -0.816,-7.327 3.877,-12.365 1.616,-0.509 1.82,-0.183 3.325,0.468 0.119,0.989 0.177,1.733 0.582,2.652 2.31,1.51 23.66,46.702 26.99,53.899 -9.656,3.82 -19.741,6.451 -29.596,9.7 -22.684,7.48 -45.538,14.772 -68.082,22.647 -2.383,-4.345 -5.258,-9.036 -6.481,-13.864 0.348,-1.159 0.347,-0.931 1.292,-1.511 3.439,-0.171 5.812,1.68 8.41,-1.177 2.549,-2.803 4.578,-5.791 8.683,-6.014 2.264,-0.123 5.499,0.354 7.337,-1.248 0.621,-0.541 1.073,-1.419 1.517,-2.101 2.358,-3.618 7.966,-4.246 11.819,-5.992 l 4.574,2.577 c 0.804,-1.831 1.97,-5.722 4.024,-6.409 2.016,-0.674 4.427,0.764 6.238,1.58 0.707,-2.28 1.36,-4.254 3.67,-5.354 1.213,-0.577 2.622,-0.782 3.945,-0.878 l 0.336,-1.369 c 0.509,0.124 0.202,0.099 0.921,-0.081 -0.163,-0.865 -0.324,-1.749 -0.331,-2.632 -0.016,-2.167 1.259,-3.503 2.635,-5.017 l -0.815,-1.226 c -1.738,-2.652 -3.257,-5.797 -2.482,-9.03 0.518,-2.164 1.515,-3.082 3.32,-4.205 0.084,-2.703 0.182,-5.406 0.295,-8.107 z"
     id="path142"
     style="fill:#989ee0;fill-opacity:1" />
  <path
     fill="#27272f"
     d="m 485.34764,566.76103 c 1.019,-1.621 3.304,-3.3 3.997,-4.943 1.512,-3.582 -0.816,-7.327 3.877,-12.365 1.616,-0.509 1.82,-0.183 3.325,0.468 0.119,0.989 0.177,1.733 0.582,2.652 l -0.447,0.918 c -0.97,1.942 -3.676,4.683 -3.794,6.834 -0.089,1.626 1.282,2.334 0.292,4.129 -1.42,2.576 -5.535,4.232 -4.697,7.345 0.408,1.514 1.206,3.081 1.822,4.526 -1.693,1.258 -3.44,2.477 -5.078,3.805 0.074,0.197 0.146,0.395 0.223,0.591 1.779,4.561 8.682,9.532 6.556,14.738 -0.991,2.427 -3.162,4.456 -5.068,6.183 -1.806,-1.099 -3.596,-2.232 -5.469,-3.214 l 0.336,-1.369 c 0.509,0.124 0.202,0.099 0.921,-0.081 -0.163,-0.865 -0.324,-1.749 -0.331,-2.632 -0.016,-2.167 1.259,-3.503 2.635,-5.017 l -0.815,-1.226 c -1.738,-2.652 -3.257,-5.797 -2.482,-9.03 0.518,-2.164 1.515,-3.082 3.32,-4.205 0.084,-2.703 0.182,-5.406 0.295,-8.107 z"
     id="path143" />
  <path
     fill="#F7F2E1"
     d="m 350.55464,478.77703 0.937,0.345 c 5.085,10.076 8.725,21.528 13.168,31.941 10.562,24.342 20.983,48.745 31.261,73.208 l 30.787,71.799 c 8.945,20.603 18.107,41.205 26.061,62.214 0.579,1.529 0.261,2.226 -0.369,3.645 -2.654,5.972 -0.395,13.447 -1.539,19.803 -1.56,-3.396 -1.909,-13.023 -2.914,-17.538 l -0.263,-0.874 -0.272,0.038 0.326,0.685 -0.414,-0.032 c 0.046,5.512 1.306,11.148 1.531,16.711 -5.222,-9.739 -8.43,-20.581 -12.395,-30.862 -6.7,-17.37 -13.608,-34.725 -20.7,-51.939 l -47.748,-115.088 c -8.555,-21.094 -17.373,-42.105 -24.587,-63.726 z"
     id="path144"
     style="fill:#4e7156;fill-opacity:1" />
  <path
     fill="#F7F2E1"
     d="m 951.67564,698.92203 c 0.442,0.428 0.71,0.798 0.969,1.359 2.369,5.128 11.496,22.808 9.513,27.97 -4.146,2.038 -8.803,3.369 -13.163,4.903 -10.048,3.579 -20.175,6.934 -30.372,10.063 -17.13,5.411 -34.144,11.296 -51.211,16.915 -63.797,21.666 -127.768,42.818 -191.906,63.453 -2.154,0.693 -5.697,2.264 -7.926,1.982 -1.411,-0.178 -1.554,-0.357 -2.316,-1.434 -0.238,-1.934 0.616,-3.489 1.346,-5.237 7.203,-3.837 15.644,-6.054 23.382,-8.568 11.58,-3.762 23.193,-7.491 34.713,-11.432 l 163.498,-54.342 36.554,-11.673 c 5.589,-1.843 11.884,-3.396 17.013,-6.301 10.418,-5.903 6.979,-17.421 9.906,-27.658 z"
     id="path145"
     style="fill:#9da6c1;fill-opacity:1" />
  <path
     fill="#F7F2E1"
     d="m 252.60864,637.39203 c 4.102,-0.432 5.444,1.836 8.897,2.886 1.244,0.378 2.862,-0.631 4.28,-0.141 3.878,1.339 7.936,4.381 11.765,6.194 1.891,2.997 2.027,4.368 5.601,5.348 2.296,0.629 3.013,1.851 4.306,3.714 4.924,0.711 8.875,-2.974 13.806,0.677 0.235,0.174 0.479,0.336 0.719,0.505 l 6.174,-1.859 5.67,1.653 0.532,0.567 c -2.432,0.259 -3.773,-1.186 -5.865,-1.316 -2.515,-0.157 -4.523,1.881 -7.432,1.473 0.456,0.875 0.99,1.059 1.795,1.601 4.739,0.952 3.329,-4.2 10.966,0.683 2.564,0.007 3.596,-2.449 5.923,-2.865 3.583,-0.641 6.943,1.513 10.433,1.703 2.121,0.115 3.994,-1.538 6.084,-1.135 l -0.715,0.292 0.994,1.466 c 1.047,0.153 2.047,0.19 3.104,0.2 2.839,1.994 3.322,7.15 4.055,10.323 -7.858,3.096 -16.161,5.034 -24.209,7.584 l -46.582,14.994 c -1.649,-4.271 -3.134,-9.011 -5.419,-12.976 -0.841,-0.404 -0.911,-0.473 -1.366,-1.235 -3.173,-5.303 -5.169,-11.903 -7.613,-17.601 -2.321,-5.412 -5.343,-10.928 -7.162,-16.489 -0.261,-0.797 -0.204,-1.419 -0.018,-2.219 0.446,-0.351 0.958,-0.562 1.465,-0.813 z"
     id="path146"
     style="fill:#989ee0;fill-opacity:1" />
  <path
     fill="#27272F"
     d="m 252.60864,637.39203 c 4.102,-0.432 5.444,1.836 8.897,2.886 1.244,0.378 2.862,-0.631 4.28,-0.141 3.878,1.339 7.936,4.381 11.765,6.194 1.891,2.997 2.027,4.368 5.601,5.348 2.296,0.629 3.013,1.851 4.306,3.714 4.924,0.711 8.875,-2.974 13.806,0.677 0.235,0.174 0.479,0.336 0.719,0.505 l 6.174,-1.859 5.67,1.653 0.532,0.567 c -2.432,0.259 -3.773,-1.186 -5.865,-1.316 -2.515,-0.157 -4.523,1.881 -7.432,1.473 0.456,0.875 0.99,1.059 1.795,1.601 4.739,0.952 3.329,-4.2 10.966,0.683 2.564,0.007 3.596,-2.449 5.923,-2.865 3.583,-0.641 6.943,1.513 10.433,1.703 2.121,0.115 3.994,-1.538 6.084,-1.135 l -0.715,0.292 c -1.544,0.701 -3.074,1.373 -4.664,1.961 -3.826,-0.687 -9.66,-3.17 -13.136,-0.854 -1.054,0.703 -1.855,1.722 -2.653,2.687 -2.057,-1.185 -4.656,-3.171 -7.127,-2.605 -0.76,0.174 -0.576,0.1 -1,0.558 -0.681,0.736 -1.208,1.381 -2.157,1.772 -1.439,-0.347 -2.39,-1.334 -3.487,-2.268 l -0.888,-0.098 c -0.804,0.679 -1.538,1.692 -2.631,1.615 -5.751,-0.402 -3.11,-5.388 -11.763,-0.495 -1.328,-1.59 -2.672,-3.164 -3.907,-4.828 -7.565,1.21 -15.542,2.897 -22.806,5.353 2.781,6.211 5.783,12.419 8.162,18.793 -0.841,-0.404 -0.911,-0.473 -1.366,-1.235 -3.173,-5.303 -5.169,-11.903 -7.613,-17.601 -2.321,-5.412 -5.343,-10.928 -7.162,-16.489 -0.261,-0.797 -0.204,-1.419 -0.018,-2.219 0.446,-0.351 0.958,-0.562 1.465,-0.813 z"
     id="path147"
     style="fill:#989ee0;fill-opacity:1" />
  <path
     fill="#F7F2E1"
     d="m 252.79664,640.60603 c 3.337,0.944 8.473,4.875 9.761,4.69 l 1.565,-1.657 c 1.147,0.016 1.477,0.097 2.294,1.07 1.202,1.432 1.256,3.041 3.168,3.841 2.16,-0.07 3.692,-0.447 5.622,0.668 l 0.455,0.983 c -0.621,1.506 -1.899,2.1 -3.34,2.693 -4.587,1.885 -9.24,3.003 -13.634,5.396 -2.443,-5.619 -4.784,-11.312 -7.356,-16.871 0.446,-0.351 0.958,-0.562 1.465,-0.813 z"
     id="path148"
     style="fill:#989ee0;fill-opacity:1" />
  <path
     fill="#F7F2E1"
     d="m 605.02564,822.07303 c 4.7,-0.013 9.43,-0.137 14.125,0.088 -11.341,3.869 -23.685,3.634 -35.494,5.181 -16.207,2.274 -32.379,4.801 -48.508,7.58 -36.807,6.595 -73.283,14.92 -109.306,24.948 -45.513,12.405 -92.306,26.111 -133.927,48.748 1.3,-4.112 2.479,-10.214 4.969,-13.677 11.844,-6.615 24.823,-11.432 37.492,-16.192 11.425,-4.293 22.923,-8.804 34.571,-12.443 38.458,-12.01 78.348,-20.031 117.879,-27.686 38.996,-7.551 78.475,-14.507 118.199,-16.547 z"
     id="path149"
     style="fill:#96a795;fill-opacity:0.869482" />
  <path
     fill="#F7F2E1"
     d="m 302.16664,873.19203 c 22.524,-7.976 44.924,-15.761 68.114,-21.64 41.556,-10.535 84.589,-16.692 126.888,-23.526 16.366,-2.645 116.152,-16.644 125.792,-9.684 -0.704,0.799 -0.991,0.954 -2.036,1.143 -2.766,0.501 -6.251,-0.166 -9.09,-0.231 -3.799,-0.088 -7.536,0.048 -11.325,0.315 -18.603,-0.586 -37.93,3.059 -56.302,5.708 -35.986,5.177 -71.756,11.757 -107.229,19.727 -18.161,3.928 -36.372,7.655 -54.295,12.602 -22.034,6.082 -44.091,14.31 -65.158,23.137 -6.869,2.877 -14.791,5.793 -20.997,9.926 1.761,-5.858 3.738,-11.662 5.638,-17.477 z"
     id="path150"
     style="fill:#96a795;fill-opacity:0.869482" />
  <path
     fill="#F7F2E1"
     d="m 608.88264,827.30803 1.114,-0.105 0.252,0.472 c -7.713,3.143 -26.621,6.048 -35.455,7.624 -17.268,3.082 -34.688,6.17 -51.775,10.126 -43.774,10.136 -87.935,21.105 -130.418,35.798 -33.483,11.579 -69.845,27.565 -101.586,43.427 l -0.978,0.289 -0.455,-0.613 c 0.083,-3.416 1.017,-6.896 1.705,-10.241 38.355,-21.938 85.415,-35.964 127.926,-47.845 30.239,-8.451 60.752,-16.73 91.475,-23.221 16.849,-3.4 33.773,-6.421 50.758,-9.06 15.671,-2.574 31.591,-5.572 47.437,-6.651 z"
     id="path151"
     style="fill:#96a795;fill-opacity:0.869482" />
  <path
     fill="#F7F2E1"
     d="m 633.55964,809.80803 -0.015,0.498 c -2.339,2.068 -4.844,3.835 -7.392,5.629 -4.751,-1.142 -9.45,-1.947 -14.339,-2.177 -10.136,-0.477 -20.531,0.686 -30.648,1.394 -24.042,1.684 -47.623,4.355 -71.479,7.729 -49.122,6.946 -98.639,14.457 -146.857,26.276 -19.615,4.808 -38.29,11.743 -57.414,18.06 l -1.227,0.002 c -0.08,-0.131 -0.177,-0.254 -0.241,-0.394 -0.74,-1.611 -0.472,-3.808 0.015,-5.455 0.937,-0.382 0.626,-0.296 1.475,-0.512 0.175,-0.044 0.351,-0.084 0.527,-0.126 0.728,-2.241 0.379,-4.886 0.321,-7.224 5.283,-1.505 10.885,-2.317 16.263,-3.49 14.309,-3.12 28.64,-5.972 42.996,-8.86 19.005,-3.96 38.074,-7.607 57.199,-10.938 17.125,-2.873 34.406,-5.128 51.592,-7.632 25.946,-3.781 52.009,-7.475 78.142,-9.695 17.067,-1.52 34.178,-2.498 51.306,-2.933 9.902,-0.174 19.966,1.381 29.776,-0.152 z"
     id="path152"
     style="fill:#96a795;fill-opacity:0.869482" />
  <path
     fill="#F7F2E1"
     d="m 904.19864,596.26103 c 3.463,2.893 6.456,7.082 8.383,11.148 3.295,6.953 2.889,14.671 0.219,21.74 -3.268,8.653 -10.389,15.453 -18.748,19.195 -22.57,10.102 -53.706,4.826 -75.997,-3.778 -3.126,-1.195 -6.17,-2.708 -9.215,-4.099 3.86,-3.555 7.701,-7.108 11.751,-10.447 13.062,6.617 29.505,10.446 44.179,9.722 11.202,-0.553 22.767,-4.548 30.39,-13.088 7.446,-8.342 9.603,-19.531 9.038,-30.393 z"
     id="path153"
     style="fill:#96a795;fill-opacity:0.869482" />
  <path
     fill="#F7F2E1"
     d="m 589.98364,13.853633 c 3.079,1.2429 6.884,3.731 8.541,6.6666 4.301,7.6215 7.24,16.5589 10.954,24.5713 8.486,18.2753 17.264,36.4137 26.331,54.4085 8.025,15.896997 15.703,32.051997 24.089,47.755997 9.316,17.448 19.335,34.526 28.368,52.124 4.564,8.893 8.58,18.038 13.012,26.994 l 39.73,79.842 c 28.999,58.134 59.554,115.481 88.462,173.668 11.796,23.744 24.034,46.924 34.502,71.322 -3.691,-3.488 -12.123,-23.65 -15.079,-29.571 l -20.551,-40.562 -174.273,-338.78 c -11.35,-22.449 -22.548,-44.973997 -33.594,-67.573397 -9.84,-20.405 -19.458,-41.07 -30.492,-60.866 z"
     id="path154"
     style="fill:#96a795;fill-opacity:0.869482" />
  <path
     fill="#F7F2E1"
     d="m 652.69764,524.96503 c 1.583,-0.667 2.951,-1.15 4.651,-1.415 2.248,1.322 2.297,5.799 4.324,7.831 2.237,2.243 4.995,4.058 7.331,6.239 4.626,4.318 8.81,9.135 13.276,13.621 3.502,3.517 7.43,6.778 10.777,10.412 1.001,1.087 1.008,2.074 0.942,3.466 1.449,1.738 2.252,2.596 2.414,4.845 0.235,3.264 0.732,6.279 0.125,9.546 l -0.587,0.655 c -1.757,-1.434 -2.471,-5.396 -3.059,-7.57 -0.516,2.022 -1.376,1.889 -2.47,3.432 0.13,1.343 0.56,3.252 0.077,4.487 -0.59,-0.282 -1.176,-0.57 -1.76,-0.864 -0.087,0.807 -0.112,1.533 -0.108,2.347 0.009,1.944 -0.531,5.423 -1.691,6.936 -0.438,-0.136 -0.922,-0.24 -1.325,-0.457 0.924,2.326 1.084,3.266 0.092,5.55 -0.525,1.209 -0.951,2.845 -2.133,3.431 -0.596,-1.019 -0.847,-1.653 -0.961,-2.831 0.251,-0.027 0.503,-0.046 0.754,-0.082 0.224,-0.032 0.446,-0.081 0.669,-0.121 -0.057,-1.664 -0.792,-3.076 -1.435,-4.583 l -0.953,-3.471 -0.608,0.188 -0.37,-1.975 -0.115,0.056 c -0.501,1.858 0.621,5.464 0.957,7.449 l -0.903,-1.199 -0.82,-0.102 c -0.248,0.648 -0.408,1.234 -0.54,1.921 -0.059,0.311 -0.102,0.625 -0.161,0.935 -0.27,1.412 0.001,2.136 0.483,3.454 l 0.185,0.493 c -1.295,2.363 -1.337,4.056 -1.29,6.651 -2.535,-5.159 -5.803,-9.916 -8.079,-15.223 -5.597,-13.05 -9.176,-26.961 -14.033,-40.286 -0.996,-2.732 -3.666,-4.643 -4.201,-7.458 -0.836,-4.408 0.693,-11.336 0.545,-16.308 z"
     id="path155"
     style="fill:#cbbc8c;fill-opacity:1" />
  <path
     fill="#F7F2E1"
     d="m 693.99864,565.11903 c 1.449,1.738 2.252,2.596 2.414,4.845 0.235,3.264 0.732,6.279 0.125,9.546 l -0.587,0.655 c -1.757,-1.434 -2.471,-5.396 -3.059,-7.57 0.847,-1.716 -0.314,-5.259 0.329,-7.562 z"
     id="path156"
     style="fill:#cbbc8c;fill-opacity:1" />
  <path
     fill="#27272f"
     d="m 690.42164,576.02703 c -0.269,-3.425 -0.628,-10.013 1.212,-12.965 l 0.781,0.146 0.806,1.825 c -0.643,2.303 0.518,5.846 -0.329,7.562 -0.516,2.022 -1.376,1.889 -2.47,3.432 z"
     id="path157" />
  <path
     fill="#F7F2E1"
     d="m 550.21664,842.77303 1.124,0.022 c -4.534,2.073 -9.929,3.109 -14.735,4.431 -8.59,2.308 -17.148,4.732 -25.672,7.272 -25.517,7.606 -50.8,16.164 -76.116,24.418 -30.557,9.963 -61.244,21.26 -90.864,33.754 -18.316,7.726 -36.249,16.352 -54.505,24.184 -0.164,-0.043 -0.334,-0.067 -0.493,-0.128 -0.96,-0.369 -1.264,-1.041 -1.704,-1.903 0.146,-1.033 0.263,-1.758 0.79,-2.687 2.416,-4.263 21.713,-11.442 27.011,-13.839 17.736,-8.024 35.424,-16.348 53.554,-23.452 36.108,-14.149 73.01,-24.899 110.441,-34.866 23.642,-6.296 47.133,-12.525 71.169,-17.206 z"
     id="path158"
     style="fill:#96a795;fill-opacity:0.869482" />
  <path
     fill="#F7F2E1"
     d="m 941.92264,707.18103 1.144,-0.15 0.602,0.54 c 0.28,2.413 -0.492,4.831 -1.02,7.178 -12.063,3.4 -24.556,5.85 -36.73,8.899 -12.701,3.181 -25.301,6.731 -37.991,9.943 -14.44,3.656 -28.956,6.914 -43.311,10.925 -17.295,4.832 -34.694,10.73 -51.539,16.952 -18.98,7.01 -38.017,15.078 -56.098,24.171 -5.481,2.757 -10.574,6.113 -15.932,9.079 -5.776,3.196 -11.872,5.903 -17.984,8.383 l -1.308,-0.141 -0.091,-0.538 c 2.424,-1.759 5.266,-2.721 7.904,-4.112 3.91,-2.061 7.683,-4.618 11.522,-6.846 30.506,-17.71 62.658,-30.931 95.777,-42.861 47.352,-17.094 95.817,-30.933 145.055,-41.422 z"
     id="path159"
     style="fill:#96a795;fill-opacity:0.869482" />
  <path
     fill="#F7F2E1"
     d="m 888.48964,590.40603 c 3.172,0.128 5.933,1.041 8.812,2.285 2.29,5.576 2.914,10.965 1.517,16.871 -2.054,8.679 -7.283,15.693 -14.88,20.324 -14.138,8.619 -31.291,5.464 -46.488,1.873 -4.516,-1.495 -8.882,-3.069 -13.25,-4.964 3.939,-3.412 8.007,-6.673 12.194,-9.775 0.79,0.348 1.588,0.675 2.395,0.981 8.277,3.168 18.49,2.13 26.45,-1.473 11.427,-5.172 18.893,-14.627 23.25,-26.122 z"
     id="path160"
     style="fill:#96a795;fill-opacity:0.869482" />
  <path
     fill="#F7F2E1"
     d="m 802.38364,511.32903 1.052,0.567 c 0.351,1.471 -0.015,2.278 -0.605,3.654 -1.298,3.027 -3.216,5.771 -4.698,8.705 -4.085,8.092 -8.065,16.638 -11.186,25.156 -5.829,15.908 -16.727,56.195 -14.459,71.99 -2.949,3.601 -6.389,6.521 -9.966,9.473 0.512,-6.013 2.022,-12.116 3.162,-18.041 2.904,-15.087 6.035,-30.473 11.024,-45.033 2.426,-7.078 6.333,-13.871 8.308,-21.014 -2.076,2.283 -3.576,5.932 -5.065,8.674 -8.689,17.481 -15.589,36.544 -19.351,55.72 -1.009,5.142 -2.308,23.086 -5.188,25.485 -1.104,-0.702 -1.279,-1.364 -1.6,-2.587 -1.969,-7.478 -0.399,-17.224 1.087,-24.695 1.747,-8.788 3.833,-17.492 6.968,-25.904 9.533,-25.576 26.151,-49.063 40.517,-72.15 z"
     id="path161"
     style="fill:#82ac00;fill-opacity:1" />
  <path
     fill="#F7F2E1"
     d="m 442.27864,759.46903 c 7.639,-4.489 15.544,-8.513 22.978,-13.309 0.593,-0.383 0.443,-0.255 1.306,-0.441 -5.809,7.464 -16.364,12.26 -23.474,18.681 -0.951,6.205 -1.799,12.445 -3.078,18.593 5.036,-2.935 10.056,-5.941 15.303,-8.486 5.657,-2.743 11.541,-4.962 17.179,-7.747 l 0.26,0.119 c -8.785,7.141 -20.944,12.82 -30.595,19.356 l 0.817,5.245 c -4.421,1.3 -5.875,0.518 -9.511,1.125 -3.523,0.588 -7.306,2.361 -10.792,3.391 3.485,-3.73 11.873,-8.683 13.756,-11.486 l -1.135,-0.892 c 0.009,-3.71 3.083,-12.598 4.026,-16.88 -7.896,5.321 -15.516,11.156 -22.369,17.776 -3.851,3.72 -7.333,8.159 -11.489,11.509 -1.371,1.106 -3.249,2.693 -5.105,2.61 -0.44,-1.258 -0.086,-1.929 0.496,-3.081 5.04,-9.967 16.151,-19.214 24.897,-25.806 2.316,-1.746 13.262,-8.151 14.076,-9.73 z"
     id="path162"
     style="fill:#238430;fill-opacity:1" />
  <path
     fill="#F7F2E1"
     d="m 588.19364,739.00003 c 0.912,0.627 1.018,1.23 1.496,2.205 -0.273,3.48 -3.603,4.724 -6.42,6.196 -14.614,7.636 -29.628,8.085 -45.482,10.578 -4.87,0.766 -9.762,1.724 -14.448,3.278 -12.668,4.201 -30.109,15.088 -39.016,24.943 -3.752,0.266 -7.444,0.682 -11.169,1.203 7.753,-6.302 15.562,-12.049 23.894,-17.562 9.124,-5.64 18.488,-9.518 27.965,-14.351 9.642,-4.917 19.565,-11.953 30.05,-14.708 -8.609,7.13 -18.657,11.367 -27.594,17.789 8.656,-1.793 17.597,-2.609 26.159,-4.698 11.724,-2.861 23.881,-9.259 34.565,-14.873 z"
     id="path163"
     style="fill:#238430;fill-opacity:1" />
  <path
     fill="#F7F2E1"
     d="m 547.52164,735.23603 0.355,0.012 0.179,0.416 c -26.823,10.195 -41.929,19.379 -63.633,37.755 -5.299,4.486 -11.014,9.014 -15.404,14.419 -2.604,0.516 -5.24,0.906 -7.859,1.344 8.895,-10.08 22.059,-16.915 30.596,-26.186 -1.985,0.551 -3.838,2.035 -5.558,3.153 -6.455,4.75 -13.188,9.141 -19.436,14.168 -3.605,2.901 -6.828,6.965 -10.743,9.348 -1.195,0.728 -2.113,1.087 -3.503,0.78 -0.51,-0.784 -0.678,-0.696 -0.505,-1.673 3.268,-3.529 7.44,-6.465 11.205,-9.476 21.625,-17.292 56.96,-39.233 84.306,-44.06 z"
     id="path164"
     style="fill:#238430;fill-opacity:1" />
  <path
     fill="#F7F2E1"
     d="m 724.49964,559.96703 c 0.523,5.852 -10.758,36.951 -12.84,44.733 -7.219,26.991 -12.793,55.078 -11.019,83.139 -1.61,1.775 -3.333,3.47 -4.996,5.197 -1.835,-5.667 -0.533,-13.504 -0.195,-19.405 2.344,-40.909 13.964,-75.804 29.05,-113.664 z"
     id="path165"
     style="fill:#82ac00;fill-opacity:1" />
  <path
     fill="#F7F2E1"
     d="m 728.72164,574.22903 c 0.547,6.097 -0.035,12.272 0.645,18.405 2.152,19.395 7.034,38.916 11.756,57.812 l -5.89,5.603 -3.666,3.43 c -2.409,-10.286 -2.631,-21.519 -3.382,-32.048 -0.794,-11.122 -1.976,-22.483 -1.676,-33.635 0.125,-6.577 0.866,-13.128 2.213,-19.567 z"
     id="path166"
     style="fill:#82ac00;fill-opacity:1" />
  <path
     fill="#F7F2E1"
     d="m 672.97564,617.41603 c 1.942,8.403 0.228,17.792 1.023,26.404 1.761,19.065 6.114,41.398 10.835,59.948 l -4.855,4.424 -1.206,1.065 -0.746,-0.738 c -1.397,-6.134 -2.027,-12.56 -2.956,-18.785 -2.435,-16.32 -5.318,-33.769 -4.963,-50.286 0.158,-7.355 1.407,-14.828 2.868,-22.032 z"
     id="path167"
     style="fill:#82ac00;fill-opacity:1" />
  <path
     fill="#F7F2E1"
     d="m 881.22264,590.69103 c 0.534,0.687 0.344,1.259 0.266,2.084 -0.522,5.548 -6.597,11.506 -10.812,14.809 -9.293,7.285 -17.261,8.691 -28.696,7.222 l -1.028,-0.481 0.129,-0.605 c 11.912,-10.106 24.75,-19.237 40.141,-23.029 z"
     id="path168"
     style="fill:#96a795;fill-opacity:0.869482" />
  <path
     fill="#F7F2E1"
     d="m 808.92364,521.41903 c 0.167,0.143 0.346,0.273 0.501,0.429 1.001,1.015 1.095,1.97 1.178,3.321 0.428,7.05 -0.602,14.401 -0.758,21.473 -0.314,14.22 -0.238,28.591 0.107,42.808 -2.211,2.239 -4.57,4.362 -6.852,6.531 l -0.578,0.348 -0.444,-0.731 c 0.351,-11.57 0.942,-23.132 1.773,-34.678 0.816,-12.834 0.934,-27.253 5.073,-39.501 z"
     id="path169"
     style="fill:#82ac00;fill-opacity:1" />
  <path
     fill="#F7F2E1"
     d="m 852.38764,741.28503 c 0.362,-0.029 0.176,-0.066 0.538,0.183 -11.233,4.443 -22.824,7.735 -34.285,11.527 -16.098,5.326 -32.199,10.924 -48.191,16.573 -12.588,4.515 -25.095,9.251 -37.517,14.205 -7.67,3.008 -15.285,6.247 -23.143,8.734 l -0.698,-0.169 c 2.049,-2.447 12.242,-5.987 15.823,-7.553 40.691,-17.792 83.997,-34.053 127.473,-43.5 z"
     id="path170"
     style="fill:#96a795;fill-opacity:0.869482" />
  <path
     fill="#F7F2E1"
     d="m 585.62264,759.76003 c 3.56,-0.397 7.145,-0.19 10.718,-0.091 -16.213,3.887 -32.076,8.612 -47.946,13.706 -8.221,2.639 -16.622,6.661 -25.123,8.067 -3.524,0.709 -7.185,0.986 -10.757,1.396 11.099,-6.394 21.511,-11.767 34.325,-13.814 l 0.072,-1.461 c 11.549,-5.633 26.123,-6.57 38.711,-7.803 z"
     id="path171"
     style="fill:#238430;fill-opacity:1" />
  <path
     fill="#F7F2E1"
     d="m 667.02564,631.48503 c 0.956,0.92 -1.956,12.422 -2.257,14.387 -3.834,25.053 -1.604,49.108 3.646,73.737 l -4.382,5.065 -0.295,0.095 -0.596,-0.674 c -6.176,-31.279 -6.585,-62.18 3.884,-92.61 z"
     id="path172"
     style="fill:#82ac00;fill-opacity:1" />
  <path
     fill="#F7F2E1"
     d="m 754.68264,549.46203 c 0.008,3.506 -4.949,13.912 -6.281,17.982 -7.688,23.504 -7.853,51.709 1.388,74.723 l -4.825,4.481 -0.212,0.095 c -0.99,-0.699 -0.967,-1.572 -1.273,-2.685 -8.632,-31.401 -5.02,-66.171 11.203,-94.596 z"
     id="path173"
     style="fill:#82ac00;fill-opacity:1" />
  <path
     fill="#F7F2E1"
     d="m 626.02064,681.45703 c 1.204,1.234 -0.801,11.737 -1.081,13.894 -2.462,18.967 -3.228,37.332 0.817,56.177 0.592,2.757 1.883,5.251 2.533,8.007 -0.331,1.398 -1.589,2.242 -2.612,3.169 -0.557,-1.031 -1.102,-2.07 -1.635,-3.115 -10.97,-21.428 -5.097,-56.094 1.978,-78.132 z"
     id="path174"
     style="fill:#82ac00;fill-opacity:1" />
  <path
     fill="#F7F2E1"
     d="m 431.07564,753.56003 1.009,0.135 c -0.061,0.156 -16.628,9.008 -18.361,10.133 -17.306,11.234 -29.333,23.951 -42.047,40.061 -0.934,-0.371 -1.144,-0.506 -1.824,-1.168 -0.091,-0.71 -0.028,-1.056 0.307,-1.697 12.965,-24.747 34.991,-39.021 60.916,-47.464 z"
     id="path175"
     style="fill:#238430;fill-opacity:1" />
  <path
     fill="#F7F2E1"
     d="m 661.32064,828.93103 c 2.053,0.62 4.361,0.677 6.493,0.89 -2.289,2.874 -4.607,5.393 -7.49,7.687 -10.898,8.674 -25.331,12.442 -39.06,10.908 -1.771,-0.218 -3.589,-0.248 -5.371,-0.35 l 6.468,-4.846 c 4.16,1.064 8.972,0.554 13.142,-0.236 9.483,-1.797 20.209,-5.785 25.818,-14.053 z"
     id="path176"
     style="fill:#9da6c1;fill-opacity:1" />
  <path
     fill="#F7F2E1"
     d="m 602.98164,485.34503 c 0.951,-0.949 2.024,-1.606 2.144,-3.034 0.344,-4.109 -1.746,-9.73 -2.547,-13.859 -3.703,-19.067 -16.106,-63.779 -12.791,-81.694 0.726,-3.923 2.963,-7.498 5.623,-10.412 4.585,-5.022 11.98,-9.663 18.402,-11.837 -0.15,0.151 -0.298,0.304 -0.451,0.453 -9.008,8.723 -21.481,11.035 -21.997,26.102 -0.756,22.076 7.564,49.454 12.115,71.247 1.846,8.838 2.641,17.812 4.435,26.617 -1.428,-1.486 -1.206,-3.23 -1.814,-5.089 -0.704,0.34 -1.046,0.624 -1.62,1.194 -0.197,0.196 -0.386,0.4 -0.579,0.6 z"
     id="path177"
     style="fill:#cbbc8c;fill-opacity:1" />
  <path
     fill="#F7F2E1"
     d="m 690.62464,618.94803 c 0.15,3.565 -4.113,13.077 -4.951,17.812 -3.962,22.372 1.107,38.242 6.495,59.597 l -3.54,3.585 c -0.439,0.038 -0.142,0.052 -0.815,-0.366 -7.943,-28.821 -10.462,-52.694 2.811,-80.628 z"
     id="path178"
     style="fill:#82ac00;fill-opacity:1" />
  <path
     fill="#F7F2E1"
     d="m 642.11464,657.47003 c -0.334,6.258 -2.055,12.588 -2.546,18.891 -1.681,21.597 4.994,39.383 15.289,57.827 l -2.947,3.049 -0.607,0.524 -0.767,-0.29 c -3.746,-6.393 -7.76,-15.929 -9.724,-23.027 -3.9,-14.096 -6.277,-43.717 1.302,-56.974 z"
     id="path179"
     style="fill:#82ac00;fill-opacity:1" />
  <path
     fill="#F7F2E1"
     d="m 814.63564,539.30003 c 2.054,2.871 1.885,13.076 2.873,17.226 1.72,7.217 4.38,14.024 7.076,20.914 l -4.96,4.114 -5.154,4.312 c -0.136,-15.492 -0.541,-31.086 0.165,-46.566 z"
     id="path180"
     style="fill:#82ac00;fill-opacity:1" />
  <path
     fill="#F7F2E1"
     d="m 729.50464,501.07803 c 4.268,6.736 12.048,22.085 9.791,30.275 -0.315,1.146 -0.162,0.797 -0.876,1.624 -2.196,-6.756 -2.737,-15.258 -6.555,-21.304 1.695,10.197 3.195,20.129 2.499,30.502 l -0.254,0.247 c -1.447,-7.609 -3.159,-15.292 -4.215,-22.959 -0.796,-5.778 -1.104,-11.627 -1.749,-17.425 z"
     id="path181"
     style="fill:#cbbc8c;fill-opacity:1" />
  <path
     fill="#F7F2E1"
     d="m 381.72764,777.62403 0.161,0.097 -0.197,0.671 c -9.498,7.673 -23.43,24.046 -33.884,28.991 -1.8,0.851 -3.883,1.323 -5.801,1.844 l -0.39,-0.624 c 2.291,-3.144 6.136,-5.736 9.122,-8.225 9.928,-8.273 19.743,-16.306 30.989,-22.754 z"
     id="path182"
     style="fill:#238430;fill-opacity:1" />
  <path
     fill="#f7f2e1"
     d="m 778.00564,676.35903 c 0.497,0.458 0.406,0.277 0.615,1.204 0.234,1.038 0.28,2.01 0.597,3.068 2.086,1.841 4.941,2.208 7.576,2.875 -0.119,3.274 0.178,6.2 -1.801,8.974 -0.898,0.425 -1.695,0.869 -2.5,1.447 l -0.815,0.591 -0.617,0.6 c -1.216,0.047 -1.712,0.214 -2.704,-0.606 -1.49,-1.232 -4.869,-5.84 -4.331,-7.691 0.378,-1.299 1.599,-2.307 1.715,-3.729 0.102,-1.25 -0.163,-2.773 -0.27,-4.034 0.507,-1.453 1.316,-1.896 2.535,-2.699 z"
     id="path183" />
  <path
     fill="#F7F2E1"
     d="m 709.55064,622.36803 c 1.795,4.263 0.86,17.777 1.484,23.428 0.624,5.767 1.488,11.506 2.588,17.202 0.595,3.153 1.559,6.528 1.856,9.704 0.163,1.743 -0.707,2.281 -1.736,3.564 l -0.949,0.61 -0.667,-0.463 c -4.718,-16.289 -4.13,-37.264 -2.576,-54.045 z"
     id="path184"
     style="fill:#82ac00;fill-opacity:1" />
  <path
     fill="#F7F2E1"
     d="m 771.35664,454.94803 c 3.321,2.959 10.494,17.818 13.296,22.788 l -3.022,11.694 c -0.243,0.865 -0.173,1.079 -0.869,1.697 -1.823,-3.859 -1.979,-9.039 -3.039,-13.245 -1.936,-7.689 -4.172,-15.316 -6.366,-22.934 z"
     id="path185"
     style="fill:#cbbc8c;fill-opacity:1" />
  <path
     fill="#F7F2E1"
     d="m 710.30164,529.07503 c 6.322,8.562 10.819,20.858 11.322,31.505 -3.608,-6.699 -5.92,-13.695 -8.278,-20.894 0.17,3.282 0.696,7.02 0.129,10.25 l -0.401,0.165 -1.014,-2.012 c -0.942,-5.859 -1.855,-11.923 -2.245,-17.843 z"
     id="path186"
     style="fill:#cbbc8c;fill-opacity:1" />
  <path
     fill="#F7F2E1"
     d="m 354.42164,792.02603 0.495,0.431 c -6.774,4.698 -21.641,18.943 -27.877,20.632 -0.506,-0.49 -0.76,-0.81 -1.07,-1.463 -0.378,-0.794 -0.156,-0.821 0.141,-1.585 7.432,-6.678 19.258,-14.082 28.311,-18.015 z"
     id="path187"
     style="fill:#238430;fill-opacity:1" />
  <path
     fill="#F7F2E1"
     d="m 354.08864,524.59303 c 0.605,-0.04 0.885,0.176 1.418,0.436 1.383,2.342 1.899,5.08 2.587,7.692 l -6.68,3.046 c -0.045,-0.017 -0.094,-0.025 -0.135,-0.051 -2.431,-1.502 -3.337,-6.549 -4.119,-9.168 z"
     id="path188"
     style="fill:#cf8a4a;fill-opacity:1;stroke:#281500;stroke-opacity:1" />
  <path
     fill="#F7F2E1"
     d="m 412.70564,778.63703 c 0.052,0.156 -14.791,15.802 -16.063,20.393 -2.356,0.881 -4.784,1.481 -7.213,2.122 l -0.388,-0.437 c 1.875,-5.443 18.327,-17.987 23.664,-22.078 z"
     id="path189"
     style="fill:#238430;fill-opacity:1" />
  <path
     fill="#F7F2E1"
     d="m 369.08464,571.51803 c 0.461,-0.004 0.963,0.219 1.404,0.352 1.525,1.873 2.109,4.165 2.879,6.42 -2.332,1.489 -5.134,2.573 -7.648,3.751 -1.921,-1.713 -3.117,-5.526 -4.163,-7.874 z"
     id="path190"
     style="fill:#cf8a4a;fill-opacity:1;stroke:#281500;stroke-opacity:1" />
  <path
     fill="#2b2e3c"
     d="m 455.67364,735.09503 c -1.034,-2.146 -2.195,-4.414 -2.624,-6.77 -0.385,-2.116 -0.801,-4.648 0.454,-6.534 1.187,0.712 1.188,1.371 1.687,2.605 2.676,1.728 4.206,4.268 4.968,7.366 0.364,1.48 0.378,2.918 0.292,4.429 l -0.578,0.305 c -1.233,-0.532 -2.842,-1.344 -4.199,-1.401 z"
     id="path191" />
  <path
     fill="#F7F2E1"
     d="m 455.67364,735.09503 c -1.034,-2.146 -2.195,-4.414 -2.624,-6.77 -0.385,-2.116 -0.801,-4.648 0.454,-6.534 1.187,0.712 1.188,1.371 1.687,2.605 0.184,3.401 0.871,7.35 0.483,10.699 z"
     id="path192"
     style="fill:#238430;fill-opacity:1" />
  <path
     fill="#f7f2e1"
     d="m 572.23464,706.13303 c 2.323,3.59 3.871,7.743 5.347,11.741 -0.367,1.975 -0.788,3.953 -1.048,5.945 -0.886,-0.336 -0.499,-0.034 -0.991,-1.126 -2.422,-5.377 -3.287,-10.672 -3.308,-16.56 z"
     id="path193" />
  <path
     fill="#F7F2E1"
     d="m 666.63864,603.29903 c 1.84,3.993 3.013,17.585 1.811,21.933 -2.696,-7.504 -3.339,-14.085 -1.811,-21.933 z"
     id="path194"
     style="fill:#cbbc8c;fill-opacity:1" />
  <path
     fill="#f7f2e1"
     d="m 439.82464,760.01603 c -0.208,-4.819 0.983,-8.379 3.199,-12.556 -0.228,4.009 -0.606,7.991 -0.745,12.009 z"
     id="path195" />
</svg>
