<?xml version="1.0" encoding="UTF-8" standalone="no"?>
<!-- Created with Inkscape (http://www.inkscape.org/) -->

<svg
   version="1.1"
   viewBox="0 0 2140.2212 2089.8079"
   sodipodi:docname="well.svg"
   inkscape:version="1.4 (e7c3feb100, 2024-10-09)"
   id="svg1"
   xmlns:inkscape="http://www.inkscape.org/namespaces/inkscape"
   xmlns:sodipodi="http://sodipodi.sourceforge.net/DTD/sodipodi-0.dtd"
   xmlns="http://www.w3.org/2000/svg"
   xmlns:svg="http://www.w3.org/2000/svg">
  <defs
     id="defs1" />
  <sodipodi:namedview
     id="namedview1"
     pagecolor="#ffffff"
     bordercolor="#000000"
     borderopacity="0.25"
     inkscape:showpageshadow="2"
     inkscape:pageopacity="0.0"
     inkscape:pagecheckerboard="0"
     inkscape:deskcolor="#d1d1d1"
     inkscape:zoom="0.62411498"
     inkscape:cx="823.5662"
     inkscape:cy="775.49813"
     inkscape:window-width="3440"
     inkscape:window-height="1361"
     inkscape:window-x="0"
     inkscape:window-y="282"
     inkscape:window-maximized="1"
     inkscape:current-layer="g1">
    <inkscape:page
       x="0"
       y="0"
       inkscape:label="1"
       id="page1"
       width="2140.2212"
       height="2089.8079"
       margin="0"
       bleed="0" />
  </sodipodi:namedview>
  <g
     id="g1"
     inkscape:groupmode="layer"
     inkscape:label="1"
     transform="translate(-530.49532,-555.6967)">
    <g
       id="g24"
       style="fill:none;fill-opacity:1;stroke:#fcfcfc;stroke-width:91.3;stroke-dasharray:none;stroke-opacity:1">
      <path
         id="path1"
         d="m 19138.8,4511.09 h -2439.6 v 1584.42 h 2619.7 V 4691.13 c 0,-99.02 -81,-180.04 -180.1,-180.04 z m -2799.7,0 h -4159.02 v 1584.42 h 4159.02 z m -4519.1,0 H 7669.96 V 6095.51 H 11820 Z m -4510.16,0 H 4870.23 c -99.02,0 -180.03,81.02 -180.03,180.04 V 6095.51 H 7309.84 Z M 4690.2,8048.98 H 6490.63 V 6455.59 H 4690.2 Z m 0,1962.52 H 7309.84 V 8409.08 H 4690.2 Z m 0,360.1 v 1395.3 c 0,99 81.01,180 180.03,180 h 1620.4 v -1575.3 z m 2160.54,1575.3 h 3195.78 V 10371.51 H 6850.74 Z m 3555.86,0 h 3195.82 V 10371.51 H 10406.6 Z m 3555.9,0 h 3195.82 V 10371.51 H 13962.5 Z m 3555.9,0 h 1620.4 c 99.1,0 180.1,-81 180.1,-180 v -1395.3 h -1800.5 z m 1800.5,-3537.84 h -2619.65 v 1602.42 h 2619.65 z m 0,-1953.47 H 17518.43 V 8048.98 H 19318.9 Z M 17158.3,8048.98 H 13962.48 V 6455.59 h 3195.82 z m -3555.9,0 H 10406.58 V 6455.59 h 3195.82 z m -3555.9,0 H 6850.72 V 6455.59 h 3195.78 z m 6292.6,1962.52 H 12180.08 V 8409.08 h 4159.02 z m -4519.1,0 H 7669.96 V 8409.08 H 11820 Z"
         style="fill:none;fill-opacity:1;fill-rule:evenodd;stroke:#fcfcfc;stroke-width:684.75;stroke-dasharray:none;stroke-opacity:1"
         transform="matrix(0.13333333,0,0,-0.13333333,0,3201.3333)" />
      <path
         id="path18"
         d="M 7363.87,11586.9 H 6004.49 c -99.02,0 -180.04,81 -180.04,180 v 6634.7 c 0,99 81.02,180 180.04,180 h 1359.38 c 99.02,0 180.04,-81 180.04,-180 v -6634.7 c 0,-99 -81.02,-180 -180.04,-180 z"
         style="fill:none;fill-opacity:1;fill-rule:evenodd;stroke:#fcfcfc;stroke-width:684.75;stroke-dasharray:none;stroke-opacity:1"
         transform="matrix(0.13333333,0,0,-0.13333333,0,3201.3333)" />
      <path
         id="path19"
         d="m 17995.5,11586.9 h -1359.3 c -99,0 -180.1,81 -180.1,180 v 6634.7 c 0,99 81.1,180 180.1,180 h 1359.3 c 99,0 180.1,-81 180.1,-180 v -6634.7 c 0,-99 -81.1,-180 -180.1,-180 z"
         style="fill:none;fill-opacity:1;fill-rule:evenodd;stroke:#fcfcfc;stroke-width:684.75;stroke-dasharray:none;stroke-opacity:1"
         transform="matrix(0.13333333,0,0,-0.13333333,0,3201.3333)" />
      <path
         id="path20"
         d="M 19507.9,16475.1 H 4501.13 c -99.02,0 -180.04,81 -180.04,180.1 0,99 81.02,180 180.04,180 H 6760.7 l 90.04,405.1 H 4501.13 c -99.02,0 -180.04,81 -180.04,180.1 0,99 81.02,180 180.04,180 H 19507.9 c 99,0 180.1,-81 180.1,-180 0,-99.1 -81.1,-180.1 -180.1,-180.1 h -2259.6 l 207.1,-405.1 h 2052.5 c 99,0 180.1,-81 180.1,-180 0,-99.1 -81.1,-180.1 -180.1,-180.1 z"
         style="fill:none;fill-opacity:1;fill-rule:evenodd;stroke:#fcfcfc;stroke-width:684.75;stroke-dasharray:none;stroke-opacity:1"
         transform="matrix(0.13333333,0,0,-0.13333333,0,3201.3333)" />
      <path
         id="path21"
         d="m 12000,15439.8 c -99,0 -180,81.1 -180,180.1 v 1035.3 c 0,99 81,180 180,180 99,0 180.1,-81 180.1,-180 v -1035.3 c 0,-99 -81.1,-180.1 -180.1,-180.1 z"
         style="fill:none;fill-opacity:1;fill-rule:evenodd;stroke:#fcfcfc;stroke-width:684.75;stroke-dasharray:none;stroke-opacity:1"
         transform="matrix(0.13333333,0,0,-0.13333333,0,3201.3333)" />
      <path
         id="path22"
         d="m 13035.3,13081.3 h -2061.5 c -90,0 -162.1,63 -180.1,153 l -405.1,2349.6 c -18,54 0,108 36,153 36,36 81,63 135,63 h 2880.8 c 54,0 108,-27 144,-63 36,-45 45,-99 36,-153 l -405.1,-2349.6 c -18,-90 -90,-153 -180,-153 z"
         style="fill:none;fill-opacity:1;fill-rule:evenodd;stroke:#fcfcfc;stroke-width:684.75;stroke-dasharray:none;stroke-opacity:1"
         transform="matrix(0.13333333,0,0,-0.13333333,0,3201.3333)" />
      <path
         id="path23"
         d="m 13809.4,15439.8 h -3609.8 c -99,0 -180.1,81.1 -180.1,180.1 0,99 81.1,180 180.1,180 h 3609.8 c 99.1,0 180.1,-81 180.1,-180 0,-99 -81,-180.1 -180.1,-180.1 z"
         style="fill:none;fill-opacity:1;fill-rule:evenodd;stroke:#fcfcfc;stroke-width:684.75;stroke-dasharray:none;stroke-opacity:1"
         transform="matrix(0.13333333,0,0,-0.13333333,0,3201.3333)" />
      <path
         id="path24"
         d="M 19507.9,18221.6 H 4501.13 c -99.02,0 -180.04,72 -180.04,180 v 918.2 c 0,99 81.02,180.1 180.04,180.1 H 19507.9 c 99,0 180.1,-81.1 180.1,-180.1 v -918.2 c 0,-108 -81.1,-180 -180.1,-180 z"
         style="fill:none;fill-opacity:1;fill-rule:evenodd;stroke:#fcfcfc;stroke-width:684.75;stroke-dasharray:none;stroke-opacity:1"
         transform="matrix(0.13333333,0,0,-0.13333333,0,3201.3333)" />
    </g>
    <g
       id="g17"
       style="fill:#f17715;fill-opacity:1;stroke:#000000;stroke-width:49.3;stroke-dasharray:none;stroke-opacity:1">
      <path
         id="path10"
         d="m 19138.8,4511.09 h -2439.6 v 1584.42 h 2619.7 V 4691.13 c 0,-99.02 -81,-180.04 -180.1,-180.04 z m -2799.7,0 h -4159.02 v 1584.42 h 4159.02 z m -4519.1,0 H 7669.96 V 6095.51 H 11820 Z m -4510.16,0 H 4870.23 c -99.02,0 -180.03,81.02 -180.03,180.04 V 6095.51 H 7309.84 Z M 4690.2,8048.98 H 6490.63 V 6455.59 H 4690.2 Z m 0,1962.52 H 7309.84 V 8409.08 H 4690.2 Z m 0,360.1 v 1395.3 c 0,99 81.01,180 180.03,180 h 1620.4 v -1575.3 z m 2160.54,1575.3 h 3195.78 V 10371.51 H 6850.74 Z m 3555.86,0 h 3195.82 V 10371.51 H 10406.6 Z m 3555.9,0 h 3195.82 V 10371.51 H 13962.5 Z m 3555.9,0 h 1620.4 c 99.1,0 180.1,-81 180.1,-180 v -1395.3 h -1800.5 z m 1800.5,-3537.84 h -2619.65 v 1602.42 h 2619.65 z m 0,-1953.47 H 17518.43 V 8048.98 H 19318.9 Z M 17158.3,8048.98 H 13962.48 V 6455.59 h 3195.82 z m -3555.9,0 H 10406.58 V 6455.59 h 3195.82 z m -3555.9,0 H 6850.72 V 6455.59 h 3195.78 z m 6292.6,1962.52 H 12180.08 V 8409.08 h 4159.02 z m -4519.1,0 H 7669.96 V 8409.08 H 11820 Z"
         style="fill:#f17715;fill-opacity:1;fill-rule:evenodd;stroke:#000000;stroke-width:369.75;stroke-dasharray:none;stroke-opacity:1"
         transform="matrix(0.13333333,0,0,-0.13333333,0,3201.3333)" />
      <path
         id="path11"
         d="M 7363.87,11586.9 H 6004.49 c -99.02,0 -180.04,81 -180.04,180 v 6634.7 c 0,99 81.02,180 180.04,180 h 1359.38 c 99.02,0 180.04,-81 180.04,-180 v -6634.7 c 0,-99 -81.02,-180 -180.04,-180 z"
         style="fill:#f17715;fill-opacity:1;fill-rule:evenodd;stroke:#000000;stroke-width:369.75;stroke-dasharray:none;stroke-opacity:1"
         transform="matrix(0.13333333,0,0,-0.13333333,0,3201.3333)" />
      <path
         id="path12"
         d="m 17995.5,11586.9 h -1359.3 c -99,0 -180.1,81 -180.1,180 v 6634.7 c 0,99 81.1,180 180.1,180 h 1359.3 c 99,0 180.1,-81 180.1,-180 v -6634.7 c 0,-99 -81.1,-180 -180.1,-180 z"
         style="fill:#f17715;fill-opacity:1;fill-rule:evenodd;stroke:#000000;stroke-width:369.75;stroke-dasharray:none;stroke-opacity:1"
         transform="matrix(0.13333333,0,0,-0.13333333,0,3201.3333)" />
      <path
         id="path13"
         d="M 19507.9,16475.1 H 4501.13 c -99.02,0 -180.04,81 -180.04,180.1 0,99 81.02,180 180.04,180 H 6760.7 l 90.04,405.1 H 4501.13 c -99.02,0 -180.04,81 -180.04,180.1 0,99 81.02,180 180.04,180 H 19507.9 c 99,0 180.1,-81 180.1,-180 0,-99.1 -81.1,-180.1 -180.1,-180.1 h -2259.6 l 207.1,-405.1 h 2052.5 c 99,0 180.1,-81 180.1,-180 0,-99.1 -81.1,-180.1 -180.1,-180.1 z"
         style="fill:#f17715;fill-opacity:1;fill-rule:evenodd;stroke:#000000;stroke-width:369.75;stroke-dasharray:none;stroke-opacity:1"
         transform="matrix(0.13333333,0,0,-0.13333333,0,3201.3333)" />
      <path
         id="path14"
         d="m 12000,15439.8 c -99,0 -180,81.1 -180,180.1 v 1035.3 c 0,99 81,180 180,180 99,0 180.1,-81 180.1,-180 v -1035.3 c 0,-99 -81.1,-180.1 -180.1,-180.1 z"
         style="fill:#f17715;fill-opacity:1;fill-rule:evenodd;stroke:#000000;stroke-width:369.75;stroke-dasharray:none;stroke-opacity:1"
         transform="matrix(0.13333333,0,0,-0.13333333,0,3201.3333)" />
      <path
         id="path15"
         d="m 13035.3,13081.3 h -2061.5 c -90,0 -162.1,63 -180.1,153 l -405.1,2349.6 c -18,54 0,108 36,153 36,36 81,63 135,63 h 2880.8 c 54,0 108,-27 144,-63 36,-45 45,-99 36,-153 l -405.1,-2349.6 c -18,-90 -90,-153 -180,-153 z"
         style="fill:#f17715;fill-opacity:1;fill-rule:evenodd;stroke:#000000;stroke-width:369.75;stroke-dasharray:none;stroke-opacity:1"
         transform="matrix(0.13333333,0,0,-0.13333333,0,3201.3333)" />
      <path
         id="path16"
         d="m 13809.4,15439.8 h -3609.8 c -99,0 -180.1,81.1 -180.1,180.1 0,99 81.1,180 180.1,180 h 3609.8 c 99.1,0 180.1,-81 180.1,-180 0,-99 -81,-180.1 -180.1,-180.1 z"
         style="fill:#f17715;fill-opacity:1;fill-rule:evenodd;stroke:#000000;stroke-width:369.75;stroke-dasharray:none;stroke-opacity:1"
         transform="matrix(0.13333333,0,0,-0.13333333,0,3201.3333)" />
      <path
         id="path17"
         d="M 19507.9,18221.6 H 4501.13 c -99.02,0 -180.04,72 -180.04,180 v 918.2 c 0,99 81.02,180.1 180.04,180.1 H 19507.9 c 99,0 180.1,-81.1 180.1,-180.1 v -918.2 c 0,-108 -81.1,-180 -180.1,-180 z"
         style="fill:#f17715;fill-opacity:1;fill-rule:evenodd;stroke:#000000;stroke-width:369.75;stroke-dasharray:none;stroke-opacity:1"
         transform="matrix(0.13333333,0,0,-0.13333333,0,3201.3333)" />
    </g>
    <g
       id="g9"
       style="fill:#f17715;fill-opacity:1;stroke:none;stroke-width:10.4;stroke-dasharray:none;stroke-opacity:1">
      <path
         id="path2"
         d="m 19138.8,4511.09 h -2439.6 v 1584.42 h 2619.7 V 4691.13 c 0,-99.02 -81,-180.04 -180.1,-180.04 z m -2799.7,0 h -4159.02 v 1584.42 h 4159.02 z m -4519.1,0 H 7669.96 V 6095.51 H 11820 Z m -4510.16,0 H 4870.23 c -99.02,0 -180.03,81.02 -180.03,180.04 V 6095.51 H 7309.84 Z M 4690.2,8048.98 H 6490.63 V 6455.59 H 4690.2 Z m 0,1962.52 H 7309.84 V 8409.08 H 4690.2 Z m 0,360.1 v 1395.3 c 0,99 81.01,180 180.03,180 h 1620.4 v -1575.3 z m 2160.54,1575.3 h 3195.78 V 10371.51 H 6850.74 Z m 3555.86,0 h 3195.82 V 10371.51 H 10406.6 Z m 3555.9,0 h 3195.82 V 10371.51 H 13962.5 Z m 3555.9,0 h 1620.4 c 99.1,0 180.1,-81 180.1,-180 v -1395.3 h -1800.5 z m 1800.5,-3537.84 h -2619.65 v 1602.42 h 2619.65 z m 0,-1953.47 H 17518.43 V 8048.98 H 19318.9 Z M 17158.3,8048.98 H 13962.48 V 6455.59 h 3195.82 z m -3555.9,0 H 10406.58 V 6455.59 h 3195.82 z m -3555.9,0 H 6850.72 V 6455.59 h 3195.78 z m 6292.6,1962.52 H 12180.08 V 8409.08 h 4159.02 z m -4519.1,0 H 7669.96 V 8409.08 H 11820 Z"
         style="fill:#63584e;fill-opacity:1;fill-rule:evenodd;stroke:none;stroke-width:78;stroke-dasharray:none;stroke-opacity:1"
         transform="matrix(0.13333333,0,0,-0.13333333,0,3201.3333)" />
      <path
         id="path3"
         d="M 7363.87,11586.9 H 6004.49 c -99.02,0 -180.04,81 -180.04,180 v 6634.7 c 0,99 81.02,180 180.04,180 h 1359.38 c 99.02,0 180.04,-81 180.04,-180 v -6634.7 c 0,-99 -81.02,-180 -180.04,-180 z"
         style="fill:#823b01;fill-opacity:1;fill-rule:evenodd;stroke:none;stroke-width:78;stroke-dasharray:none;stroke-opacity:1"
         transform="matrix(0.13333333,0,0,-0.13333333,0,3201.3333)" />
      <path
         id="path4"
         d="m 17995.5,11586.9 h -1359.3 c -99,0 -180.1,81 -180.1,180 v 6634.7 c 0,99 81.1,180 180.1,180 h 1359.3 c 99,0 180.1,-81 180.1,-180 v -6634.7 c 0,-99 -81.1,-180 -180.1,-180 z"
         style="fill:#823b01;fill-opacity:1;fill-rule:evenodd;stroke:none;stroke-width:78;stroke-dasharray:none;stroke-opacity:1"
         transform="matrix(0.13333333,0,0,-0.13333333,0,3201.3333)" />
      <path
         id="path5"
         d="M 19507.9,16475.1 H 4501.13 c -99.02,0 -180.04,81 -180.04,180.1 0,99 81.02,180 180.04,180 H 6760.7 l 90.04,405.1 H 4501.13 c -99.02,0 -180.04,81 -180.04,180.1 0,99 81.02,180 180.04,180 H 19507.9 c 99,0 180.1,-81 180.1,-180 0,-99.1 -81.1,-180.1 -180.1,-180.1 h -2259.6 l 207.1,-405.1 h 2052.5 c 99,0 180.1,-81 180.1,-180 0,-99.1 -81.1,-180.1 -180.1,-180.1 z"
         style="fill:#823b01;fill-opacity:1;fill-rule:evenodd;stroke:none;stroke-width:78;stroke-dasharray:none;stroke-opacity:1"
         transform="matrix(0.13333333,0,0,-0.13333333,0,3201.3333)" />
      <g
         id="g18"
         style="fill:#3c59f3;fill-opacity:1">
        <path
           id="path6"
           d="m 1600,1142.6934 c -13.2,0 -24,-10.8134 -24,-24.0134 V 980.64002 c 0,-13.2 10.8,-24 24,-24 13.2,0 24.0133,10.8 24.0133,24 V 1118.68 c 0,13.2 -10.8133,24.0134 -24.0133,24.0134 z"
           style="fill:#3c59f3;fill-opacity:1;fill-rule:evenodd;stroke:none;stroke-width:10.4;stroke-dasharray:none;stroke-opacity:1" />
        <path
           id="path7"
           d="m 1738.04,1457.16 h -274.8667 c -12,0 -21.6133,-8.4 -24.0133,-20.4 l -54.0134,-313.28 c -2.4,-7.2 0,-14.4 4.8,-20.4 4.8,-4.8 10.8,-8.4 18,-8.4 h 384.1067 c 7.2,0 14.4,3.6 19.2,8.4 4.8,6 6,13.2 4.8,20.4 l -54.0133,313.28 c -2.4,12 -12,20.4 -24,20.4 z"
           style="fill:#3c59f3;fill-opacity:1;fill-rule:evenodd;stroke:none;stroke-width:10.4;stroke-dasharray:none;stroke-opacity:1" />
        <path
           id="path8"
           d="m 13809.4,15439.8 h -3609.8 c -99,0 -180.1,81.1 -180.1,180.1 0,99 81.1,180 180.1,180 h 3609.8 c 99.1,0 180.1,-81 180.1,-180 0,-99 -81,-180.1 -180.1,-180.1 z"
           style="fill:#3c59f3;fill-opacity:1;fill-rule:evenodd;stroke:none;stroke-width:78;stroke-dasharray:none;stroke-opacity:1"
           transform="matrix(0.13333333,0,0,-0.13333333,0,3201.3333)" />
      </g>
      <path
         id="path9"
         d="M 19507.9,18221.6 H 4501.13 c -99.02,0 -180.04,72 -180.04,180 v 918.2 c 0,99 81.02,180.1 180.04,180.1 H 19507.9 c 99,0 180.1,-81.1 180.1,-180.1 v -918.2 c 0,-108 -81.1,-180 -180.1,-180 z"
         style="fill:#823b01;fill-opacity:1;fill-rule:evenodd;stroke:none;stroke-width:78;stroke-dasharray:none;stroke-opacity:1"
         transform="matrix(0.13333333,0,0,-0.13333333,0,3201.3333)" />
    </g>
  </g>
</svg>
