<?xml version="1.0" encoding="UTF-8" standalone="no"?>
<svg
   xmlns:dc="http://purl.org/dc/elements/1.1/"
   xmlns:cc="http://creativecommons.org/ns#"
   xmlns:rdf="http://www.w3.org/1999/02/22-rdf-syntax-ns#"
   xmlns:svg="http://www.w3.org/2000/svg"
   xmlns="http://www.w3.org/2000/svg"
   xmlns:sodipodi="http://sodipodi.sourceforge.net/DTD/sodipodi-0.dtd"
   xmlns:inkscape="http://www.inkscape.org/namespaces/inkscape"
   version="1.2"
   viewBox="3 3 10.079451 8.5462545"
   xml:space="preserve"
   id="svg3155"
   inkscape:version="0.48.4 r9939"
   width="100%"
   height="100%"
   sodipodi:docname="svg.svg"><metadata
     id="metadata3173"><rdf:RDF><cc:Work
         rdf:about=""><dc:format>image/svg+xml</dc:format><dc:type
           rdf:resource="http://purl.org/dc/dcmitype/StillImage" /><dc:title></dc:title></cc:Work></rdf:RDF></metadata><defs
     id="defs3171" /><sodipodi:namedview
     pagecolor="#ffffff"
     bordercolor="#666666"
     borderopacity="1"
     objecttolerance="10"
     gridtolerance="10"
     guidetolerance="10"
     inkscape:pageopacity="0"
     inkscape:pageshadow="2"
     inkscape:window-width="640"
     inkscape:window-height="480"
     id="namedview3169"
     showgrid="false"
     inkscape:zoom="13.111111"
     inkscape:cx="5.0338981"
     inkscape:cy="4.3498988"
     inkscape:window-x="75"
     inkscape:window-y="34"
     inkscape:window-maximized="0"
     inkscape:current-layer="svg3155"
     fit-margin-top="0"
     fit-margin-left="0"
     fit-margin-right="0"
     fit-margin-bottom="0" /><g
     id="g3163"
     transform="matrix(1.119939,0,0,1.119939,-5.3995425,-6.1667007)"><g
       id="g3165"><path
         inkscape:connector-curvature="0"
         id="path3167"
         d="m 13.565,12.626 c 0.171,0 0.316,0.084 0.441,0.255 0.124,0.169 0.187,0.378 0.187,0.625 0,0.248 -0.062,0.457 -0.187,0.626 -0.125,0.169 -0.271,0.254 -0.441,0.254 -0.181,0 -0.337,-0.084 -0.461,-0.254 -0.124,-0.169 -0.187,-0.378 -0.187,-0.626 0,-0.248 0.062,-0.456 0.187,-0.625 0.125,-0.171 0.281,-0.255 0.461,-0.255 m 2.21,-2.289 c 0.482,0.522 0.725,1.155 0.725,1.898 0,0.482 -0.057,0.915 -0.166,1.301 -0.111,0.384 -0.252,0.698 -0.42,0.939 -0.171,0.242 -0.378,0.454 -0.627,0.635 -0.249,0.184 -0.478,0.316 -0.685,0.401 -0.208,0.085 -0.446,0.15 -0.716,0.196 -0.266,0.047 -0.467,0.072 -0.606,0.079 -0.135,0.006 -0.282,0.009 -0.44,0.009 -0.035,0 -0.155,0.004 -0.352,0.01 -0.193,0.008 -0.359,0.011 -0.488,0.011 -0.129,0 -0.295,-0.003 -0.488,-0.011 -0.196,-0.006 -0.316,-0.01 -0.352,-0.01 -0.158,0 -0.306,-0.002 -0.44,-0.009 C 10.58,15.779 10.379,15.754 10.114,15.707 9.843,15.662 9.606,15.597 9.398,15.511 9.191,15.427 8.962,15.294 8.714,15.11 8.464,14.928 8.257,14.716 8.086,14.475 7.918,14.234 7.777,13.92 7.666,13.536 7.557,13.15 7.5,12.717 7.5,12.235 7.5,11.492 7.742,10.859 8.225,10.337 8.172,10.311 8.169,10.051 8.217,9.555 8.26,9.059 8.365,8.602 8.536,8.185 c 0.602,0.064 1.343,0.404 2.23,1.017 0.3,-0.078 0.71,-0.118 1.233,-0.118 0.549,0 0.959,0.04 1.234,0.118 0.404,-0.273 0.791,-0.496 1.16,-0.666 0.374,-0.168 0.644,-0.267 0.814,-0.293 l 0.254,-0.058 c 0.172,0.417 0.277,0.875 0.32,1.37 0.05,0.496 0.047,0.756 -0.006,0.782 m -3.754,5.027 c 1.083,0 1.899,-0.129 2.454,-0.39 0.553,-0.26 0.833,-0.796 0.833,-1.605 0,-0.469 -0.176,-0.861 -0.529,-1.174 -0.181,-0.17 -0.394,-0.273 -0.638,-0.313 -0.238,-0.039 -0.607,-0.039 -1.104,0 -0.495,0.04 -0.834,0.058 -1.016,0.058 -0.248,0 -0.517,-0.013 -0.851,-0.039 -0.334,-0.025 -0.596,-0.041 -0.783,-0.049 -0.191,-0.006 -0.395,0.018 -0.616,0.069 -0.223,0.053 -0.404,0.143 -0.55,0.273 -0.336,0.3 -0.507,0.691 -0.507,1.174 0,0.809 0.274,1.345 0.821,1.605 0.547,0.261 1.361,0.39 2.444,0.39 m -1.524,-2.737 c 0.17,0 0.316,0.084 0.44,0.255 0.124,0.169 0.187,0.378 0.187,0.625 0,0.248 -0.062,0.457 -0.187,0.626 -0.124,0.169 -0.271,0.254 -0.44,0.254 -0.182,0 -0.337,-0.084 -0.462,-0.254 -0.124,-0.169 -0.187,-0.378 -0.187,-0.626 0,-0.248 0.062,-0.456 0.187,-0.625 0.125,-0.171 0.28,-0.255 0.462,-0.255" /></g></g></svg>