<?xml version="1.0" encoding="UTF-8" standalone="no"?>
<!-- Created with Inkscape (http://www.inkscape.org/) -->

<svg
   width="209.70454mm"
   height="234.24127mm"
   viewBox="0 0 209.70454 234.24127"
   version="1.1"
   id="svg75218"
   inkscape:version="1.1 (c4e8f9e, 2021-05-24)"
   sodipodi:docname="logo.svg"
   inkscape:export-filename="/home/dys/tip/program/forests/public/logo.png"
   inkscape:export-xdpi="60.560001"
   inkscape:export-ydpi="60.560001"
   xmlns:inkscape="http://www.inkscape.org/namespaces/inkscape"
   xmlns:sodipodi="http://sodipodi.sourceforge.net/DTD/sodipodi-0.dtd"
   xmlns="http://www.w3.org/2000/svg"
   xmlns:svg="http://www.w3.org/2000/svg">
  <sodipodi:namedview
     id="namedview75220"
     pagecolor="#505050"
     bordercolor="#ffffff"
     borderopacity="1"
     inkscape:showpageshadow="0"
     inkscape:pageopacity="0"
     inkscape:pagecheckerboard="1"
     inkscape:deskcolor="#505050"
     inkscape:document-units="mm"
     showgrid="false"
     inkscape:zoom="0.64"
     inkscape:cx="-95.3125"
     inkscape:cy="487.5"
     inkscape:window-width="3440"
     inkscape:window-height="1328"
     inkscape:window-x="0"
     inkscape:window-y="34"
     inkscape:window-maximized="1"
     inkscape:current-layer="layer1"
     inkscape:pageshadow="0" />
  <defs
     id="defs75215" />
  <g
     inkscape:label="Layer 1"
     inkscape:groupmode="layer"
     id="layer1"
     transform="translate(-0.32862273,0.16865685)">
    <path
       style="fill:#493b25;fill-opacity:1;stroke-width:0.593391"
       d="M 197.21591,49.00866 117.99815,3.2581788 c -7.95145,-4.5691142 -17.68307,-4.5691142 -25.634512,0 L 13.145878,49.00866 C 5.1944327,53.577775 0.32862273,62.063273 0.32862273,71.201501 v 91.500959 c 0,9.13823 4.86580997,17.62373 12.81725527,22.19284 l 79.21776,45.75049 c 7.951442,4.56911 17.683062,4.56911 25.634512,0 l 79.21776,-45.75049 c 7.95144,-4.56911 12.81725,-13.05461 12.81725,-22.19284 V 71.142162 c 0,-9.138229 -4.86581,-17.564387 -12.81725,-22.133502 z"
       id="path74575" />
    <path
       style="fill:#fef9dc;fill-opacity:0.975673;stroke-width:0.593391"
       d="m 200.8356,162.64312 c 0,5.87458 -3.14498,11.33378 -8.18881,14.2414 l -64.97636,37.50234 c -5.7559,3.32299 -13.05461,-0.41537 -13.648,-7.06136 l -3.20432,-33.82331 c -0.59339,-6.40863 1.6615,-12.75792 6.23061,-17.26769 l 3.97573,-3.97573 18.21711,18.21712 h 28.42345 l 14.2414,-14.24139 h 12.81726 v -6.11193 h -15.36884 l -14.2414,14.24139 h -23.37962 l -16.43695,-16.3776 14.41942,-14.41942 h 29.66957 l 25.33782,-25.33781 V 99.565613 L 184.45799,109.83129 V 89.715315 l 10.26568,-10.265673 v -8.30748 c -0.11868,-0.05934 -0.11868,-0.05934 -0.23736,-0.118678 l -16.14025,16.140247 v 28.720149 h 0.0593 l -11.51179,11.57113 h -29.66958 l -27.35534,27.35535 v -25.4565 c 0,-5.34052 2.13621,-10.50302 5.93391,-14.30073 l 9.61294,-9.61294 h 26.34658 l 40.766,-40.765995 c -0.17802,-0.237357 -0.41538,-0.474713 -0.65273,-0.71207 -0.0593,-0.05934 -0.11868,-0.118678 -0.17802,-0.178017 -0.11868,-0.118679 -0.23736,-0.237357 -0.35604,-0.296696 -0.29669,-0.296696 -0.65273,-0.534052 -0.94942,-0.771409 -0.0593,-0.05934 -0.17802,-0.118678 -0.23736,-0.178017 -0.17802,-0.118679 -0.29669,-0.178018 -0.47471,-0.296696 l -2.07687,-1.246122 v 0 L 149.26988,99.328256 H 122.9233 L 109.92803,112.32353 V 93.869055 c 0,-3.322992 1.30546,-6.527306 3.67902,-8.841533 l 2.78894,-2.78894 h 39.4012 l 25.10045,-25.100459 -5.4592,-3.144974 -22.1335,22.133501 h -30.73768 l 5.16251,-5.162506 V 53.043722 l 16.85232,-16.852317 -5.4592,-3.144975 v 0 l -0.94943,0.949426 v -1.483478 l -1.12744,-0.652731 -5.04383,-2.907618 v 11.15576 L 121.49916,50.4328 V 68.353222 L 109.86869,79.983695 V 16.194113 c -0.53406,-0.296696 -1.06811,-0.474713 -1.6615,-0.652731 -0.0593,0 -0.0593,0 -0.11868,-0.05934 -0.11868,-0.05934 -0.29669,-0.05934 -0.41537,-0.118678 -0.0593,0 -0.0593,0 -0.11868,-0.05934 -0.17802,-0.05934 -0.35604,-0.05934 -0.53405,-0.118678 -0.17802,-0.05934 -0.41538,-0.05934 -0.59339,-0.118678 -0.17802,0 -0.35604,-0.05934 -0.53406,-0.05934 -0.23735,0 -0.47471,0 -0.71207,0 -0.23735,0 -0.47471,0 -0.71207,0.05934 -0.11867,0 -0.29669,0 -0.41537,0.05934 -0.17802,0 -0.41537,0.05934 -0.59339,0.118678 -0.17802,0.05934 -0.35604,0.05934 -0.53405,0.118679 -0.0593,0 -0.11868,0 -0.17802,0.05934 -0.11868,0.05934 -0.2967,0.05934 -0.41538,0.118678 -0.0593,0 -0.0593,0 -0.11867,0.05934 -0.35604,0.118679 -0.71207,0.237357 -1.06811,0.415374 -0.17802,0.05934 -0.35603,0.178018 -0.53405,0.237357 v 0 21.54011 L 86.963776,24.145558 81.504574,27.290533 96.517378,42.303337 c 2.610923,2.610922 4.094402,6.23061 4.094402,9.968976 V 99.74363 L 76.401408,75.533259 V 50.076765 L 63.821509,37.496866 58.362308,40.641841 70.289476,52.569009 v 25.456494 l 7.417393,7.417393 H 56.700811 l -27.77072,-27.77072 -5.51854,3.144974 30.737677,30.737678 h 29.669573 l 10.918403,10.918402 c 3.797705,3.79771 5.933916,8.90087 5.933916,14.30074 v 29.43221 L 68.034588,113.56965 H 46.138443 L 15.81614,83.247348 v 8.604176 l 27.77072,27.770716 h 21.896145 l 17.742405,17.74241 -16.911657,16.91166 -15.3095,-15.3095 H 30.176213 L 15.81614,124.60673 v 8.66352 l 11.867829,11.86783 h 20.82804 l 4.331758,4.33175 -15.131482,15.13149 H 16.053496 c 0.415374,2.37356 1.720836,4.56911 3.560349,6.11193 h 20.590684 l 16.911656,-16.91166 9.197568,9.19757 21.243414,-21.24341 6.052593,6.05259 c 4.509775,4.50977 6.76466,10.74038 6.230611,17.03033 l -3.50101,42.36815 c -0.534052,6.64599 -7.892106,10.50303 -13.648004,7.18004 L 17.952349,177.0032 C 12.908522,174.09558 9.7635469,168.63638 9.7635469,162.7618 V 71.142162 c 0,-5.874576 3.1449751,-11.274438 8.1888021,-14.241395 l 79.21776,-45.750482 c 2.492244,-1.4241392 5.340521,-2.1955481 8.188801,-2.1955481 2.90762,0 5.69656,0.7714089 8.1888,2.1955481 l 79.21776,45.750482 c 5.04383,2.907618 8.18881,8.366819 8.18881,14.241395 v 91.500958 z"
       id="path75434" />
    <g
       id="g74557"
       transform="matrix(0.59339146,0,0,0.59339146,-51.177756,-303.94058)"
       style="fill:#703000;fill-opacity:1">
      <polygon
         fill="#46a368"
         points="414.4,687 414.4,653.1 397.1,670.4 397.1,704.3 "
         id="polygon74545"
         style="fill:#703000;fill-opacity:1" />
      <path
         fill="#46a368"
         d="M 271.4,780.1 317.5,734 h 50 l 19.4,-19.4 h -0.1 V 666.2 L 414,639 c 0.2,0.1 0.2,0.1 0.4,0.2 v -7 c 0,-0.2 0,-0.4 0,-0.6 -0.1,-2 -0.5,-4 -1.3,-5.9 L 341.9,697 h -44.4 l -16.2,16.2 c -6.4,6.4 -10,15 -10,24.1 v 42.8 z"
         id="path74547"
         style="fill:#703000;fill-opacity:1" />
      <path
         fill="#46a368"
         d="m 277.6,662.4 c -4,4 -6.2,9.3 -6.2,14.9 v 31.1 l 21.9,-21.9 h 44.4 l 69,-69 c 0,0 0,0 -0.1,0 -0.3,-0.2 -0.5,-0.3 -0.8,-0.5 l -3.5,-2 -6.8,-4 -46.7,46.7 h -66.4 z"
         id="path74549"
         style="fill:#703000;fill-opacity:1" />
      <polygon
         fill="#46a368"
         points="381.6,603.2 334,575.6 301.3,608.5 301.3,638.7 292.6,647.4 344.3,647.4 386.1,605.7 "
         id="polygon74551"
         style="fill:#703000;fill-opacity:1" />
      <path
         fill="#46a368"
         d="m 265.5,544.8 c 0.3,0 0.7,0.1 1,0.2 0.3,0.1 0.6,0.1 0.9,0.2 0.1,0 0.1,0 0.2,0.1 0.2,0.1 0.5,0.1 0.7,0.2 0.1,0 0.1,0 0.2,0.1 0.9,0.3 1.9,0.7 2.8,1.1 V 654 l 19.6,-19.6 v -30.2 l 17.5,-17.5 v -18.8 l 8.5,4.9 1.9,1.1 v 2.5 l 5.9,-6.1 -4.3,-2.5 -1.6,-0.9 -1.9,-1.1 -8.5,-4.9 v 0 l -36.3,-21 c -0.3,-0.2 -0.5,-0.3 -0.8,-0.4 -0.9,-0.5 -1.8,-0.8 -2.8,-1.1 -0.1,0 -0.1,0 -0.2,-0.1 -0.2,-0.1 -0.5,-0.1 -0.7,-0.2 -0.1,0 -0.1,0 -0.2,-0.1 -0.3,-0.1 -0.6,-0.1 -0.9,-0.2 -0.3,-0.1 -0.7,-0.1 -1,-0.2 -0.3,0 -0.6,-0.1 -0.9,-0.1 -0.1,0 -0.1,0 -0.2,0 v 7 c 0.1,0 0.1,0 0.2,0 0.3,0.2 0.6,0.2 0.9,0.3 z"
         id="path74553"
         style="fill:#703000;fill-opacity:1" />
      <polygon
         fill="#46a368"
         points="325.1,796.2 364.5,796.2 388.5,772.2 414.4,772.2 414.4,701.6 371.7,744.2 321.8,744.2 297.5,768.6 "
         id="polygon74555"
         style="fill:#703000;fill-opacity:1" />
    </g>
    <g
       id="g74571"
       transform="matrix(0.59339146,0,0,0.59339146,-51.177756,-303.94058)"
       style="fill:#be6000;fill-opacity:1">
      <polygon
         fill="#98cb50"
         points="112.6,729.1 136.8,753.3 171.9,753.3 197.7,779.2 226.2,750.7 196.3,720.8 159.4,720.8 112.6,673.9 "
         id="polygon74559"
         style="fill:#be6000;fill-opacity:1" />
      <path
         fill="#98cb50"
         d="m 255.6,715.9 c 0,-9 -3.6,-17.7 -10,-24.1 l -18.4,-18.4 h -50 L 121,617.2 c -5.3,3.1 -8.5,8.8 -8.5,14.9 v 27.2 l 51.1,51.1 h 36.9 l 55,55 v -49.5 z"
         id="path74561"
         style="fill:#be6000;fill-opacity:1" />
      <path
         fill="#98cb50"
         d="m 261.5,537.8 c -0.3,0 -0.7,0.1 -1,0.2 -0.3,0.1 -0.6,0.1 -0.9,0.2 -0.1,0 -0.2,0 -0.3,0.1 -0.2,0.1 -0.5,0.1 -0.7,0.2 -0.1,0 -0.1,0 -0.2,0.1 -0.6,0.2 -1.2,0.4 -1.8,0.7 -0.3,0.1 -0.6,0.3 -0.9,0.4 v 0 c -0.3,0.1 -0.5,0.3 -0.8,0.4 l -22.2,12.8 -4.4,2.5 27.4,27.5 v -36.3 0 c 0.3,-0.1 0.6,-0.3 0.9,-0.4 0.6,-0.3 1.2,-0.5 1.8,-0.7 0.1,0 0.1,0 0.2,-0.1 0.2,-0.1 0.5,-0.1 0.7,-0.2 0.1,0 0.2,-0.1 0.3,-0.1 0.3,-0.1 0.6,-0.1 0.9,-0.2 0.3,-0.1 0.7,-0.1 1,-0.2 0.2,0 0.5,-0.1 0.7,-0.1 0.1,0 0.2,0 0.4,0 v -7 c -0.1,0 -0.1,0 -0.2,0 -0.3,0.1 -0.6,0.1 -0.9,0.2 z"
         id="path74563"
         style="fill:#be6000;fill-opacity:1" />
      <polygon
         fill="#98cb50"
         points="204.5,607.8 180,583.2 134.8,609.3 130.3,611.9 181.6,663.1 216.9,663.1 204.5,650.6 "
         id="polygon74565"
         style="fill:#be6000;fill-opacity:1" />
      <path
         fill="#98cb50"
         d="m 115.8,796.4 h 33.6 l 25.5,-25.5 -7.3,-7.3 h -35.1 l -20,-20 v 42.7 c 0,1 0.1,2.1 0.3,3.1 0.5,2.6 1.5,4.9 3,7 z"
         id="path74567"
         style="fill:#be6000;fill-opacity:1" />
      <path
         fill="#98cb50"
         d="m 255.6,607.2 c 0,-6.3 -2.5,-12.3 -6.9,-16.8 l -29.7,-29.7 -25.4,14.6 -4.4,2.5 25.6,25.6 v 42.9 l 40.8,40.8 z"
         id="path74569"
         style="fill:#be6000;fill-opacity:1" />
    </g>
  </g>
</svg>
