<svg version="1.0" viewBox="0 0 30.023 24.993" xmlns="http://www.w3.org/2000/svg">
  <defs>
    <linearGradient id="i" x1="302.86" x2="302.86" y1="366.65" y2="609.51" gradientTransform="matrix(.051143 0 0 .015916 -2.49 22.299)" gradientUnits="userSpaceOnUse">
      <stop style="stop-opacity:0" offset="0"/>
      <stop offset=".5"/>
      <stop style="stop-opacity:0" offset="1"/>
    </linearGradient>
    <radialGradient id="e" cx="605.71" cy="486.65" r="117.14" gradientTransform="matrix(.019836 0 0 .015916 16.388 22.299)" gradientUnits="userSpaceOnUse">
      <stop offset="0"/>
      <stop style="stop-opacity:0" offset="1"/>
    </radialGradient>
    <radialGradient id="d" cx="605.71" cy="486.65" r="117.14" gradientTransform="matrix(-.019836 0 0 .015916 15.601 22.299)" gradientUnits="userSpaceOnUse">
      <stop offset="0"/>
      <stop style="stop-opacity:0" offset="1"/>
    </radialGradient>
    <linearGradient id="h" x1="11.566" x2="15.215" y1="22.292" y2="33.955" gradientTransform="matrix(.65153 0 0 .67605 -.63939 -5.8224)" gradientUnits="userSpaceOnUse">
      <stop style="stop-color:#fff;stop-opacity:.27451" offset="0"/>
      <stop style="stop-color:#fff;stop-opacity:.078431" offset="1"/>
    </linearGradient>
    <radialGradient id="c" cx="7.2647" cy="8.3021" r="20.98" gradientTransform="matrix(0 .73863 -.99849 0 16.149 .8466)" gradientUnits="userSpaceOnUse">
      <stop style="stop-color:#fff;stop-opacity:.4" offset="0"/>
      <stop style="stop-color:#fff;stop-opacity:0" offset="1"/>
    </radialGradient>
    <linearGradient id="g" x1="22.935" x2="22.809" y1="49.629" y2="36.658" gradientTransform="matrix(.74675 0 0 .65549 -2.9218 -4.8398)" gradientUnits="userSpaceOnUse">
      <stop style="stop-color:#0a0a0a;stop-opacity:.498" offset="0"/>
      <stop style="stop-color:#0a0a0a;stop-opacity:0" offset="1"/>
    </linearGradient>
    <radialGradient id="b" cx="63.969" cy="14.113" r="23.097" gradientTransform="matrix(1.008 -6.1246e-8 3.9794e-8 .65396 -56.005 .0988)" gradientUnits="userSpaceOnUse">
      <stop style="stop-color:#f0c178" offset="0"/>
      <stop style="stop-color:#e18941" offset=".5"/>
      <stop style="stop-color:#ec4f18" offset="1"/>
    </radialGradient>
    <linearGradient id="f" x1="82.453" x2="82.453" y1="45.114" y2="10.826" gradientTransform="matrix(.64421 0 0 .64373 -35.103 -5.2186)" gradientUnits="userSpaceOnUse">
      <stop style="stop-color:#bb2b12" offset="0"/>
      <stop style="stop-color:#cd7233" offset="1"/>
    </linearGradient>
    <radialGradient id="a" cx="3" cy="5.0172" r="21" gradientTransform="matrix(0 1.0975 -1.3856 0 7.7573 -3.1675)" gradientUnits="userSpaceOnUse">
      <stop style="stop-color:#bdbdbd" offset="0"/>
      <stop style="stop-color:#d0d0d0" offset="1"/>
    </radialGradient>
  </defs>
  <g transform="translate(-.99974 -7.0074)">
    <rect x="3.6472" y="28.135" width="24.695" height="3.8653" style="fill:url(#i);opacity:.3"/>
    <path d="m28.342 28.135v3.865c1.0215 0.0073 2.4695-0.86596 2.4695-1.9328 0-1.0668-1.1399-1.9323-2.4695-1.9323z" style="fill:url(#e);opacity:.3"/>
    <path d="m3.6472 28.135v3.865c-1.0215 0.0073-2.4695-0.86596-2.4695-1.9328 0-1.0668 1.1399-1.9323 2.4695-1.9323z" style="fill:url(#d);opacity:.3"/>
  </g>
  <path d="m2.0003 0.5c-0.44293 0.00491-0.5 0.21904-0.5 0.6402 0 3.5304 0.0206 6.1805 0 9.3885 0.92111 0 27.015-2.3686 27.015-3.3881v-3.9659c0-0.42116-0.35562-0.64512-0.79855-0.6402h-12.778c-1.3138 0-2.2452-2.0345-3.2084-2.0345h-9.7293z" style="fill:#fdd2c4;stroke-linecap:round;stroke-linejoin:round;stroke:url(#a)"/>
  <rect x="3.0003" y="1.9926" width="8" height="1" rx=".61538" ry=".5" style="display:block;fill:#eda374;stroke-opacity:.37556;stroke-width:.1;stroke:#1b2695"/>
  <path d="m0.92706 5.4926c-0.69105 0.07963-0.32196 0.90258-0.37705 1.3654 0.0802 0.29906 0.59771 15.718 0.59771 16.247 0 0.46018 0.22667 0.38221 0.80101 0.38221h26.397c0.61873 0.01434 0.48797 0.0075 0.48797-0.38947 0.0452-0.20268 0.63993-16.978 0.66282-17.243 0-0.27899 0.0581-0.3621-0.30493-0.3621h-28.265z" style="fill:url(#b);stroke-linecap:round;stroke-linejoin:round;stroke:url(#f)"/>
  <path d="m0.68206 4.9926 28.636 2.66e-4c0.4137 0 0.68182 0.29209 0.68182 0.65524l-0.67351 17.712c0.01 0.45948-0.1364 0.64167-0.61707 0.63203l-27.256-0.01154c-0.4137 0-0.83087-0.27117-0.83087-0.63432l-0.62243-17.698c0-0.36314 0.26812-0.65549 0.68182-0.65549z" style="fill:url(#g);opacity:.4"/>
  <path d="m28.5 6.4926h-27c0.23651 5 0.47301 10 0.70952 15" style="fill:none;stroke-linecap:round;stroke-linejoin:round;stroke:url(#c)"/>
  <path d="m29.406 5.0096c-9.4796 0.04959-19.2-0.02971-28.681-0.01541-1.1772 0.27794-0.54364 1.6676-0.63357 2.5497 0.14466 2.8146 0.21049 5.6416 0.40425 8.4485 9.7734-1.5974 19.498-3.1147 29.1-4.7659 0.50884-1.7487 0.37188-4.9049 0.39858-5.5444 0.0513-0.45671-0.24538-0.68013-0.58847-0.67248z" style="fill:url(#h)"/>
</svg>
