<svg version="1.1" viewBox="0 0 209.7 234.24" xmlns="http://www.w3.org/2000/svg">
  <g>
    <path d="m197.22 49.009-79.218-45.75c-7.9514-4.5691-17.683-4.5691-25.635 0l-79.218 45.75c-7.9514 4.5691-12.817 13.055-12.817 22.193v91.501c0 9.1382 4.8658 17.624 12.817 22.193l79.218 45.75c7.9514 4.5691 17.683 4.5691 25.635 0l79.218-45.75c7.9514-4.5691 12.817-13.055 12.817-22.193v-91.56c0-9.1382-4.8658-17.564-12.817-22.134z" style="fill:#493b25;stroke-width:.6"/>
    <path d="m200.84 162.64c0 5.8746-3.145 11.334-8.1888 14.241l-64.976 37.502c-5.7559 3.323-13.055-0.41537-13.648-7.0614l-3.2043-33.823c-0.59339-6.4086 1.6615-12.758 6.2306-17.268l3.9757-3.9757 18.217 18.217h28.423l14.241-14.241h12.817v-6.1119h-15.369l-14.241 14.241h-23.38l-16.437-16.378 14.419-14.419h29.67l25.338-25.338v-8.6635l-10.266 10.266v-20.116l10.266-10.266v-8.3075c-0.11868-0.05934-0.11868-0.05934-0.23736-0.11868l-16.14 16.14v28.72h0.0593l-11.512 11.571h-29.67l-27.355 27.355v-25.456c0-5.3405 2.1362-10.503 5.9339-14.301l9.6129-9.6129h26.347l40.766-40.766c-0.17802-0.23736-0.41538-0.47471-0.65273-0.71207-0.0593-0.05934-0.11868-0.11868-0.17802-0.17802-0.11868-0.11868-0.23736-0.23736-0.35604-0.2967-0.29669-0.2967-0.65273-0.53405-0.94942-0.77141-0.0593-0.05934-0.17802-0.11868-0.23736-0.17802-0.17802-0.11868-0.29669-0.17802-0.47471-0.2967l-2.0769-1.2461-38.333 38.333h-26.347l-12.995 12.995v-18.454c0-3.323 1.3055-6.5273 3.679-8.8415l2.7889-2.7889h39.401l25.1-25.1-5.4592-3.145-22.134 22.134h-30.738l5.1625-5.1625v-17.92l16.852-16.852-5.4592-3.145-0.94943 0.94943v-1.4835l-1.1274-0.65273-5.0438-2.9076v11.156l-10.503 10.325v17.92l-11.63 11.63v-63.79c-0.53406-0.2967-1.0681-0.47471-1.6615-0.65273-0.0593 0-0.0593 0-0.11868-0.05934-0.11868-0.05934-0.29669-0.05934-0.41537-0.11868-0.0593 0-0.0593 0-0.11868-0.05934-0.17802-0.05934-0.35604-0.05934-0.53405-0.11868-0.17802-0.05934-0.41538-0.05934-0.59339-0.11868-0.17802 0-0.35604-0.05934-0.53406-0.05934h-0.71207c-0.23735 0-0.47471 0-0.71207 0.05934-0.11867 0-0.29669 0-0.41537 0.05934-0.17802 0-0.41537 0.05934-0.59339 0.11868-0.17802 0.05934-0.35604 0.05934-0.53405 0.11868-0.0593 0-0.11868 0-0.17802 0.05934-0.11868 0.05934-0.2967 0.05934-0.41538 0.11868-0.0593 0-0.0593 0-0.11867 0.05934-0.35604 0.11868-0.71207 0.23736-1.0681 0.41537-0.17802 0.05934-0.35603 0.17802-0.53405 0.23736v21.54l-13.648-13.648-5.4592 3.145 15.013 15.013c2.6109 2.6109 4.0944 6.2306 4.0944 9.969v47.471l-24.21-24.21v-25.456l-12.58-12.58-5.4592 3.145 11.927 11.927v25.456l7.4174 7.4174h-21.006l-27.771-27.771-5.5185 3.145 30.738 30.738h29.67l10.918 10.918c3.7977 3.7977 5.9339 8.9009 5.9339 14.301v29.432l-32.637-32.637h-21.896l-30.322-30.322v8.6042l27.771 27.771h21.896l17.742 17.742-16.912 16.912-15.31-15.31h-20.828l-14.36-14.36v8.6635l11.868 11.868h20.828l4.3318 4.3318-15.131 15.131h-21.659c0.41537 2.3736 1.7208 4.5691 3.5603 6.1119h20.591l16.912-16.912 9.1976 9.1976 21.243-21.243 6.0526 6.0526c4.5098 4.5098 6.7647 10.74 6.2306 17.03l-3.501 42.368c-0.53405 6.646-7.8921 10.503-13.648 7.18l-64.739-37.384c-5.0438-2.9076-8.1888-8.3668-8.1888-14.241v-91.62c0-5.8746 3.145-11.274 8.1888-14.241l79.218-45.75c2.4922-1.4241 5.3405-2.1955 8.1888-2.1955 2.9076 0 5.6966 0.77141 8.1888 2.1955l79.218 45.75c5.0438 2.9076 8.1888 8.3668 8.1888 14.241v91.501z" style="fill:#fef9dc;stroke-width:.6"/>
    <g transform="matrix(.59339 0 0 .59339 -51.178 -303.94)" style="fill:#703000">
      <polygon points="414.4 687 414.4 653.1 397.1 670.4 397.1 704.3"/>
      <path d="m271.4 780.1 46.1-46.1h50l19.4-19.4h-0.1v-48.4l27.2-27.2 0.4 0.2v-7-0.6c-0.1-2-0.5-4-1.3-5.9l-71.2 71.3h-44.4l-16.2 16.2c-6.4 6.4-10 15-10 24.1v42.8z"/>
      <path d="m277.6 662.4c-4 4-6.2 9.3-6.2 14.9v31.1l21.9-21.9h44.4l69-69h-0.1c-0.3-0.2-0.5-0.3-0.8-0.5l-3.5-2-6.8-4-46.7 46.7h-66.4z"/>
      <polygon points="381.6 603.2 334 575.6 301.3 608.5 301.3 638.7 292.6 647.4 344.3 647.4 386.1 605.7"/>
      <path d="m265.5 544.8c0.3 0 0.7 0.1 1 0.2s0.6 0.1 0.9 0.2c0.1 0 0.1 0 0.2 0.1 0.2 0.1 0.5 0.1 0.7 0.2 0.1 0 0.1 0 0.2 0.1 0.9 0.3 1.9 0.7 2.8 1.1v107.3l19.6-19.6v-30.2l17.5-17.5v-18.8l8.5 4.9 1.9 1.1v2.5l5.9-6.1-4.3-2.5-1.6-0.9-1.9-1.1-8.5-4.9-36.3-21c-0.3-0.2-0.5-0.3-0.8-0.4-0.9-0.5-1.8-0.8-2.8-1.1-0.1 0-0.1 0-0.2-0.1-0.2-0.1-0.5-0.1-0.7-0.2-0.1 0-0.1 0-0.2-0.1-0.3-0.1-0.6-0.1-0.9-0.2s-0.7-0.1-1-0.2c-0.3 0-0.6-0.1-0.9-0.1h-0.2v7h0.2c0.3 0.2 0.6 0.2 0.9 0.3z"/>
      <polygon points="325.1 796.2 364.5 796.2 388.5 772.2 414.4 772.2 414.4 701.6 371.7 744.2 321.8 744.2 297.5 768.6"/>
    </g>
    <g transform="matrix(.59339 0 0 .59339 -51.178 -303.94)" style="fill:#BE6000">
      <polygon points="112.6 729.1 136.8 753.3 171.9 753.3 197.7 779.2 226.2 750.7 196.3 720.8 159.4 720.8 112.6 673.9"/>
      <path d="m255.6 715.9c0-9-3.6-17.7-10-24.1l-18.4-18.4h-50l-56.2-56.2c-5.3 3.1-8.5 8.8-8.5 14.9v27.2l51.1 51.1h36.9l55 55v-49.5z"/>
      <path d="m261.5 537.8c-0.3 0-0.7 0.1-1 0.2s-0.6 0.1-0.9 0.2c-0.1 0-0.2 0-0.3 0.1-0.2 0.1-0.5 0.1-0.7 0.2-0.1 0-0.1 0-0.2 0.1-0.6 0.2-1.2 0.4-1.8 0.7-0.3 0.1-0.6 0.3-0.9 0.4s-0.5 0.3-0.8 0.4l-22.2 12.8-4.4 2.5 27.4 27.5v-36.3c0.3-0.1 0.6-0.3 0.9-0.4 0.6-0.3 1.2-0.5 1.8-0.7 0.1 0 0.1 0 0.2-0.1 0.2-0.1 0.5-0.1 0.7-0.2 0.1 0 0.2-0.1 0.3-0.1 0.3-0.1 0.6-0.1 0.9-0.2s0.7-0.1 1-0.2c0.2 0 0.5-0.1 0.7-0.1h0.4v-7h-0.2c-0.3 0.1-0.6 0.1-0.9 0.2z"/>
      <polygon points="204.5 607.8 180 583.2 134.8 609.3 130.3 611.9 181.6 663.1 216.9 663.1 204.5 650.6"/>
      <path d="m115.8 796.4h33.6l25.5-25.5-7.3-7.3h-35.1l-20-20v42.7c0 1 0.1 2.1 0.3 3.1 0.5 2.6 1.5 4.9 3 7z"/>
      <path d="m255.6 607.2c0-6.3-2.5-12.3-6.9-16.8l-29.7-29.7-25.4 14.6-4.4 2.5 25.6 25.6v42.9l40.8 40.8z"/>
    </g>
  </g>
</svg>
