<svg xmlns="http://www.w3.org/2000/svg" xmlns:xlink="http://www.w3.org/1999/xlink" xml:space="preserve" viewBox="0 0 1599.282 590.96"><defs><marker id="h" markerHeight="2" markerWidth="2" orient="auto-start-reverse" preserveAspectRatio="xMidYMid" refX="0" refY="0" style="overflow:visible" viewBox="0 0 1 1"><path d="M6 0C3 1-1 3-3 5c0 0 0-4 2-5-2-1-2-5-2-5 2 2 6 4 9 5z" style="fill:context-stroke;fill-rule:evenodd;stroke:context-stroke;stroke-width:1pt" transform="scale(.5)"/></marker><marker id="r" markerHeight="2" markerWidth="2" orient="auto-start-reverse" preserveAspectRatio="xMidYMid" refX="0" refY="0" style="overflow:visible" viewBox="0 0 1 1"><path d="M6 0C3 1-1 3-3 5c0 0 0-4 2-5-2-1-2-5-2-5 2 2 6 4 9 5z" style="fill:context-stroke;fill-rule:evenodd;stroke:context-stroke;stroke-width:1pt" transform="scale(.5)"/></marker><marker id="q" markerHeight="2" markerWidth="2" orient="auto-start-reverse" preserveAspectRatio="xMidYMid" refX="0" refY="0" style="overflow:visible" viewBox="0 0 1 1"><path d="M6 0C3 1-1 3-3 5c0 0 0-4 2-5-2-1-2-5-2-5 2 2 6 4 9 5z" style="fill:context-stroke;fill-rule:evenodd;stroke:context-stroke;stroke-width:1pt" transform="scale(.5)"/></marker><marker id="t" markerHeight="2" markerWidth="2" orient="auto-start-reverse" preserveAspectRatio="xMidYMid" refX="0" refY="0" style="overflow:visible" viewBox="0 0 1 1"><path d="M6 0C3 1-1 3-3 5c0 0 0-4 2-5-2-1-2-5-2-5 2 2 6 4 9 5z" style="fill:context-stroke;fill-rule:evenodd;stroke:context-stroke;stroke-width:1pt" transform="scale(.5)"/></marker><marker id="v" markerHeight="2" markerWidth="2" orient="auto-start-reverse" preserveAspectRatio="xMidYMid" refX="0" refY="0" style="overflow:visible" viewBox="0 0 1 1"><path d="M6 0C3 1-1 3-3 5c0 0 0-4 2-5-2-1-2-5-2-5 2 2 6 4 9 5z" style="fill:context-stroke;fill-rule:evenodd;stroke:context-stroke;stroke-width:1pt" transform="scale(.5)"/></marker><marker id="z" markerHeight="2" markerWidth="2" orient="auto-start-reverse" preserveAspectRatio="xMidYMid" refX="0" refY="0" style="overflow:visible" viewBox="0 0 1 1"><path d="M6 0C3 1-1 3-3 5c0 0 0-4 2-5-2-1-2-5-2-5 2 2 6 4 9 5z" style="fill:context-stroke;fill-rule:evenodd;stroke:context-stroke;stroke-width:1pt" transform="scale(.5)"/></marker><marker id="A" markerHeight="2" markerWidth="2" orient="auto-start-reverse" preserveAspectRatio="xMidYMid" refX="0" refY="0" style="overflow:visible" viewBox="0 0 1 1"><path d="M6 0C3 1-1 3-3 5c0 0 0-4 2-5-2-1-2-5-2-5 2 2 6 4 9 5z" style="fill:context-stroke;fill-rule:evenodd;stroke:context-stroke;stroke-width:1pt" transform="scale(.5)"/></marker><marker id="w" markerHeight="2" markerWidth="2" orient="auto-start-reverse" preserveAspectRatio="xMidYMid" refX="0" refY="0" style="overflow:visible" viewBox="0 0 1 1"><path d="M6 0C3 1-1 3-3 5c0 0 0-4 2-5-2-1-2-5-2-5 2 2 6 4 9 5z" style="fill:context-stroke;fill-rule:evenodd;stroke:context-stroke;stroke-width:1pt" transform="scale(.5)"/></marker><marker id="g" markerHeight="2" markerWidth="2" orient="auto-start-reverse" preserveAspectRatio="xMidYMid" refX="0" refY="0" style="overflow:visible" viewBox="0 0 1 1"><path d="M6 0C3 1-1 3-3 5c0 0 0-4 2-5-2-1-2-5-2-5 2 2 6 4 9 5z" style="fill:context-stroke;fill-rule:evenodd;stroke:context-stroke;stroke-width:1pt" transform="scale(.5)"/></marker><marker id="p" markerHeight="2" markerWidth="2" orient="auto-start-reverse" preserveAspectRatio="xMidYMid" refX="0" refY="0" style="overflow:visible" viewBox="0 0 1 1"><path d="M6 0C3 1-1 3-3 5c0 0 0-4 2-5-2-1-2-5-2-5 2 2 6 4 9 5z" style="fill:context-stroke;fill-rule:evenodd;stroke:context-stroke;stroke-width:1pt" transform="scale(.5)"/></marker><marker id="n" markerHeight="2" markerWidth="2" orient="auto-start-reverse" preserveAspectRatio="xMidYMid" refX="0" refY="0" style="overflow:visible" viewBox="0 0 1 1"><path d="M6 0C3 1-1 3-3 5c0 0 0-4 2-5-2-1-2-5-2-5 2 2 6 4 9 5z" style="fill:context-stroke;fill-rule:evenodd;stroke:context-stroke;stroke-width:1pt" transform="scale(.5)"/></marker><marker id="e" markerHeight="2" markerWidth="2" orient="auto-start-reverse" preserveAspectRatio="xMidYMid" refX="0" refY="0" style="overflow:visible" viewBox="0 0 1 1"><path d="M6 0C3 1-1 3-3 5c0 0 0-4 2-5-2-1-2-5-2-5 2 2 6 4 9 5z" style="fill:context-stroke;fill-rule:evenodd;stroke:context-stroke;stroke-width:1pt" transform="scale(.5)"/></marker><marker id="d" markerHeight="2" markerWidth="2" orient="auto-start-reverse" preserveAspectRatio="xMidYMid" refX="0" refY="0" style="overflow:visible" viewBox="0 0 1 1"><path d="M6 0C3 1-1 3-3 5c0 0 0-4 2-5-2-1-2-5-2-5 2 2 6 4 9 5z" style="fill:context-stroke;fill-rule:evenodd;stroke:context-stroke;stroke-width:1pt" transform="scale(.5)"/></marker><marker id="a" markerHeight="2" markerWidth="2" orient="auto-start-reverse" preserveAspectRatio="xMidYMid" refX="0" refY="0" style="overflow:visible" viewBox="0 0 1 1"><path d="M6 0C3 1-1 3-3 5c0 0 0-4 2-5-2-1-2-5-2-5 2 2 6 4 9 5z" style="fill:context-stroke;fill-rule:evenodd;stroke:context-stroke;stroke-width:1pt" transform="scale(.5)"/></marker><marker id="b" markerHeight="2" markerWidth="2" orient="auto-start-reverse" preserveAspectRatio="xMidYMid" refX="0" refY="0" style="overflow:visible" viewBox="0 0 1 1"><path d="M6 0C3 1-1 3-3 5c0 0 0-4 2-5-2-1-2-5-2-5 2 2 6 4 9 5z" style="fill:context-stroke;fill-rule:evenodd;stroke:context-stroke;stroke-width:1pt" transform="scale(.5)"/></marker><marker id="c" markerHeight="2" markerWidth="2" orient="auto-start-reverse" preserveAspectRatio="xMidYMid" refX="0" refY="0" style="overflow:visible" viewBox="0 0 1 1"><path d="M6 0C3 1-1 3-3 5c0 0 0-4 2-5-2-1-2-5-2-5 2 2 6 4 9 5z" style="fill:context-stroke;fill-rule:evenodd;stroke:context-stroke;stroke-width:1pt" transform="scale(.5)"/></marker><marker id="k" markerHeight="2" markerWidth="2" orient="auto-start-reverse" preserveAspectRatio="xMidYMid" refX="0" refY="0" style="overflow:visible" viewBox="0 0 1 1"><path d="M6 0C3 1-1 3-3 5c0 0 0-4 2-5-2-1-2-5-2-5 2 2 6 4 9 5z" style="fill:context-stroke;fill-rule:evenodd;stroke:context-stroke;stroke-width:1pt" transform="scale(.5)"/></marker><marker id="l" markerHeight="2" markerWidth="2" orient="auto-start-reverse" preserveAspectRatio="xMidYMid" refX="0" refY="0" style="overflow:visible" viewBox="0 0 1 1"><path d="M6 0C3 1-1 3-3 5c0 0 0-4 2-5-2-1-2-5-2-5 2 2 6 4 9 5z" style="fill:context-stroke;fill-rule:evenodd;stroke:context-stroke;stroke-width:1pt" transform="scale(.5)"/></marker><marker id="i" markerHeight="2" markerWidth="2" orient="auto-start-reverse" preserveAspectRatio="xMidYMid" refX="0" refY="0" style="overflow:visible" viewBox="0 0 1 1"><path d="M6 0C3 1-1 3-3 5c0 0 0-4 2-5-2-1-2-5-2-5 2 2 6 4 9 5z" style="fill:context-stroke;fill-rule:evenodd;stroke:context-stroke;stroke-width:1pt" transform="scale(.5)"/></marker><marker id="j" markerHeight="2" markerWidth="2" orient="auto-start-reverse" preserveAspectRatio="xMidYMid" refX="0" refY="0" style="overflow:visible" viewBox="0 0 1 1"><path d="M6 0C3 1-1 3-3 5c0 0 0-4 2-5-2-1-2-5-2-5 2 2 6 4 9 5z" style="fill:context-stroke;fill-rule:evenodd;stroke:context-stroke;stroke-width:1pt" transform="scale(.5)"/></marker></defs><g transform="translate(-2277.052 -531.296)"><path d="m3161.358 927.823.416 140.036" style="fill:none;fill-opacity:1;stroke:#e9ff8e;stroke-width:5.66929;stroke-linecap:round;stroke-miterlimit:5.8;stroke-dasharray:none;stroke-opacity:1;paint-order:stroke fill markers"/><path d="m3128.404 928.921 246.253-1.916" style="fill:none;fill-opacity:1;stroke:#8ef7ff;stroke-width:5.66929;stroke-linecap:round;stroke-miterlimit:5.8;stroke-dasharray:none;stroke-opacity:1;marker-end:url(#a);paint-order:stroke fill markers"/><path d="m3161.584 1068.948 214.717-1.917" style="fill:none;fill-opacity:1;stroke:#ecff3b;stroke-width:5.66929;stroke-linecap:round;stroke-miterlimit:5.8;stroke-dasharray:none;stroke-opacity:1;marker-end:url(#b);paint-order:stroke fill markers"/><circle cx="3161.511" cy="1068.632" r="5.75" style="fill:#0b1902;fill-opacity:1;stroke:#eaff8e;stroke-width:5.66929;stroke-linecap:round;stroke-linejoin:round;stroke-miterlimit:5.8;stroke-dasharray:none;stroke-opacity:1;paint-order:fill markers stroke"/><circle cx="3161.295" cy="928.948" r="5.75" style="fill:#0b1902;fill-opacity:1;stroke:#8ef7ff;stroke-width:5.66929;stroke-linecap:round;stroke-linejoin:round;stroke-miterlimit:5.8;stroke-dasharray:none;stroke-opacity:1;paint-order:fill markers stroke"/><path d="m3510.398 920.948 223.717-1.917" style="fill:none;fill-opacity:1;stroke:#8ef7ff;stroke-width:5.66929;stroke-linecap:round;stroke-miterlimit:5.8;stroke-dasharray:none;stroke-opacity:1;marker-end:url(#c);paint-order:stroke fill markers"/><path d="m3134.898 788.948 240.217-1.917" style="fill:none;fill-opacity:1;stroke:#ecff3b;stroke-width:5.66929;stroke-linecap:round;stroke-miterlimit:5.8;stroke-dasharray:none;stroke-opacity:1;marker-end:url(#d);paint-order:stroke fill markers"/><path d="m3130.648 660.948 246.467-1.917" style="fill:none;fill-opacity:1;stroke:#ecff3b;stroke-width:5.66929;stroke-linecap:round;stroke-miterlimit:5.8;stroke-dasharray:none;stroke-opacity:1;marker-end:url(#e);paint-order:stroke fill markers"/><use xlink:href="#f" transform="translate(0 -132)"/><path d="m2396.938 794.483 215.14-1.917" style="fill:none;fill-opacity:1;stroke:#8ef7ff;stroke-width:5.66929;stroke-linecap:round;stroke-miterlimit:5.8;stroke-dasharray:none;stroke-opacity:1;marker-end:url(#g);paint-order:stroke fill markers"/><path d="m2396.938 794.483 215.14-1.917" style="fill:none;fill-opacity:1;stroke:#001528;stroke-width:3.02362;stroke-linecap:round;stroke-miterlimit:5.8;stroke-dasharray:none;stroke-opacity:1;marker-end:url(#h);paint-order:stroke fill markers"/><g transform="rotate(-.473 84473.651 -228869.152)"><rect width="159.872" height="51.54" x="525" y="82.46" rx="11.629" ry="13.5" style="opacity:1;fill:#f61b02;fill-opacity:1;stroke:#ff46f0;stroke-width:2.13165;stroke-linecap:round;stroke-miterlimit:5.8;stroke-dasharray:none;stroke-opacity:1;paint-order:stroke fill markers"/><text xml:space="preserve" x="607.238" y="120.802" style="font-style:normal;font-variant:normal;font-weight:400;font-stretch:normal;font-size:49.1473px;line-height:1;font-family:&quot;Amplitude BRK&quot;;-inkscape-font-specification:&quot;Amplitude BRK, Normal&quot;;font-variant-ligatures:normal;font-variant-caps:normal;font-variant-numeric:normal;font-variant-east-asian:normal;text-align:center;letter-spacing:0;word-spacing:-5.65061px;writing-mode:lr-tb;direction:ltr;text-anchor:middle;opacity:1;fill:#7d0046;fill-opacity:1;stroke:#46ff4d;stroke-width:.954447;stroke-linecap:round;stroke-miterlimit:5.8;stroke-dasharray:none;stroke-opacity:1;paint-order:stroke fill markers"><tspan x="607.238" y="120.802" style="font-style:italic;font-variant:normal;font-weight:400;font-stretch:normal;font-size:49.1473px;font-family:&quot;Baskervald ADF Std&quot;;-inkscape-font-specification:&quot;Baskervald ADF Std, Italic&quot;;font-variant-ligatures:normal;font-variant-caps:normal;font-variant-numeric:normal;font-variant-east-asian:normal;fill:#7d0046;fill-opacity:1;stroke-width:.954447"><tspan style="font-style:normal;font-family:&quot;Amplitude BRK&quot;;-inkscape-font-specification:&quot;Amplitude BRK, Normal&quot;;fill:#7d0046;fill-opacity:1;stroke-width:.954447">image</tspan></tspan></text></g><path d="m2335.488 293.73 1.917 215.14" style="fill:#ffafce;fill-opacity:1;stroke:#ffafce;stroke-width:5.66929;stroke-linecap:round;stroke-miterlimit:5.8;stroke-dasharray:none;stroke-opacity:1;marker-end:url(#i);paint-order:stroke fill markers" transform="rotate(90 2339.069 592.842)"/><path d="m2335.488 293.73 1.917 215.14" style="fill:none;fill-opacity:1;stroke:#001528;stroke-width:3.02362;stroke-linecap:round;stroke-miterlimit:5.8;stroke-dasharray:none;stroke-opacity:1;marker-end:url(#j);paint-order:stroke fill markers" transform="rotate(90 2339.069 592.842)"/><g transform="rotate(-.473 59997.255 -229100.67)"><rect width="90.864" height="51.54" x="564.991" y="82.46" rx="11.629" ry="13.5" style="opacity:1;fill:#74317f;fill-opacity:1;stroke:#ff46f0;stroke-width:2.13165;stroke-linecap:round;stroke-miterlimit:5.8;stroke-dasharray:none;stroke-opacity:1;paint-order:stroke fill markers"/><text xml:space="preserve" x="607.238" y="120.802" style="font-style:normal;font-variant:normal;font-weight:400;font-stretch:normal;font-size:49.1473px;line-height:1;font-family:&quot;Amplitude BRK&quot;;-inkscape-font-specification:&quot;Amplitude BRK, Normal&quot;;font-variant-ligatures:normal;font-variant-caps:normal;font-variant-numeric:normal;font-variant-east-asian:normal;text-align:center;letter-spacing:0;word-spacing:-5.65061px;writing-mode:lr-tb;direction:ltr;text-anchor:middle;opacity:1;fill:#deff4f;fill-opacity:1;stroke:#46ff4d;stroke-width:.954447;stroke-linecap:round;stroke-miterlimit:5.8;stroke-dasharray:none;stroke-opacity:1;paint-order:stroke fill markers"><tspan x="607.238" y="120.802" style="font-style:italic;font-variant:normal;font-weight:400;font-stretch:normal;font-size:49.1473px;font-family:&quot;Baskervald ADF Std&quot;;-inkscape-font-specification:&quot;Baskervald ADF Std, Italic&quot;;font-variant-ligatures:normal;font-variant-caps:normal;font-variant-numeric:normal;font-variant-east-asian:normal;fill:#deff4f;fill-opacity:1;stroke-width:.954447">0x…</tspan></text></g><text xml:space="preserve" x="-259.161" y="1879.764" style="font-style:normal;font-variant:normal;font-weight:400;font-stretch:normal;font-size:49.1473px;line-height:1;font-family:&quot;Amplitude BRK&quot;;-inkscape-font-specification:&quot;Amplitude BRK, Normal&quot;;font-variant-ligatures:normal;font-variant-caps:normal;font-variant-numeric:normal;font-variant-east-asian:normal;text-align:center;letter-spacing:0;word-spacing:-5.65061px;writing-mode:lr-tb;direction:ltr;text-anchor:middle;fill:#7d0046;fill-opacity:1;stroke:#46ff4d;stroke-width:.954447;stroke-linecap:round;stroke-miterlimit:5.8;stroke-dasharray:none;stroke-opacity:1;paint-order:stroke fill markers" transform="rotate(-33.905)"/><text xml:space="preserve" x="733" y="207" style="font-style:normal;font-variant:normal;font-weight:400;font-stretch:normal;font-size:109.765px;line-height:1;font-family:&quot;Amplitude BRK&quot;;-inkscape-font-specification:&quot;Amplitude BRK, Normal&quot;;font-variant-ligatures:normal;font-variant-caps:normal;font-variant-numeric:normal;font-variant-east-asian:normal;text-align:center;letter-spacing:0;word-spacing:-12.62px;writing-mode:lr-tb;direction:ltr;text-anchor:middle;opacity:1;fill:#010a7d;fill-opacity:1;stroke:#46ff4d;stroke-width:2.13165;stroke-linecap:round;stroke-miterlimit:5.8;stroke-dasharray:none;stroke-opacity:1;paint-order:stroke fill markers"/><path d="m2338.195 631.296 1.916 80.14" style="fill:none;fill-opacity:1;stroke:#84ff8e;stroke-width:5.66929;stroke-linecap:round;stroke-miterlimit:5.8;stroke-dasharray:none;stroke-opacity:1;marker-end:url(#k);paint-order:stroke fill markers"/><path d="m2338.195 631.296 1.916 80.14" style="fill:none;fill-opacity:1;stroke:#001528;stroke-width:3.02362;stroke-linecap:round;stroke-miterlimit:5.8;stroke-dasharray:none;stroke-opacity:1;marker-end:url(#l);paint-order:stroke fill markers"/><rect id="B" width="121.348" height="122.286" x="757" y="559" rx="28.702" ry="27.87" style="fill:#017d0e;fill-opacity:1" transform="translate(1520.052 172)"/><rect width="121.348" height="122.286" x="757" y="559" rx="28.702" ry="27.87" style="fill:#21017d;fill-opacity:1" transform="rotate(90 1592.02 1366.317)"/><rect width="121.348" height="122.286" x="757" y="559" rx="28.702" ry="27.87" style="fill:#7d4901;fill-opacity:1" transform="rotate(90 1737.32 1511.616)"/><rect width="121.348" height="122.286" x="757" y="559" rx="28.702" ry="27.87" style="fill:#42ffb8;fill-opacity:1" transform="translate(2997.985 300.1)"/><rect id="y" width="121.348" height="122.286" x="757" y="559" rx="28.702" ry="27.87" style="fill:#42ffb8;fill-opacity:1" transform="translate(2641.983 440.97)"/><g style="stroke:#002106;stroke-opacity:1;paint-order:fill markers stroke"><path fill="#fcea2b" d="M18.658 19.24a3.531 3.531 0 1 0-5.564 4.25l11.533 15.1 2.688 3.387-7.89-10.331a3.531 3.531 0 1 0-5.564 4.249l7.891 10.331 6.27 7.899c5.468 6.273 14.515 5.93 20.787.465a19.62 19.62 0 0 0 6.515-12.31c.386-4.233.807-15.301.807-15.301-.182-2.601-3.135-4.524-3.515-3.18l-4.894 9.757-3.366-4.223 3.366 4.223-3.366-4.223-13.465-17.208a3.531 3.531 0 1 0-5.563 4.249l4.249 5.563L36 30.417l-13.419-17.68a3.531 3.531 0 1 0-5.563 4.248L31.689 36" style="stroke:#002106;stroke-width:1.96455;stroke-linecap:round;stroke-linejoin:round;stroke-dasharray:none;stroke-opacity:1;paint-order:fill markers stroke" transform="translate(3387.643 988.345)scale(2.10863)"/></g><g style="fill:#6f6602;fill-opacity:1"><g style="fill:#6f6602;fill-opacity:1"><g style="fill:#6f6602;fill-opacity:1;stroke:#002106;stroke-opacity:1;paint-order:fill markers stroke"><path fill="#fcea2b" d="M18.658 19.24a3.531 3.531 0 1 0-5.564 4.25l11.533 15.1 2.688 3.387-7.89-10.331a3.531 3.531 0 1 0-5.564 4.249l7.891 10.331 6.27 7.899c5.468 6.273 14.515 5.93 20.787.465a19.62 19.62 0 0 0 6.515-12.31c.386-4.233.807-15.301.807-15.301-.182-2.601-3.135-4.524-3.515-3.18l-4.894 9.757-3.366-4.223 3.366 4.223-3.366-4.223-13.465-17.208a3.531 3.531 0 1 0-5.563 4.249l4.249 5.563L36 30.417l-13.419-17.68a3.531 3.531 0 1 0-5.563 4.248L31.689 36" style="fill:#6f6602;fill-opacity:1;stroke:#002106;stroke-width:1.96455;stroke-linecap:round;stroke-linejoin:round;stroke-dasharray:none;stroke-opacity:1;paint-order:fill markers stroke" transform="translate(3742.39 845.444)scale(2.17884)"/></g></g></g><path d="M-86.097 260.067c-2.964-.78-4.031-1.492-5.752.39-5.096 2.18-9.655.7-15.159.037l-5.75-.112 6.874-1.638c7.698-1.836 8.826-5.43 14.23-16.689 5.167-10.763 6.324-17.278 6.345-35.74.012-10.15-.385-17.156-1.007-17.778-.702-.702-3.19-.014-7.872 2.177-5.387 2.521-8.566 3.303-14.922 3.669-7.267.419-8.478.79-12.077 3.7-6.046 4.89-10.423 6.759-16.008 6.84-7.07.102-11.632-2.9-15.06-9.908-1.467-2.997-3.326-5.448-4.131-5.448s-4.466 1.31-8.133 2.911c-13.006 5.68-16.961 6.589-28.668 6.589-9.37 0-11.74-.342-16-2.304-13.425-6.185-18.454-19.113-13.622-35.019 2.303-7.582 9.636-19.434 15.544-25.124 5.006-4.82 4.666-5.899-1.842-5.84-11.137.1-16.58-7.137-16.58-22.044 0-24.02 17.192-47.719 37.699-51.967l3.801-.787.636-7.065c.803-8.94 2.871-13.272 8.94-18.728 7.09-6.375 15.14-9.13 26.554-9.09 8.459.03 9.668.3 16.467 3.675 4.035 2.003 7.655 3.446 8.043 3.206.389-.24 1.015-1.841 1.392-3.558.394-1.793 2.875-5.354 5.827-8.362 6.163-6.28 13.799-9.505 22.429-9.471 7.471.028 12.753 2.513 17.989 8.461l4.2 4.77 4.122-3.723c5.246-4.74 9.568-6.53 15.764-6.53 11.488 0 26.706 7.758 38.875 19.818 4.453 4.413 6.987 6.182 8.856 6.182 4.486 0 14.601 3 21.941 6.507 12.655 6.046 21.465 17.824 21.465 28.695 0 2.159.66 3.111 2.75 3.968C58.301 81.396 66.78 88.11 71.836 98.312c4.023 8.118 4.658 21.007 1.541 31.27-1.742 5.736-2.039 8.468-1.506 13.872.855 8.683-1.781 15.379-8.323 21.137-11.898 10.473-31.389 13.877-50.601 8.838l-8.148-2.137-11.493 4.595c-22.614 9.042-40.493 11.692-51.993 7.71-3.025-1.049-5.824-1.587-6.221-1.196-1.403 1.378-2.74 14.827-2.759 27.756-.022 14.367 3.942 25.562 5.993 31.62 1.35 3.984 2.719 7.71 4.89 11.132 2.568 3.885 4.916 4.26 8.66 8.705-4.09.152-6.167 1.762-8.412 1.033-2.244-.729-3.738-.899-5.679-2.098-11.698-2.912-17.075.378-23.882-.482" style="fill:#805b1d;fill-opacity:1" transform="translate(3486.06 605.46)scale(.34876)"/><path d="M-141.773 204.633c-4.877-1.52-7.866-4.27-10.506-9.665-1.453-2.97-3.302-5.401-4.107-5.401s-4.466 1.31-8.133 2.911c-13.006 5.68-16.961 6.589-28.668 6.589-9.37 0-11.74-.342-16-2.304-13.425-6.185-18.454-19.113-13.622-35.019 2.303-7.582 9.636-19.434 15.544-25.124 5.006-4.82 4.666-5.899-1.842-5.84-11.137.1-16.58-7.137-16.58-22.044 0-24.02 17.192-47.719 37.699-51.967l3.801-.787.636-7.065c.803-8.94 2.871-13.272 8.94-18.728 7.09-6.375 15.14-9.13 26.554-9.09 8.459.03 9.668.3 16.467 3.675 4.035 2.003 7.655 3.446 8.043 3.206.389-.24 1.015-1.841 1.392-3.559.394-1.792 2.875-5.353 5.827-8.36 6.163-6.281 13.799-9.506 22.429-9.473 7.471.03 12.753 2.514 17.989 8.462l4.2 4.77 4.122-3.723c5.246-4.74 9.568-6.53 15.764-6.53 11.488 0 26.706 7.758 38.875 19.818 4.453 4.413 6.987 6.182 8.856 6.182 4.486 0 14.601 3 21.941 6.506C30.503 48.12 39.313 59.898 39.313 70.77c0 2.159.66 3.111 2.75 3.968C58.301 81.396 66.78 88.11 71.836 98.312c4.023 8.118 4.658 21.007 1.541 31.27-1.742 5.736-2.039 8.468-1.506 13.872.855 8.683-1.781 15.379-8.323 21.137-11.898 10.473-31.389 13.877-50.601 8.838l-8.148-2.137-11.493 4.595c-21.7 8.676-39.423 11.523-50.768 8.154-5.992-1.78-6.746-2.62-5.118-5.704 4.921-9.315 20.95-25.783 44.8-46.027C-1.184 118.226.049 117.42 10.814 113.596c6.491-2.305 10.245-4.619 9.195-5.668-.362-.362-4.927.37-10.144 1.626-8.867 2.136-9.648 2.179-11.97.657-2.14-1.402-2.526-2.496-2.783-7.886-.271-5.703-.405-6.037-1.508-3.758-.666 1.375-2.176 6.325-3.356 11l-2.146 8.5-11.161 11c-15.39 15.168-30.91 25.14-36.052 23.167-2.08-.799-2.06-6.64.056-15.942 2.97-13.056 5.7-17.824 19.278-33.664 4.45-5.191 8.091-9.804 8.091-10.25 0-2.495-3.82.481-15 11.689-6.858 6.875-12.99 12.5-13.628 12.5-1.78 0-2.396-2.559-3.064-12.719-.338-5.144-.982-9.58-1.432-9.858-1.77-1.095-2.067 5.34-.878 19.048 1.359 15.662.831 20.215-3.479 30.029-3.95 8.996-6.312 9.274-12.076 1.42-6.984-9.513-7.703-13.184-8.538-43.633-.41-14.968-1.04-28.137-1.398-29.265-1.309-4.125-2.212-.838-2.853 10.378-.832 14.573-1.553 16.604-5.879 16.584-1.801-.008-5.075-.663-7.275-1.456-9.95-3.584-9.897-.392.06 3.624 3.817 1.54 7.728 3.76 8.69 4.934 2.377 2.9 2.244 9.45-.392 19.216l-2.142 7.94-5.305-.624c-10.308-1.211-28.166-8.79-31.036-13.169-.925-1.412-2.336-7.386-3.187-13.492-1.071-7.687-1.924-10.957-2.857-10.957-1.58 0-1.59.123-1.349 15.584l.189 12.085-12.271 8.415c-11.557 7.926-14.78 10.916-11.768 10.916.715 0 5.2-2.252 9.97-5.005 12.823-7.4 15.987-8.338 21.196-6.284 11.13 4.388 42.683 23.268 47.129 28.2 3.342 3.706 1.08 4.248-12.279 2.94-9.546-.934-12.47-.93-13.418.019-1.783 1.782.301 2.743 7.605 3.507 3.38.353 8.176 1.65 10.656 2.882 3.88 1.927 4.827 3.043 6.783 7.985 1.251 3.16 2.544 7.095 2.874 8.745.578 2.89.35 3.116-6.197 6.18-5.337 2.498-8.532 3.281-14.874 3.647-7.267.419-8.477.79-12.077 3.7-7.277 5.884-14.919 8.316-20.586 6.55" style="fill:#008925;fill-opacity:1" transform="translate(3486.06 605.46)scale(.34876)"/><use xlink:href="#m" transform="translate(382 137.5)"/><g transform="rotate(-.473 84265.119 -275485.43)"><circle cx="502.665" cy="104.868" r="5.75" style="fill:#0b1902;fill-opacity:1;stroke:#8ef7ff;stroke-width:5.66929;stroke-linecap:round;stroke-linejoin:round;stroke-miterlimit:5.8;stroke-dasharray:none;stroke-opacity:1;paint-order:fill markers stroke" transform="rotate(.473)"/><path d="m503.486-16.148-1.752 262.79" style="fill:none;fill-opacity:1;stroke:#8ef7ff;stroke-width:5.66929;stroke-linecap:round;stroke-miterlimit:5.8;stroke-dasharray:none;stroke-opacity:1;paint-order:stroke fill markers"/><g id="o" style="stroke:#ecff3b;stroke-width:5.66929;stroke-dasharray:none;stroke-opacity:1" transform="rotate(.473 110785.82 -265093.32)"><path d="m2694.858 884.316 215.14-1.917" style="fill:none;fill-opacity:1;stroke:#8ef7ff;stroke-width:5.66929;stroke-linecap:round;stroke-miterlimit:5.8;stroke-dasharray:none;stroke-opacity:1;marker-end:url(#n);paint-order:stroke fill markers"/><circle cx="2694.785" cy="883.75" r="5.75" style="fill:#0b1902;fill-opacity:1;stroke:#8ef7ff;stroke-width:5.66929;stroke-linecap:round;stroke-linejoin:round;stroke-miterlimit:5.8;stroke-dasharray:none;stroke-opacity:1;paint-order:fill markers stroke"/></g><use xlink:href="#o" style="stroke:#8ef7ff;stroke-width:5.66929;stroke-dasharray:none;stroke-opacity:1" transform="translate(-2.183 264.586)"/><path d="m470.74 109.323 246.26.116" style="fill:none;fill-opacity:1;stroke:#8ef7ff;stroke-width:5.66929;stroke-linecap:round;stroke-miterlimit:5.8;stroke-dasharray:none;stroke-opacity:1;marker-end:url(#p);paint-order:stroke fill markers"/><path d="m2663.745 884.316 246.253-1.917" style="fill:none;fill-opacity:1;stroke:#001528;stroke-width:2.64567;stroke-linecap:round;stroke-miterlimit:5.8;stroke-dasharray:none;stroke-opacity:1;marker-end:url(#q);paint-order:stroke fill markers" transform="rotate(.473 95481.075 -265252.65)"/><rect width="159.872" height="51.54" x="525" y="82.46" rx="11.629" ry="13.5" style="opacity:1;fill:#f61b02;fill-opacity:1;stroke:#ff46f0;stroke-width:2.13165;stroke-linecap:round;stroke-miterlimit:5.8;stroke-dasharray:none;stroke-opacity:1;paint-order:stroke fill markers"/><text xml:space="preserve" x="607.205" y="124.802" style="font-style:normal;font-variant:normal;font-weight:400;font-stretch:normal;font-size:49.1473px;line-height:1;font-family:&quot;Amplitude BRK&quot;;-inkscape-font-specification:&quot;Amplitude BRK, Normal&quot;;font-variant-ligatures:normal;font-variant-caps:normal;font-variant-numeric:normal;font-variant-east-asian:normal;text-align:center;letter-spacing:0;word-spacing:-5.65061px;writing-mode:lr-tb;direction:ltr;text-anchor:middle;opacity:1;fill:#7d0046;fill-opacity:1;stroke:#46ff4d;stroke-width:.954447;stroke-linecap:round;stroke-miterlimit:5.8;stroke-dasharray:none;stroke-opacity:1;paint-order:stroke fill markers"><tspan x="607.205" y="124.802" style="font-style:italic;font-variant:normal;font-weight:400;font-stretch:normal;font-size:49.1473px;font-family:&quot;Baskervald ADF Std&quot;;-inkscape-font-specification:&quot;Baskervald ADF Std, Italic&quot;;font-variant-ligatures:normal;font-variant-caps:normal;font-variant-numeric:normal;font-variant-east-asian:normal;fill:#7d0046;fill-opacity:1;stroke-width:.954447"><tspan style="font-style:normal;font-family:&quot;Amplitude BRK&quot;;-inkscape-font-specification:&quot;Amplitude BRK, Normal&quot;;fill:#7d0046;fill-opacity:1;stroke-width:.954447">phone</tspan></tspan></text></g><g id="s" transform="translate(84.853 -219.203)"><circle cx="2694.785" cy="883.75" r="5.75" style="fill:#0b1902;fill-opacity:1;stroke:#002106;stroke-width:3.08031;stroke-linecap:round;stroke-linejoin:round;stroke-miterlimit:5.8;paint-order:fill markers stroke"/><path d="m2694.858 884.316 215.14-1.917" style="fill:none;fill-opacity:1;stroke:#001528;stroke-width:2.64567;stroke-linecap:round;stroke-miterlimit:5.8;stroke-dasharray:none;stroke-opacity:1;marker-end:url(#r);paint-order:stroke fill markers"/></g><use xlink:href="#s" transform="translate(0 264.595)"/><path d="m2779.515 665.675.416 262.795" style="fill:none;fill-opacity:1;stroke:#001528;stroke-width:2.64567;stroke-linecap:round;stroke-miterlimit:5.8;stroke-dasharray:none;stroke-opacity:1;paint-order:stroke fill markers"/><g transform="rotate(-.473 -26520.703 -10392.103)"><rect width="159.872" height="51.54" x="2706.307" y="881.652" rx="11.629" ry="13.5" style="fill:#f61b02;fill-opacity:1;stroke:#ff46f0;stroke-width:2.13165;stroke-linecap:round;stroke-miterlimit:5.8;stroke-dasharray:none;stroke-opacity:1;paint-order:stroke fill markers"/><text xml:space="preserve" x="2787.536" y="920.986" style="font-style:normal;font-variant:normal;font-weight:400;font-stretch:normal;font-size:49.1473px;line-height:1;font-family:&quot;Amplitude BRK&quot;;-inkscape-font-specification:&quot;Amplitude BRK, Normal&quot;;font-variant-ligatures:normal;font-variant-caps:normal;font-variant-numeric:normal;font-variant-east-asian:normal;text-align:center;letter-spacing:0;word-spacing:-5.65061px;writing-mode:lr-tb;direction:ltr;text-anchor:middle;fill:#7d0046;fill-opacity:1;stroke:#46ff4d;stroke-width:.954447;stroke-linecap:round;stroke-miterlimit:5.8;stroke-dasharray:none;stroke-opacity:1;paint-order:stroke fill markers"><tspan x="2787.536" y="920.986" style="font-style:italic;font-variant:normal;font-weight:400;font-stretch:normal;font-size:49.1473px;font-family:&quot;Baskervald ADF Std&quot;;-inkscape-font-specification:&quot;Baskervald ADF Std, Italic&quot;;font-variant-ligatures:normal;font-variant-caps:normal;font-variant-numeric:normal;font-variant-east-asian:normal;fill:#7d0046;fill-opacity:1;stroke-width:.954447"><tspan style="font-style:normal;font-family:&quot;Amplitude BRK&quot;;-inkscape-font-specification:&quot;Amplitude BRK, Normal&quot;;fill:#7d0046;fill-opacity:1;stroke-width:.954447">tree</tspan></tspan></text></g><g transform="rotate(-.473 5241.893 -10685.185)"><rect width="159.872" height="51.54" x="2706.307" y="881.652" rx="11.629" ry="13.5" style="fill:#f61b02;fill-opacity:1;stroke:#ff46f0;stroke-width:2.13165;stroke-linecap:round;stroke-miterlimit:5.8;stroke-dasharray:none;stroke-opacity:1;paint-order:stroke fill markers"/><text xml:space="preserve" x="2788.495" y="925.994" style="font-style:normal;font-variant:normal;font-weight:400;font-stretch:normal;font-size:49.1473px;line-height:1;font-family:&quot;Amplitude BRK&quot;;-inkscape-font-specification:&quot;Amplitude BRK, Normal&quot;;font-variant-ligatures:normal;font-variant-caps:normal;font-variant-numeric:normal;font-variant-east-asian:normal;text-align:center;letter-spacing:0;word-spacing:-5.65061px;writing-mode:lr-tb;direction:ltr;text-anchor:middle;fill:#7d0046;fill-opacity:1;stroke:#46ff4d;stroke-width:.954447;stroke-linecap:round;stroke-miterlimit:5.8;stroke-dasharray:none;stroke-opacity:1;paint-order:stroke fill markers"><tspan x="2788.495" y="925.994" style="font-style:italic;font-variant:normal;font-weight:400;font-stretch:normal;font-size:49.1473px;font-family:&quot;Baskervald ADF Std&quot;;-inkscape-font-specification:&quot;Baskervald ADF Std, Italic&quot;;font-variant-ligatures:normal;font-variant-caps:normal;font-variant-numeric:normal;font-variant-east-asian:normal;fill:#7d0046;fill-opacity:1;stroke-width:.954447"><tspan style="font-style:normal;font-family:&quot;Amplitude BRK&quot;;-inkscape-font-specification:&quot;Amplitude BRK, Normal&quot;;fill:#7d0046;fill-opacity:1;stroke-width:.954447">hand</tspan></tspan></text></g><g transform="rotate(-.473 101118.7 -321537.92)"><path d="m2663.745 884.316 246.253-1.917" style="fill:none;fill-opacity:1;stroke:#001528;stroke-width:2.64567;stroke-linecap:round;stroke-miterlimit:5.8;stroke-dasharray:none;stroke-opacity:1;marker-end:url(#t);paint-order:stroke fill markers" transform="rotate(.473 95481.075 -265252.65)"/><rect width="159.872" height="51.54" x="525" y="82.46" rx="11.629" ry="13.5" style="opacity:1;fill:#f61b02;fill-opacity:1;stroke:#ff46f0;stroke-width:2.13165;stroke-linecap:round;stroke-miterlimit:5.8;stroke-dasharray:none;stroke-opacity:1;paint-order:stroke fill markers"/><text xml:space="preserve" x="607.205" y="124.802" style="font-style:normal;font-variant:normal;font-weight:400;font-stretch:normal;font-size:49.1473px;line-height:1;font-family:&quot;Amplitude BRK&quot;;-inkscape-font-specification:&quot;Amplitude BRK, Normal&quot;;font-variant-ligatures:normal;font-variant-caps:normal;font-variant-numeric:normal;font-variant-east-asian:normal;text-align:center;letter-spacing:0;word-spacing:-5.65061px;writing-mode:lr-tb;direction:ltr;text-anchor:middle;opacity:1;fill:#7d0046;fill-opacity:1;stroke:#46ff4d;stroke-width:.954447;stroke-linecap:round;stroke-miterlimit:5.8;stroke-dasharray:none;stroke-opacity:1;paint-order:stroke fill markers"><tspan x="607.205" y="124.802" style="font-style:italic;font-variant:normal;font-weight:400;font-stretch:normal;font-size:49.1473px;font-family:&quot;Baskervald ADF Std&quot;;-inkscape-font-specification:&quot;Baskervald ADF Std, Italic&quot;;font-variant-ligatures:normal;font-variant-caps:normal;font-variant-numeric:normal;font-variant-east-asian:normal;fill:#7d0046;fill-opacity:1;stroke-width:.954447"><tspan style="font-style:normal;font-family:&quot;Amplitude BRK&quot;;-inkscape-font-specification:&quot;Amplitude BRK, Normal&quot;;fill:#7d0046;fill-opacity:1;stroke-width:.954447">black</tspan></tspan></text></g><use xlink:href="#u" id="x" x="0" y="0" transform="translate(0 264.458)"/><path d="m3161.358 927.823.416 140.036" style="fill:none;fill-opacity:1;stroke:#001528;stroke-width:2.64567;stroke-linecap:round;stroke-miterlimit:5.8;stroke-dasharray:none;stroke-opacity:1;paint-order:stroke fill markers"/><g transform="translate(466.726 168.632)"><path d="m2694.858 900.316 214.717-1.917" style="fill:none;fill-opacity:1;stroke:#001528;stroke-width:2.64567;stroke-linecap:round;stroke-miterlimit:5.8;stroke-dasharray:none;stroke-opacity:1;marker-end:url(#v);paint-order:stroke fill markers"/><circle cx="2694.785" cy="900" r="5.75" style="fill:#0b1902;fill-opacity:1;stroke:#002106;stroke-width:3.08031;stroke-linecap:round;stroke-linejoin:round;stroke-miterlimit:5.8;paint-order:fill markers stroke"/></g><g transform="rotate(-.473 22167.912 -56682.537)"><rect width="159.872" height="51.54" x="2706.307" y="881.652" rx="11.629" ry="13.5" style="fill:#9596fe;fill-opacity:1;stroke:#8a007f;stroke-width:2.13165;stroke-linecap:round;stroke-miterlimit:5.8;stroke-dasharray:none;stroke-opacity:1;paint-order:stroke fill markers"/><text xml:space="preserve" x="2785.626" y="916.232" style="font-style:normal;font-variant:normal;font-weight:400;font-stretch:normal;font-size:58.6529px;line-height:1;font-family:&quot;Amplitude BRK&quot;;-inkscape-font-specification:&quot;Amplitude BRK, Normal&quot;;font-variant-ligatures:normal;font-variant-caps:normal;font-variant-numeric:normal;font-variant-east-asian:normal;text-align:center;letter-spacing:0;word-spacing:-6.7435px;writing-mode:lr-tb;direction:ltr;text-anchor:middle;fill:#620037;fill-opacity:1;stroke:#46ff4d;stroke-width:1.13905;stroke-linecap:round;stroke-miterlimit:5.8;stroke-dasharray:none;stroke-opacity:1;paint-order:stroke fill markers"><tspan x="2785.626" y="916.232" style="font-style:normal;font-variant:normal;font-weight:400;font-stretch:normal;font-size:58.6529px;font-family:&quot;Bewilder Thick BRK&quot;;-inkscape-font-specification:&quot;Bewilder Thick BRK, Normal&quot;;font-variant-ligatures:normal;font-variant-caps:normal;font-variant-numeric:normal;font-variant-east-asian:normal;fill:#620037;fill-opacity:1;stroke:#465eff;stroke-width:1.13905;stroke-opacity:1">svg</tspan></text></g><path d="m2671.858 900.316 223.717-1.917" style="fill:none;fill-opacity:1;stroke:#001528;stroke-width:2.64567;stroke-linecap:round;stroke-miterlimit:5.8;stroke-dasharray:none;stroke-opacity:1;marker-end:url(#w);paint-order:stroke fill markers" transform="translate(838.54 20.632)"/><g transform="rotate(-.473 4412.114 -100116.57)"><rect width="159.872" height="51.54" x="2706.307" y="881.652" rx="11.629" ry="13.5" style="fill:#9596fe;fill-opacity:1;stroke:#8a007f;stroke-width:2.13165;stroke-linecap:round;stroke-miterlimit:5.8;stroke-dasharray:none;stroke-opacity:1;paint-order:stroke fill markers"/><text xml:space="preserve" x="2785.626" y="916.232" style="font-style:normal;font-variant:normal;font-weight:400;font-stretch:normal;font-size:58.6529px;line-height:1;font-family:&quot;Amplitude BRK&quot;;-inkscape-font-specification:&quot;Amplitude BRK, Normal&quot;;font-variant-ligatures:normal;font-variant-caps:normal;font-variant-numeric:normal;font-variant-east-asian:normal;text-align:center;letter-spacing:0;word-spacing:-6.7435px;writing-mode:lr-tb;direction:ltr;text-anchor:middle;fill:#620037;fill-opacity:1;stroke:#46ff4d;stroke-width:1.13905;stroke-linecap:round;stroke-miterlimit:5.8;stroke-dasharray:none;stroke-opacity:1;paint-order:stroke fill markers"><tspan x="2785.626" y="916.232" style="font-style:normal;font-variant:normal;font-weight:400;font-stretch:normal;font-size:58.6529px;font-family:&quot;Bewilder Thick BRK&quot;;-inkscape-font-specification:&quot;Bewilder Thick BRK, Normal&quot;;font-variant-ligatures:normal;font-variant-caps:normal;font-variant-numeric:normal;font-variant-east-asian:normal;fill:#620037;fill-opacity:1;stroke:#465eff;stroke-width:1.13905;stroke-opacity:1">svg</tspan></text></g><use xlink:href="#x" transform="translate(381)"/><use xlink:href="#y" id="f" x="0" y="0" transform="translate(0 -276)"/><path d="m2669.358 900.316 240.217-1.917" style="fill:none;fill-opacity:1;stroke:#001528;stroke-width:2.64567;stroke-linecap:round;stroke-miterlimit:5.8;stroke-dasharray:none;stroke-opacity:1;marker-end:url(#z);paint-order:stroke fill markers" transform="translate(465.54 -111.368)"/><g transform="rotate(-.473 -11763.205 -56678.79)"><rect width="159.872" height="51.54" x="2706.307" y="881.652" rx="11.629" ry="13.5" style="fill:#9596fe;fill-opacity:1;stroke:#8a007f;stroke-width:2.13165;stroke-linecap:round;stroke-miterlimit:5.8;stroke-dasharray:none;stroke-opacity:1;paint-order:stroke fill markers"/><text xml:space="preserve" x="2785.626" y="916.232" style="font-style:normal;font-variant:normal;font-weight:400;font-stretch:normal;font-size:58.6529px;line-height:1;font-family:&quot;Amplitude BRK&quot;;-inkscape-font-specification:&quot;Amplitude BRK, Normal&quot;;font-variant-ligatures:normal;font-variant-caps:normal;font-variant-numeric:normal;font-variant-east-asian:normal;text-align:center;letter-spacing:0;word-spacing:-6.7435px;writing-mode:lr-tb;direction:ltr;text-anchor:middle;fill:#620037;fill-opacity:1;stroke:#46ff4d;stroke-width:1.13905;stroke-linecap:round;stroke-miterlimit:5.8;stroke-dasharray:none;stroke-opacity:1;paint-order:stroke fill markers"><tspan x="2785.626" y="916.232" style="font-style:normal;font-variant:normal;font-weight:400;font-stretch:normal;font-size:58.6529px;font-family:&quot;Bewilder Thick BRK&quot;;-inkscape-font-specification:&quot;Bewilder Thick BRK, Normal&quot;;font-variant-ligatures:normal;font-variant-caps:normal;font-variant-numeric:normal;font-variant-east-asian:normal;fill:#620037;fill-opacity:1;stroke:#465eff;stroke-width:1.13905;stroke-opacity:1">svg</tspan></text></g><path d="m3130.648 660.948 246.467-1.917" style="fill:none;fill-opacity:1;stroke:#001528;stroke-width:2.64567;stroke-linecap:round;stroke-miterlimit:5.8;stroke-dasharray:none;stroke-opacity:1;marker-end:url(#A);paint-order:stroke fill markers"/><rect width="159.872" height="51.54" x="3177.477" y="658.533" rx="11.629" ry="13.5" style="fill:#9596fe;fill-opacity:1;stroke:#8a007f;stroke-width:2.13165;stroke-linecap:round;stroke-miterlimit:5.8;stroke-dasharray:none;stroke-opacity:1;paint-order:stroke fill markers" transform="rotate(-.473)"/><text xml:space="preserve" x="3256.797" y="693.112" style="font-style:normal;font-variant:normal;font-weight:400;font-stretch:normal;font-size:58.6529px;line-height:1;font-family:&quot;Amplitude BRK&quot;;-inkscape-font-specification:&quot;Amplitude BRK, Normal&quot;;font-variant-ligatures:normal;font-variant-caps:normal;font-variant-numeric:normal;font-variant-east-asian:normal;text-align:center;letter-spacing:0;word-spacing:-6.7435px;writing-mode:lr-tb;direction:ltr;text-anchor:middle;fill:#620037;fill-opacity:1;stroke:#46ff4d;stroke-width:1.13905;stroke-linecap:round;stroke-miterlimit:5.8;stroke-dasharray:none;stroke-opacity:1;paint-order:stroke fill markers" transform="rotate(-.473)"><tspan x="3256.797" y="693.112" style="font-style:normal;font-variant:normal;font-weight:400;font-stretch:normal;font-size:58.6529px;font-family:&quot;Bewilder Thick BRK&quot;;-inkscape-font-specification:&quot;Bewilder Thick BRK, Normal&quot;;font-variant-ligatures:normal;font-variant-caps:normal;font-variant-numeric:normal;font-variant-east-asian:normal;fill:#620037;fill-opacity:1;stroke:#465eff;stroke-width:1.13905;stroke-opacity:1">svg</tspan></text><use xlink:href="#B" transform="translate(740.394 -1.373)"/><use xlink:href="#B" id="u" x="0" y="0" transform="translate(738.909 -132.936)"/><g transform="translate(3409.035 749)scale(.07757)"><rect width="462.377" height="465.724" x="445.214" y="352.789" ry="8.387" style="fill:#b9c936;fill-opacity:1;fill-rule:evenodd;stroke:#041b01;stroke-width:1.60868;stroke-linecap:round;stroke-linejoin:round;stroke-opacity:.423029"/><path d="m617.12 439.911 41.71.5 41.75.51c.34 20.86.68 41.72 1.03 62.58h-84.49zm-146.99 1.02h84.44c.34 20.86.69 41.72 1.03 62.57h-86.49zm291.85 0h84.44c.34 20.86.68 41.72 1.03 62.57-29.86-1.05-56.08 2.1-85.63-1.88-1.21-20.14.06-40.47.16-60.69m-292.79 100.54h86.33v61.61h-86.33zm147.93 0h84.41v61.61h-84.41zm143.91 0h86.34v61.61h-86.34zm-287.079 99.58h86.33v61.61h-86.33zm143.169 0h84.41v61.61h-84.41zm143.91 0h86.34v61.61h-86.34zm-291.84 101.06h86.33v61.61h-86.33zm147.93 0h84.41v61.61h-84.41zm143.91 0h86.34v61.61h-86.34Zm-275.65-518.28c-18.75-.05-37.77.58-56.37.16l-1 1v146.08c-72.93 117.03-160.29 232.4-230.47 351.12-19.3 32.3-35.58 67.44-37.86 105.57-5.81 66.2-5.43 132.74-5.53 199.14 31.64 2.3 65.07.3 97.39 1h910.06c2.3-31.59.3-64.99 1-97.28-1.3-47.7 2.2-96.38-8.6-143.23-14.4-42.77-41.3-79.9-63.6-118.78-62-101.41-137.01-202.02-199.76-302.99v-140.63c-29.06-2.33-59.92-.33-89.68-1-2.33 31.63-.33 65.06-1 97.39v37.55H518.69v-133.94c-10.9-.87-22.05-1.14-33.31-1.16" style="fill:#3641c9;fill-opacity:1;stroke:#041b01;stroke-width:24.3852;stroke-linecap:round;stroke-linejoin:round;stroke-miterlimit:4;stroke-dasharray:none;stroke-opacity:.989737" transform="translate(1.763 -51.603)"/><path d="M654.09 63.789c-6.5 0-12.97.05-19.38.106-187.11 1.219-385.87 5.181-551.58 93.701-63.686 54.65-63.996 143.05-72.183 226.19 0 0-1.521 35.21 1.576 52.19 6.332 33.42 37.985 56.13 70.651 59.18 58.476 3.76 121.86-1.68 171.2-36.26 26.96-19.25 36.05-53.86 34.88-85.49l.67-78.1c.73-28.44 12.93-56.18 34.41-75.15 37.17-36.99 90.51-50.068 140.32-60.188 64.34-12.14 129.77-14.341 195.15-13.816 65.39-.525 130.82 1.677 195.16 13.816 49.81 10.12 103.15 23.2 140.32 60.19 21.52 18.97 33.72 46.71 34.42 75.15l.7 78.1c-1.2 31.63 7.9 66.24 34.8 85.49 49.4 34.58 112.8 40.02 171.2 36.26 32.7-3.05 64.4-25.76 70.7-59.18 3.1-16.98 1.6-52.19 1.6-52.19-8.2-83.14-8.5-171.54-72.2-226.19-165.7-88.52-364.49-92.484-551.6-93.703q-9.63-.084-19.38-.106c-1.89-.004-3.82.007-5.72.006-1.9 0-3.82-.006-5.71-.006z" style="fill:#c99236;fill-opacity:1;stroke:#041b01;stroke-width:24.3852;stroke-linecap:round;stroke-linejoin:round;stroke-miterlimit:4;stroke-dasharray:none;stroke-opacity:.989737" transform="translate(1.763 -51.603)"/></g><use xlink:href="#B" transform="translate(357.796)"/><circle id="m" cx="2778.845" cy="790.845" r="5.75" style="fill:#0b1902;fill-opacity:1;stroke:#002106;stroke-width:3.08031;stroke-linecap:round;stroke-linejoin:round;stroke-miterlimit:5.8;paint-order:fill markers stroke"/></g></svg>