<svg xmlns="http://www.w3.org/2000/svg" xmlns:xlink="http://www.w3.org/1999/xlink" xml:space="preserve" viewBox="0 0 1246.5 517.697"><defs><marker id="e" markerHeight="2" markerWidth="2" orient="auto-start-reverse" preserveAspectRatio="xMidYMid" refX="0" refY="0" style="overflow:visible" viewBox="0 0 1 1"><path d="M6 0C3 1-1 3-3 5c0 0 0-4 2-5-2-1-2-5-2-5 2 2 6 4 9 5z" style="fill:context-stroke;fill-rule:evenodd;stroke:context-stroke;stroke-width:1pt" transform="scale(.5)"/></marker><marker id="p" markerHeight="2" markerWidth="2" orient="auto-start-reverse" preserveAspectRatio="xMidYMid" refX="0" refY="0" style="overflow:visible" viewBox="0 0 1 1"><path d="M6 0C3 1-1 3-3 5c0 0 0-4 2-5-2-1-2-5-2-5 2 2 6 4 9 5z" style="fill:context-stroke;fill-rule:evenodd;stroke:context-stroke;stroke-width:1pt" transform="scale(.5)"/></marker><marker id="o" markerHeight="2" markerWidth="2" orient="auto-start-reverse" preserveAspectRatio="xMidYMid" refX="0" refY="0" style="overflow:visible" viewBox="0 0 1 1"><path d="M6 0C3 1-1 3-3 5c0 0 0-4 2-5-2-1-2-5-2-5 2 2 6 4 9 5z" style="fill:context-stroke;fill-rule:evenodd;stroke:context-stroke;stroke-width:1pt" transform="scale(.5)"/></marker><marker id="r" markerHeight="2" markerWidth="2" orient="auto-start-reverse" preserveAspectRatio="xMidYMid" refX="0" refY="0" style="overflow:visible" viewBox="0 0 1 1"><path d="M6 0C3 1-1 3-3 5c0 0 0-4 2-5-2-1-2-5-2-5 2 2 6 4 9 5z" style="fill:context-stroke;fill-rule:evenodd;stroke:context-stroke;stroke-width:1pt" transform="scale(.5)"/></marker><marker id="s" markerHeight="2" markerWidth="2" orient="auto-start-reverse" preserveAspectRatio="xMidYMid" refX="0" refY="0" style="overflow:visible" viewBox="0 0 1 1"><path d="M6 0C3 1-1 3-3 5c0 0 0-4 2-5-2-1-2-5-2-5 2 2 6 4 9 5z" style="fill:context-stroke;fill-rule:evenodd;stroke:context-stroke;stroke-width:1pt" transform="scale(.5)"/></marker><marker id="d" markerHeight="2" markerWidth="2" orient="auto-start-reverse" preserveAspectRatio="xMidYMid" refX="0" refY="0" style="overflow:visible" viewBox="0 0 1 1"><path d="M6 0C3 1-1 3-3 5c0 0 0-4 2-5-2-1-2-5-2-5 2 2 6 4 9 5z" style="fill:context-stroke;fill-rule:evenodd;stroke:context-stroke;stroke-width:1pt" transform="scale(.5)"/></marker><marker id="n" markerHeight="2" markerWidth="2" orient="auto-start-reverse" preserveAspectRatio="xMidYMid" refX="0" refY="0" style="overflow:visible" viewBox="0 0 1 1"><path d="M6 0C3 1-1 3-3 5c0 0 0-4 2-5-2-1-2-5-2-5 2 2 6 4 9 5z" style="fill:context-stroke;fill-rule:evenodd;stroke:context-stroke;stroke-width:1pt" transform="scale(.5)"/></marker><marker id="m" markerHeight="2" markerWidth="2" orient="auto-start-reverse" preserveAspectRatio="xMidYMid" refX="0" refY="0" style="overflow:visible" viewBox="0 0 1 1"><path d="M6 0C3 1-1 3-3 5c0 0 0-4 2-5-2-1-2-5-2-5 2 2 6 4 9 5z" style="fill:context-stroke;fill-rule:evenodd;stroke:context-stroke;stroke-width:1pt" transform="scale(.5)"/></marker><marker id="b" markerHeight="2" markerWidth="2" orient="auto-start-reverse" preserveAspectRatio="xMidYMid" refX="0" refY="0" style="overflow:visible" viewBox="0 0 1 1"><path d="M6 0C3 1-1 3-3 5c0 0 0-4 2-5-2-1-2-5-2-5 2 2 6 4 9 5z" style="fill:context-stroke;fill-rule:evenodd;stroke:context-stroke;stroke-width:1pt" transform="scale(.5)"/></marker><marker id="a" markerHeight="2" markerWidth="2" orient="auto-start-reverse" preserveAspectRatio="xMidYMid" refX="0" refY="0" style="overflow:visible" viewBox="0 0 1 1"><path d="M6 0C3 1-1 3-3 5c0 0 0-4 2-5-2-1-2-5-2-5 2 2 6 4 9 5z" style="fill:context-stroke;fill-rule:evenodd;stroke:context-stroke;stroke-width:1pt" transform="scale(.5)"/></marker><marker id="h" markerHeight="2" markerWidth="2" orient="auto-start-reverse" preserveAspectRatio="xMidYMid" refX="0" refY="0" style="overflow:visible" viewBox="0 0 1 1"><path d="M6 0C3 1-1 3-3 5c0 0 0-4 2-5-2-1-2-5-2-5 2 2 6 4 9 5z" style="fill:context-stroke;fill-rule:evenodd;stroke:context-stroke;stroke-width:1pt" transform="scale(.5)"/></marker><marker id="i" markerHeight="2" markerWidth="2" orient="auto-start-reverse" preserveAspectRatio="xMidYMid" refX="0" refY="0" style="overflow:visible" viewBox="0 0 1 1"><path d="M6 0C3 1-1 3-3 5c0 0 0-4 2-5-2-1-2-5-2-5 2 2 6 4 9 5z" style="fill:context-stroke;fill-rule:evenodd;stroke:context-stroke;stroke-width:1pt" transform="scale(.5)"/></marker><marker id="f" markerHeight="2" markerWidth="2" orient="auto-start-reverse" preserveAspectRatio="xMidYMid" refX="0" refY="0" style="overflow:visible" viewBox="0 0 1 1"><path d="M6 0C3 1-1 3-3 5c0 0 0-4 2-5-2-1-2-5-2-5 2 2 6 4 9 5z" style="fill:context-stroke;fill-rule:evenodd;stroke:context-stroke;stroke-width:1pt" transform="scale(.5)"/></marker><marker id="g" markerHeight="2" markerWidth="2" orient="auto-start-reverse" preserveAspectRatio="xMidYMid" refX="0" refY="0" style="overflow:visible" viewBox="0 0 1 1"><path d="M6 0C3 1-1 3-3 5c0 0 0-4 2-5-2-1-2-5-2-5 2 2 6 4 9 5z" style="fill:context-stroke;fill-rule:evenodd;stroke:context-stroke;stroke-width:1pt" transform="scale(.5)"/></marker><marker id="k" markerHeight="2" markerWidth="2" orient="auto-start-reverse" preserveAspectRatio="xMidYMid" refX="0" refY="0" style="overflow:visible" viewBox="0 0 1 1"><path d="M6 0C3 1-1 3-3 5c0 0 0-4 2-5-2-1-2-5-2-5 2 2 6 4 9 5z" style="fill:context-stroke;fill-rule:evenodd;stroke:context-stroke;stroke-width:1pt" transform="scale(.5)"/></marker><marker id="l" markerHeight="2" markerWidth="2" orient="auto-start-reverse" preserveAspectRatio="xMidYMid" refX="0" refY="0" style="overflow:visible" viewBox="0 0 1 1"><path d="M6 0C3 1-1 3-3 5c0 0 0-4 2-5-2-1-2-5-2-5 2 2 6 4 9 5z" style="fill:context-stroke;fill-rule:evenodd;stroke:context-stroke;stroke-width:1pt" transform="scale(.5)"/></marker><marker id="j" markerHeight="2" markerWidth="2" orient="auto-start-reverse" preserveAspectRatio="xMidYMid" refX="0" refY="0" style="overflow:visible" viewBox="0 0 1 1"><path d="M6 0C3 1-1 3-3 5c0 0 0-4 2-5-2-1-2-5-2-5 2 2 6 4 9 5z" style="fill:context-stroke;fill-rule:evenodd;stroke:context-stroke;stroke-width:1pt" transform="scale(.5)"/></marker><marker id="q" markerHeight="2" markerWidth="2" orient="auto-start-reverse" preserveAspectRatio="xMidYMid" refX="0" refY="0" style="overflow:visible" viewBox="0 0 1 1"><path d="M6 0C3 1-1 3-3 5c0 0 0-4 2-5-2-1-2-5-2-5 2 2 6 4 9 5z" style="fill:context-stroke;fill-rule:evenodd;stroke:context-stroke;stroke-width:1pt" transform="scale(.5)"/></marker><marker id="t" markerHeight="2" markerWidth="2" orient="auto-start-reverse" preserveAspectRatio="xMidYMid" refX="0" refY="0" style="overflow:visible" viewBox="0 0 1 1"><path d="M6 0C3 1-1 3-3 5c0 0 0-4 2-5-2-1-2-5-2-5 2 2 6 4 9 5z" style="fill:context-stroke;fill-rule:evenodd;stroke:context-stroke;stroke-width:1pt" transform="scale(.5)"/></marker><marker id="v" markerHeight="2" markerWidth="2" orient="auto-start-reverse" preserveAspectRatio="xMidYMid" refX="0" refY="0" style="overflow:visible" viewBox="0 0 1 1"><path d="M6 0C3 1-1 3-3 5c0 0 0-4 2-5-2-1-2-5-2-5 2 2 6 4 9 5z" style="fill:context-stroke;fill-rule:evenodd;stroke:context-stroke;stroke-width:1pt" transform="scale(.5)"/></marker><marker id="w" markerHeight="2" markerWidth="2" orient="auto-start-reverse" preserveAspectRatio="xMidYMid" refX="0" refY="0" style="overflow:visible" viewBox="0 0 1 1"><path d="M6 0C3 1-1 3-3 5c0 0 0-4 2-5-2-1-2-5-2-5 2 2 6 4 9 5z" style="fill:context-stroke;fill-rule:evenodd;stroke:context-stroke;stroke-width:1pt" transform="scale(.5)"/></marker><marker id="x" markerHeight="2" markerWidth="2" orient="auto-start-reverse" preserveAspectRatio="xMidYMid" refX="0" refY="0" style="overflow:visible" viewBox="0 0 1 1"><path d="M6 0C3 1-1 3-3 5c0 0 0-4 2-5-2-1-2-5-2-5 2 2 6 4 9 5z" style="fill:context-stroke;fill-rule:evenodd;stroke:context-stroke;stroke-width:1pt" transform="scale(.5)"/></marker></defs><g transform="translate(-2273.831 -539.413)"><path d="m3134.854 918.554 240.217-1.917" style="fill:none;fill-opacity:1;stroke:#ecff3b;stroke-width:5.66929;stroke-linecap:round;stroke-miterlimit:5.8;stroke-dasharray:none;stroke-opacity:1;marker-end:url(#a);paint-order:stroke fill markers"/><path d="m3131.127 791.028 246.467-1.916" style="fill:none;fill-opacity:1;stroke:#ecff3b;stroke-width:5.66929;stroke-linecap:round;stroke-miterlimit:5.8;stroke-dasharray:none;stroke-opacity:1;marker-end:url(#b);paint-order:stroke fill markers"/><use xlink:href="#c" transform="translate(0 -132)"/><path d="m2396.938 794.483 215.14-1.917" style="fill:none;fill-opacity:1;stroke:#8ef7ff;stroke-width:5.66929;stroke-linecap:round;stroke-miterlimit:5.8;stroke-dasharray:none;stroke-opacity:1;marker-end:url(#d);paint-order:stroke fill markers"/><path d="m2396.938 794.483 215.14-1.917" style="fill:none;fill-opacity:1;stroke:#001528;stroke-width:3.02362;stroke-linecap:round;stroke-miterlimit:5.8;stroke-dasharray:none;stroke-opacity:1;marker-end:url(#e);paint-order:stroke fill markers"/><g transform="rotate(-.473 84473.651 -228869.152)"><rect width="159.872" height="51.54" x="525" y="82.46" rx="11.629" ry="13.5" style="opacity:1;fill:#f61b02;fill-opacity:1;stroke:#ff46f0;stroke-width:2.13165;stroke-linecap:round;stroke-miterlimit:5.8;stroke-dasharray:none;stroke-opacity:1;paint-order:stroke fill markers"/><text xml:space="preserve" x="607.238" y="120.802" style="font-style:normal;font-variant:normal;font-weight:400;font-stretch:normal;font-size:49.1473px;line-height:1;font-family:&quot;Amplitude BRK&quot;;-inkscape-font-specification:&quot;Amplitude BRK, Normal&quot;;font-variant-ligatures:normal;font-variant-caps:normal;font-variant-numeric:normal;font-variant-east-asian:normal;text-align:center;letter-spacing:0;word-spacing:-5.65061px;writing-mode:lr-tb;direction:ltr;text-anchor:middle;opacity:1;fill:#7d0046;fill-opacity:1;stroke:#46ff4d;stroke-width:.954447;stroke-linecap:round;stroke-miterlimit:5.8;stroke-dasharray:none;stroke-opacity:1;paint-order:stroke fill markers"><tspan x="607.238" y="120.802" style="font-style:italic;font-variant:normal;font-weight:400;font-stretch:normal;font-size:49.1473px;font-family:&quot;Baskervald ADF Std&quot;;-inkscape-font-specification:&quot;Baskervald ADF Std, Italic&quot;;font-variant-ligatures:normal;font-variant-caps:normal;font-variant-numeric:normal;font-variant-east-asian:normal;fill:#7d0046;fill-opacity:1;stroke-width:.954447"><tspan style="font-style:normal;font-family:&quot;Amplitude BRK&quot;;-inkscape-font-specification:&quot;Amplitude BRK, Normal&quot;;fill:#7d0046;fill-opacity:1;stroke-width:.954447">image</tspan></tspan></text></g><path d="m2335.488 293.73 1.917 215.14" style="fill:#ffafce;fill-opacity:1;stroke:#ffafce;stroke-width:5.66929;stroke-linecap:round;stroke-miterlimit:5.8;stroke-dasharray:none;stroke-opacity:1;marker-end:url(#f);paint-order:stroke fill markers" transform="rotate(90 2136.836 795.074)"/><path d="m2335.488 293.73 1.917 215.14" style="fill:none;fill-opacity:1;stroke:#001528;stroke-width:3.02362;stroke-linecap:round;stroke-miterlimit:5.8;stroke-dasharray:none;stroke-opacity:1;marker-end:url(#g);paint-order:stroke fill markers" transform="rotate(90 2136.836 795.074)"/><g transform="rotate(-.473 109010.516 -228898.44)"><rect width="90.864" height="51.54" x="564.991" y="82.46" rx="11.629" ry="13.5" style="opacity:1;fill:#74317f;fill-opacity:1;stroke:#ff46f0;stroke-width:2.13165;stroke-linecap:round;stroke-miterlimit:5.8;stroke-dasharray:none;stroke-opacity:1;paint-order:stroke fill markers"/><text xml:space="preserve" x="607.238" y="120.802" style="font-style:normal;font-variant:normal;font-weight:400;font-stretch:normal;font-size:49.1473px;line-height:1;font-family:&quot;Amplitude BRK&quot;;-inkscape-font-specification:&quot;Amplitude BRK, Normal&quot;;font-variant-ligatures:normal;font-variant-caps:normal;font-variant-numeric:normal;font-variant-east-asian:normal;text-align:center;letter-spacing:0;word-spacing:-5.65061px;writing-mode:lr-tb;direction:ltr;text-anchor:middle;opacity:1;fill:#deff4f;fill-opacity:1;stroke:#46ff4d;stroke-width:.954447;stroke-linecap:round;stroke-miterlimit:5.8;stroke-dasharray:none;stroke-opacity:1;paint-order:stroke fill markers"><tspan x="607.238" y="120.802" style="font-style:italic;font-variant:normal;font-weight:400;font-stretch:normal;font-size:49.1473px;font-family:&quot;Baskervald ADF Std&quot;;-inkscape-font-specification:&quot;Baskervald ADF Std, Italic&quot;;font-variant-ligatures:normal;font-variant-caps:normal;font-variant-numeric:normal;font-variant-east-asian:normal;fill:#deff4f;fill-opacity:1;stroke-width:.954447">0x…</tspan></text></g><text xml:space="preserve" x="-259.161" y="1879.764" style="font-style:normal;font-variant:normal;font-weight:400;font-stretch:normal;font-size:49.1473px;line-height:1;font-family:&quot;Amplitude BRK&quot;;-inkscape-font-specification:&quot;Amplitude BRK, Normal&quot;;font-variant-ligatures:normal;font-variant-caps:normal;font-variant-numeric:normal;font-variant-east-asian:normal;text-align:center;letter-spacing:0;word-spacing:-5.65061px;writing-mode:lr-tb;direction:ltr;text-anchor:middle;fill:#7d0046;fill-opacity:1;stroke:#46ff4d;stroke-width:.954447;stroke-linecap:round;stroke-miterlimit:5.8;stroke-dasharray:none;stroke-opacity:1;paint-order:stroke fill markers" transform="rotate(-33.905)"/><text xml:space="preserve" x="733" y="207" style="font-style:normal;font-variant:normal;font-weight:400;font-stretch:normal;font-size:109.765px;line-height:1;font-family:&quot;Amplitude BRK&quot;;-inkscape-font-specification:&quot;Amplitude BRK, Normal&quot;;font-variant-ligatures:normal;font-variant-caps:normal;font-variant-numeric:normal;font-variant-east-asian:normal;text-align:center;letter-spacing:0;word-spacing:-12.62px;writing-mode:lr-tb;direction:ltr;text-anchor:middle;opacity:1;fill:#010a7d;fill-opacity:1;stroke:#46ff4d;stroke-width:2.13165;stroke-linecap:round;stroke-miterlimit:5.8;stroke-dasharray:none;stroke-opacity:1;paint-order:stroke fill markers"/><path d="m2336.791 961.032-1.916-80.14" style="fill:none;fill-opacity:1;stroke:#84ff8e;stroke-width:5.66929;stroke-linecap:round;stroke-miterlimit:5.8;stroke-dasharray:none;stroke-opacity:1;marker-end:url(#h);paint-order:stroke fill markers"/><path d="m2336.791 961.032-1.916-80.14" style="fill:none;fill-opacity:1;stroke:#001528;stroke-width:3.02362;stroke-linecap:round;stroke-miterlimit:5.8;stroke-dasharray:none;stroke-opacity:1;marker-end:url(#i);paint-order:stroke fill markers"/><path d="m2332.124 556.33 1.917 152.55" style="fill:none;fill-opacity:1;stroke:#ff783b;stroke-width:5.66929;stroke-linecap:round;stroke-miterlimit:5.8;stroke-dasharray:none;stroke-opacity:1;marker-end:url(#j);paint-order:stroke fill markers"/><rect id="u" width="121.348" height="122.286" x="757" y="559" rx="28.702" ry="27.87" style="fill:#017d0e;fill-opacity:1" transform="translate(1520.052 172)"/><rect width="121.348" height="122.286" x="757" y="559" rx="28.702" ry="27.87" style="fill:#21017d;fill-opacity:1" transform="rotate(90 1389.788 1568.55)"/><rect width="121.348" height="122.286" x="757" y="559" rx="28.702" ry="27.87" style="fill:#7d4901;fill-opacity:1" transform="rotate(90 1535.088 1713.849)"/><path d="m2393.718 604.414 215.14-1.917" style="fill:none;fill-opacity:1;stroke:#8ef7ff;stroke-width:5.66929;stroke-linecap:round;stroke-miterlimit:5.8;stroke-dasharray:none;stroke-opacity:1;marker-end:url(#k);paint-order:stroke fill markers"/><path d="M-86.097 260.067c-2.964-.78-4.031-1.492-5.752.39-5.096 2.18-9.655.7-15.159.037l-5.75-.112 6.874-1.638c7.698-1.836 8.826-5.43 14.23-16.689 5.167-10.763 6.324-17.278 6.345-35.74.012-10.15-.385-17.156-1.007-17.778-.702-.702-3.19-.014-7.872 2.177-5.387 2.521-8.566 3.303-14.922 3.669-7.267.419-8.478.79-12.077 3.7-6.046 4.89-10.423 6.759-16.008 6.84-7.07.102-11.632-2.9-15.06-9.908-1.467-2.997-3.326-5.448-4.131-5.448s-4.466 1.31-8.133 2.911c-13.006 5.68-16.961 6.589-28.668 6.589-9.37 0-11.74-.342-16-2.304-13.425-6.185-18.454-19.113-13.622-35.019 2.303-7.582 9.636-19.434 15.544-25.124 5.006-4.82 4.666-5.899-1.842-5.84-11.137.1-16.58-7.137-16.58-22.044 0-24.02 17.192-47.719 37.699-51.967l3.801-.787.636-7.065c.803-8.94 2.871-13.272 8.94-18.728 7.09-6.375 15.14-9.13 26.554-9.09 8.459.03 9.668.3 16.467 3.675 4.035 2.003 7.655 3.446 8.043 3.206.389-.24 1.015-1.841 1.392-3.558.394-1.793 2.875-5.354 5.827-8.362 6.163-6.28 13.799-9.505 22.429-9.471 7.471.028 12.753 2.513 17.989 8.461l4.2 4.77 4.122-3.723c5.246-4.74 9.568-6.53 15.764-6.53 11.488 0 26.706 7.758 38.875 19.818 4.453 4.413 6.987 6.182 8.856 6.182 4.486 0 14.601 3 21.941 6.507 12.655 6.046 21.465 17.824 21.465 28.695 0 2.159.66 3.111 2.75 3.968C58.301 81.396 66.78 88.11 71.836 98.312c4.023 8.118 4.658 21.007 1.541 31.27-1.742 5.736-2.039 8.468-1.506 13.872.855 8.683-1.781 15.379-8.323 21.137-11.898 10.473-31.389 13.877-50.601 8.838l-8.148-2.137-11.493 4.595c-22.614 9.042-40.493 11.692-51.993 7.71-3.025-1.049-5.824-1.587-6.221-1.196-1.403 1.378-2.74 14.827-2.759 27.756-.022 14.367 3.942 25.562 5.993 31.62 1.35 3.984 2.719 7.71 4.89 11.132 2.568 3.885 4.916 4.26 8.66 8.705-4.09.152-6.167 1.762-8.412 1.033-2.244-.729-3.738-.899-5.679-2.098-11.698-2.912-17.075.378-23.882-.482" style="fill:#805b1d;fill-opacity:1" transform="translate(3486.06 735.181)scale(.34876)"/><path d="M-141.773 204.633c-4.877-1.52-7.866-4.27-10.506-9.665-1.453-2.97-3.302-5.401-4.107-5.401s-4.466 1.31-8.133 2.911c-13.006 5.68-16.961 6.589-28.668 6.589-9.37 0-11.74-.342-16-2.304-13.425-6.185-18.454-19.113-13.622-35.019 2.303-7.582 9.636-19.434 15.544-25.124 5.006-4.82 4.666-5.899-1.842-5.84-11.137.1-16.58-7.137-16.58-22.044 0-24.02 17.192-47.719 37.699-51.967l3.801-.787.636-7.065c.803-8.94 2.871-13.272 8.94-18.728 7.09-6.375 15.14-9.13 26.554-9.09 8.459.03 9.668.3 16.467 3.675 4.035 2.003 7.655 3.446 8.043 3.206.389-.24 1.015-1.841 1.392-3.559.394-1.792 2.875-5.353 5.827-8.36 6.163-6.281 13.799-9.506 22.429-9.473 7.471.03 12.753 2.514 17.989 8.462l4.2 4.77 4.122-3.723c5.246-4.74 9.568-6.53 15.764-6.53 11.488 0 26.706 7.758 38.875 19.818 4.453 4.413 6.987 6.182 8.856 6.182 4.486 0 14.601 3 21.941 6.506C30.503 48.12 39.313 59.898 39.313 70.77c0 2.159.66 3.111 2.75 3.968C58.301 81.396 66.78 88.11 71.836 98.312c4.023 8.118 4.658 21.007 1.541 31.27-1.742 5.736-2.039 8.468-1.506 13.872.855 8.683-1.781 15.379-8.323 21.137-11.898 10.473-31.389 13.877-50.601 8.838l-8.148-2.137-11.493 4.595c-21.7 8.676-39.423 11.523-50.768 8.154-5.992-1.78-6.746-2.62-5.118-5.704 4.921-9.315 20.95-25.783 44.8-46.027C-1.184 118.226.049 117.42 10.814 113.596c6.491-2.305 10.245-4.619 9.195-5.668-.362-.362-4.927.37-10.144 1.626-8.867 2.136-9.648 2.179-11.97.657-2.14-1.402-2.526-2.496-2.783-7.886-.271-5.703-.405-6.037-1.508-3.758-.666 1.375-2.176 6.325-3.356 11l-2.146 8.5-11.161 11c-15.39 15.168-30.91 25.14-36.052 23.167-2.08-.799-2.06-6.64.056-15.942 2.97-13.056 5.7-17.824 19.278-33.664 4.45-5.191 8.091-9.804 8.091-10.25 0-2.495-3.82.481-15 11.689-6.858 6.875-12.99 12.5-13.628 12.5-1.78 0-2.396-2.559-3.064-12.719-.338-5.144-.982-9.58-1.432-9.858-1.77-1.095-2.067 5.34-.878 19.048 1.359 15.662.831 20.215-3.479 30.029-3.95 8.996-6.312 9.274-12.076 1.42-6.984-9.513-7.703-13.184-8.538-43.633-.41-14.968-1.04-28.137-1.398-29.265-1.309-4.125-2.212-.838-2.853 10.378-.832 14.573-1.553 16.604-5.879 16.584-1.801-.008-5.075-.663-7.275-1.456-9.95-3.584-9.897-.392.06 3.624 3.817 1.54 7.728 3.76 8.69 4.934 2.377 2.9 2.244 9.45-.392 19.216l-2.142 7.94-5.305-.624c-10.308-1.211-28.166-8.79-31.036-13.169-.925-1.412-2.336-7.386-3.187-13.492-1.071-7.687-1.924-10.957-2.857-10.957-1.58 0-1.59.123-1.349 15.584l.189 12.085-12.271 8.415c-11.557 7.926-14.78 10.916-11.768 10.916.715 0 5.2-2.252 9.97-5.005 12.823-7.4 15.987-8.338 21.196-6.284 11.13 4.388 42.683 23.268 47.129 28.2 3.342 3.706 1.08 4.248-12.279 2.94-9.546-.934-12.47-.93-13.418.019-1.783 1.782.301 2.743 7.605 3.507 3.38.353 8.176 1.65 10.656 2.882 3.88 1.927 4.827 3.043 6.783 7.985 1.251 3.16 2.544 7.095 2.874 8.745.578 2.89.35 3.116-6.197 6.18-5.337 2.498-8.532 3.281-14.874 3.647-7.267.419-8.477.79-12.077 3.7-7.277 5.884-14.919 8.316-20.586 6.55" style="fill:#008925;fill-opacity:1" transform="translate(3486.06 735.181)scale(.34876)"/><path d="m2393.718 604.414 215.14-1.917" style="fill:none;fill-opacity:1;stroke:#001528;stroke-width:3.02362;stroke-linecap:round;stroke-miterlimit:5.8;stroke-dasharray:none;stroke-opacity:1;marker-end:url(#l);paint-order:stroke fill markers"/><g transform="rotate(-.473 99984.844 -275420.57)"><circle cx="502.665" cy="104.868" r="5.75" style="fill:#0b1902;fill-opacity:1;stroke:#8ef7ff;stroke-width:5.66929;stroke-linecap:round;stroke-linejoin:round;stroke-miterlimit:5.8;stroke-dasharray:none;stroke-opacity:1;paint-order:fill markers stroke" transform="rotate(.473)"/><path d="m503.486-16.148-.62 125.487" style="fill:none;fill-opacity:1;stroke:#8ef7ff;stroke-width:5.66929;stroke-linecap:round;stroke-miterlimit:5.8;stroke-dasharray:none;stroke-opacity:1;paint-order:stroke fill markers"/><g style="stroke:#ecff3b;stroke-width:5.66929;stroke-dasharray:none;stroke-opacity:1" transform="rotate(.473 110785.82 -265093.32)"><path d="m2669.358 884.316 240.64-1.917" style="fill:none;fill-opacity:1;stroke:#8ef7ff;stroke-width:5.66929;stroke-linecap:round;stroke-miterlimit:5.8;stroke-dasharray:none;stroke-opacity:1;marker-end:url(#m);paint-order:stroke fill markers"/><circle cx="2694.785" cy="883.75" r="5.75" style="fill:#0b1902;fill-opacity:1;stroke:#8ef7ff;stroke-width:5.66929;stroke-linecap:round;stroke-linejoin:round;stroke-miterlimit:5.8;stroke-dasharray:none;stroke-opacity:1;paint-order:fill markers stroke"/></g><path d="M503.353 109.593 717 109.439" style="fill:none;fill-opacity:1;stroke:#8ef7ff;stroke-width:5.66929;stroke-linecap:round;stroke-miterlimit:5.8;stroke-dasharray:none;stroke-opacity:1;marker-end:url(#n);paint-order:stroke fill markers"/><path d="m2694.593 884.316 215.405-1.917" style="fill:none;fill-opacity:1;stroke:#001528;stroke-width:2.64567;stroke-linecap:round;stroke-miterlimit:5.8;stroke-dasharray:none;stroke-opacity:1;marker-end:url(#o);paint-order:stroke fill markers" transform="rotate(.473 95481.075 -265252.65)"/><rect width="159.872" height="51.54" x="525" y="82.46" rx="11.629" ry="13.5" style="opacity:1;fill:#f61b02;fill-opacity:1;stroke:#ff46f0;stroke-width:2.13165;stroke-linecap:round;stroke-miterlimit:5.8;stroke-dasharray:none;stroke-opacity:1;paint-order:stroke fill markers"/><text xml:space="preserve" x="607.205" y="124.802" style="font-style:normal;font-variant:normal;font-weight:400;font-stretch:normal;font-size:49.1473px;line-height:1;font-family:&quot;Amplitude BRK&quot;;-inkscape-font-specification:&quot;Amplitude BRK, Normal&quot;;font-variant-ligatures:normal;font-variant-caps:normal;font-variant-numeric:normal;font-variant-east-asian:normal;text-align:center;letter-spacing:0;word-spacing:-5.65061px;writing-mode:lr-tb;direction:ltr;text-anchor:middle;opacity:1;fill:#7d0046;fill-opacity:1;stroke:#46ff4d;stroke-width:.954447;stroke-linecap:round;stroke-miterlimit:5.8;stroke-dasharray:none;stroke-opacity:1;paint-order:stroke fill markers"><tspan x="607.205" y="124.802" style="font-style:italic;font-variant:normal;font-weight:400;font-stretch:normal;font-size:49.1473px;font-family:&quot;Baskervald ADF Std&quot;;-inkscape-font-specification:&quot;Baskervald ADF Std, Italic&quot;;font-variant-ligatures:normal;font-variant-caps:normal;font-variant-numeric:normal;font-variant-east-asian:normal;fill:#7d0046;fill-opacity:1;stroke-width:.954447"><tspan style="font-style:normal;font-family:&quot;Amplitude BRK&quot;;-inkscape-font-specification:&quot;Amplitude BRK, Normal&quot;;fill:#7d0046;fill-opacity:1;stroke-width:.954447">phone</tspan></tspan></text></g><g transform="translate(84.853 -89.481)"><circle cx="2694.785" cy="883.75" r="5.75" style="fill:#0b1902;fill-opacity:1;stroke:#002106;stroke-width:3.08031;stroke-linecap:round;stroke-linejoin:round;stroke-miterlimit:5.8;paint-order:fill markers stroke"/><path d="m2668.858 884.316 241.14-1.917" style="fill:none;fill-opacity:1;stroke:#001528;stroke-width:2.64567;stroke-linecap:round;stroke-miterlimit:5.8;stroke-dasharray:none;stroke-opacity:1;marker-end:url(#p);paint-order:stroke fill markers"/></g><path d="m2779.515 665.675.416 125.488" style="fill:none;fill-opacity:1;stroke:#001528;stroke-width:2.64567;stroke-linecap:round;stroke-miterlimit:5.8;stroke-dasharray:none;stroke-opacity:1;paint-order:stroke fill markers" transform="translate(0 129.722)"/><g transform="rotate(-.473 -10800.977 -10327.242)"><rect width="159.872" height="51.54" x="2706.307" y="881.652" rx="11.629" ry="13.5" style="fill:#f61b02;fill-opacity:1;stroke:#ff46f0;stroke-width:2.13165;stroke-linecap:round;stroke-miterlimit:5.8;stroke-dasharray:none;stroke-opacity:1;paint-order:stroke fill markers"/><text xml:space="preserve" x="2787.536" y="920.986" style="font-style:normal;font-variant:normal;font-weight:400;font-stretch:normal;font-size:49.1473px;line-height:1;font-family:&quot;Amplitude BRK&quot;;-inkscape-font-specification:&quot;Amplitude BRK, Normal&quot;;font-variant-ligatures:normal;font-variant-caps:normal;font-variant-numeric:normal;font-variant-east-asian:normal;text-align:center;letter-spacing:0;word-spacing:-5.65061px;writing-mode:lr-tb;direction:ltr;text-anchor:middle;fill:#7d0046;fill-opacity:1;stroke:#46ff4d;stroke-width:.954447;stroke-linecap:round;stroke-miterlimit:5.8;stroke-dasharray:none;stroke-opacity:1;paint-order:stroke fill markers"><tspan x="2787.536" y="920.986" style="font-style:italic;font-variant:normal;font-weight:400;font-stretch:normal;font-size:49.1473px;font-family:&quot;Baskervald ADF Std&quot;;-inkscape-font-specification:&quot;Baskervald ADF Std, Italic&quot;;font-variant-ligatures:normal;font-variant-caps:normal;font-variant-numeric:normal;font-variant-east-asian:normal;fill:#7d0046;fill-opacity:1;stroke-width:.954447"><tspan style="font-style:normal;font-family:&quot;Amplitude BRK&quot;;-inkscape-font-specification:&quot;Amplitude BRK, Normal&quot;;fill:#7d0046;fill-opacity:1;stroke-width:.954447">tree</tspan></tspan></text></g><path d="m2332.124 556.33 1.917 152.55" style="fill:none;fill-opacity:1;stroke:#001528;stroke-width:3.02362;stroke-linecap:round;stroke-miterlimit:5.8;stroke-dasharray:none;stroke-opacity:1;marker-end:url(#q);paint-order:stroke fill markers"/><rect id="c" width="121.348" height="122.286" x="757" y="559" rx="28.702" ry="27.87" style="fill:#42ffb8;fill-opacity:1" transform="translate(2641.983 294.692)"/><path d="m2669.358 900.316 240.217-1.917" style="fill:none;fill-opacity:1;stroke:#001528;stroke-width:2.64567;stroke-linecap:round;stroke-miterlimit:5.8;stroke-dasharray:none;stroke-opacity:1;marker-end:url(#r);paint-order:stroke fill markers" transform="translate(465.54 18.353)"/><g transform="rotate(-.473 3956.521 -56613.93)"><rect width="159.872" height="51.54" x="2706.307" y="881.652" rx="11.629" ry="13.5" style="fill:#9596fe;fill-opacity:1;stroke:#8a007f;stroke-width:2.13165;stroke-linecap:round;stroke-miterlimit:5.8;stroke-dasharray:none;stroke-opacity:1;paint-order:stroke fill markers"/><text xml:space="preserve" x="2785.626" y="916.232" style="font-style:normal;font-variant:normal;font-weight:400;font-stretch:normal;font-size:58.6529px;line-height:1;font-family:&quot;Amplitude BRK&quot;;-inkscape-font-specification:&quot;Amplitude BRK, Normal&quot;;font-variant-ligatures:normal;font-variant-caps:normal;font-variant-numeric:normal;font-variant-east-asian:normal;text-align:center;letter-spacing:0;word-spacing:-6.7435px;writing-mode:lr-tb;direction:ltr;text-anchor:middle;fill:#620037;fill-opacity:1;stroke:#46ff4d;stroke-width:1.13905;stroke-linecap:round;stroke-miterlimit:5.8;stroke-dasharray:none;stroke-opacity:1;paint-order:stroke fill markers"><tspan x="2785.626" y="916.232" style="font-style:normal;font-variant:normal;font-weight:400;font-stretch:normal;font-size:58.6529px;font-family:&quot;Bewilder Thick BRK&quot;;-inkscape-font-specification:&quot;Bewilder Thick BRK, Normal&quot;;font-variant-ligatures:normal;font-variant-caps:normal;font-variant-numeric:normal;font-variant-east-asian:normal;fill:#620037;fill-opacity:1;stroke:#465eff;stroke-width:1.13905;stroke-opacity:1">svg</tspan></text></g><g transform="rotate(-.473 61439.392 -228573.942)"><rect width="159.872" height="51.54" x="525" y="82.46" rx="11.629" ry="13.5" style="opacity:1;fill:#f61b02;fill-opacity:1;stroke:#ff46f0;stroke-width:2.13165;stroke-linecap:round;stroke-miterlimit:5.8;stroke-dasharray:none;stroke-opacity:1;paint-order:stroke fill markers"/><text xml:space="preserve" x="607.238" y="120.802" style="font-style:normal;font-variant:normal;font-weight:400;font-stretch:normal;font-size:49.1473px;line-height:1;font-family:&quot;Amplitude BRK&quot;;-inkscape-font-specification:&quot;Amplitude BRK, Normal&quot;;font-variant-ligatures:normal;font-variant-caps:normal;font-variant-numeric:normal;font-variant-east-asian:normal;text-align:center;letter-spacing:0;word-spacing:-5.65061px;writing-mode:lr-tb;direction:ltr;text-anchor:middle;opacity:1;fill:#7d0046;fill-opacity:1;stroke:#46ff4d;stroke-width:.954447;stroke-linecap:round;stroke-miterlimit:5.8;stroke-dasharray:none;stroke-opacity:1;paint-order:stroke fill markers"><tspan x="607.238" y="120.802" style="font-style:italic;font-variant:normal;font-weight:400;font-stretch:normal;font-size:49.1473px;font-family:&quot;Baskervald ADF Std&quot;;-inkscape-font-specification:&quot;Baskervald ADF Std, Italic&quot;;font-variant-ligatures:normal;font-variant-caps:normal;font-variant-numeric:normal;font-variant-east-asian:normal;fill:#7d0046;fill-opacity:1;stroke-width:.954447"><tspan style="font-style:normal;font-family:&quot;Amplitude BRK&quot;;-inkscape-font-specification:&quot;Amplitude BRK, Normal&quot;;fill:#7d0046;fill-opacity:1;stroke-width:.954447">image</tspan></tspan></text></g><path d="m3130.648 790.67 246.467-1.917" style="fill:none;fill-opacity:1;stroke:#001528;stroke-width:2.64567;stroke-linecap:round;stroke-miterlimit:5.8;stroke-dasharray:none;stroke-opacity:1;marker-end:url(#s);paint-order:stroke fill markers"/><rect id="y" width="121.348" height="122.286" x="757" y="559" rx="28.702" ry="27.87" style="fill:#017d0e;fill-opacity:1" transform="translate(1516.831 -18.069)"/><rect width="159.872" height="51.54" x="3176.407" y="788.25" rx="11.629" ry="13.5" style="fill:#9596fe;fill-opacity:1;stroke:#8a007f;stroke-width:2.13165;stroke-linecap:round;stroke-miterlimit:5.8;stroke-dasharray:none;stroke-opacity:1;paint-order:stroke fill markers" transform="rotate(-.473)"/><path d="m3128.782 610.075 246.467-1.917" style="fill:none;fill-opacity:1;stroke:#ecff3b;stroke-width:5.66929;stroke-linecap:round;stroke-miterlimit:5.8;stroke-dasharray:none;stroke-opacity:1;marker-end:url(#t);paint-order:stroke fill markers"/><use xlink:href="#c" transform="translate(-.452 -314.279)"/><use xlink:href="#u" transform="translate(740.394 128.35)"/><path d="m3128.782 610.075 246.467-1.917" style="fill:none;fill-opacity:1;stroke:#001528;stroke-width:2.64567;stroke-linecap:round;stroke-miterlimit:5.8;stroke-dasharray:none;stroke-opacity:1;marker-end:url(#v);paint-order:stroke fill markers"/><use xlink:href="#u" transform="translate(738.909 -3.214)"/><rect width="159.872" height="51.54" x="3176.032" y="607.646" rx="11.629" ry="13.5" style="fill:#9596fe;fill-opacity:1;stroke:#8a007f;stroke-width:2.13165;stroke-linecap:round;stroke-miterlimit:5.8;stroke-dasharray:none;stroke-opacity:1;paint-order:stroke fill markers" transform="rotate(-.473)"/><g transform="translate(3409.035 878.722)scale(.07757)"><rect width="462.377" height="465.724" x="445.214" y="352.789" ry="8.387" style="fill:#b9c936;fill-opacity:1;fill-rule:evenodd;stroke:#041b01;stroke-width:1.60868;stroke-linecap:round;stroke-linejoin:round;stroke-opacity:.423029"/><path d="m617.12 439.911 41.71.5 41.75.51c.34 20.86.68 41.72 1.03 62.58h-84.49zm-146.99 1.02h84.44c.34 20.86.69 41.72 1.03 62.57h-86.49zm291.85 0h84.44c.34 20.86.68 41.72 1.03 62.57-29.86-1.05-56.08 2.1-85.63-1.88-1.21-20.14.06-40.47.16-60.69m-292.79 100.54h86.33v61.61h-86.33zm147.93 0h84.41v61.61h-84.41zm143.91 0h86.34v61.61h-86.34zm-287.079 99.58h86.33v61.61h-86.33zm143.169 0h84.41v61.61h-84.41zm143.91 0h86.34v61.61h-86.34zm-291.84 101.06h86.33v61.61h-86.33zm147.93 0h84.41v61.61h-84.41zm143.91 0h86.34v61.61h-86.34Zm-275.65-518.28c-18.75-.05-37.77.58-56.37.16l-1 1v146.08c-72.93 117.03-160.29 232.4-230.47 351.12-19.3 32.3-35.58 67.44-37.86 105.57-5.81 66.2-5.43 132.74-5.53 199.14 31.64 2.3 65.07.3 97.39 1h910.06c2.3-31.59.3-64.99 1-97.28-1.3-47.7 2.2-96.38-8.6-143.23-14.4-42.77-41.3-79.9-63.6-118.78-62-101.41-137.01-202.02-199.76-302.99v-140.63c-29.06-2.33-59.92-.33-89.68-1-2.33 31.63-.33 65.06-1 97.39v37.55H518.69v-133.94c-10.9-.87-22.05-1.14-33.31-1.16" style="fill:#3641c9;fill-opacity:1;stroke:#041b01;stroke-width:24.3852;stroke-linecap:round;stroke-linejoin:round;stroke-miterlimit:4;stroke-dasharray:none;stroke-opacity:.989737" transform="translate(1.763 -51.603)"/><path d="M654.09 63.789c-6.5 0-12.97.05-19.38.106-187.11 1.219-385.87 5.181-551.58 93.701-63.686 54.65-63.996 143.05-72.183 226.19 0 0-1.521 35.21 1.576 52.19 6.332 33.42 37.985 56.13 70.651 59.18 58.476 3.76 121.86-1.68 171.2-36.26 26.96-19.25 36.05-53.86 34.88-85.49l.67-78.1c.73-28.44 12.93-56.18 34.41-75.15 37.17-36.99 90.51-50.068 140.32-60.188 64.34-12.14 129.77-14.341 195.15-13.816 65.39-.525 130.82 1.677 195.16 13.816 49.81 10.12 103.15 23.2 140.32 60.19 21.52 18.97 33.72 46.71 34.42 75.15l.7 78.1c-1.2 31.63 7.9 66.24 34.8 85.49 49.4 34.58 112.8 40.02 171.2 36.26 32.7-3.05 64.4-25.76 70.7-59.18 3.1-16.98 1.6-52.19 1.6-52.19-8.2-83.14-8.5-171.54-72.2-226.19-165.7-88.52-364.49-92.484-551.6-93.703q-9.63-.084-19.38-.106c-1.89-.004-3.82.007-5.72.006-1.9 0-3.82-.006-5.71-.006z" style="fill:#c99236;fill-opacity:1;stroke:#041b01;stroke-width:24.3852;stroke-linecap:round;stroke-linejoin:round;stroke-miterlimit:4;stroke-dasharray:none;stroke-opacity:.989737" transform="translate(1.763 -51.603)"/></g><text xml:space="preserve" id="z" x="3255.351" y="642.225" style="font-style:normal;font-variant:normal;font-weight:400;font-stretch:normal;font-size:58.6529px;line-height:1;font-family:&quot;Amplitude BRK&quot;;-inkscape-font-specification:&quot;Amplitude BRK, Normal&quot;;font-variant-ligatures:normal;font-variant-caps:normal;font-variant-numeric:normal;font-variant-east-asian:normal;text-align:center;letter-spacing:0;word-spacing:-6.7435px;writing-mode:lr-tb;direction:ltr;text-anchor:middle;fill:#620037;fill-opacity:1;stroke:#46ff4d;stroke-width:1.13905;stroke-linecap:round;stroke-miterlimit:5.8;stroke-dasharray:none;stroke-opacity:1;paint-order:stroke fill markers" transform="rotate(-.473)"><tspan x="3255.351" y="642.225" style="font-style:normal;font-variant:normal;font-weight:400;font-stretch:normal;font-size:58.6529px;font-family:&quot;Bewilder Thick BRK&quot;;-inkscape-font-specification:&quot;Bewilder Thick BRK, Normal&quot;;font-variant-ligatures:normal;font-variant-caps:normal;font-variant-numeric:normal;font-variant-east-asian:normal;fill:#620037;fill-opacity:1;stroke:#465eff;stroke-width:1.13905;stroke-opacity:1">svg</tspan></text><use xlink:href="#u" transform="translate(357.796)"/><circle cx="2778.845" cy="920.567" r="5.75" style="fill:#0b1902;fill-opacity:1;stroke:#002106;stroke-width:3.08031;stroke-linecap:round;stroke-linejoin:round;stroke-miterlimit:5.8;paint-order:fill markers stroke"/><path d="m2741.025 613.997 251.96-1.673" style="fill:none;fill-opacity:1;stroke:#8ef7ff;stroke-width:5.66929;stroke-linecap:round;stroke-miterlimit:5.8;stroke-dasharray:none;stroke-opacity:1;marker-end:url(#w);paint-order:stroke fill markers"/><path d="m2744.845 614.24 248.14-1.917" style="fill:none;fill-opacity:1;stroke:#001528;stroke-width:2.64567;stroke-linecap:round;stroke-miterlimit:5.8;stroke-dasharray:none;stroke-opacity:1;marker-end:url(#x);paint-order:stroke fill markers"/><use xlink:href="#y" transform="translate(740.263 6.26)"/><use xlink:href="#y" transform="translate(357.796 4.03)"/><g transform="rotate(-.473 -32686.462 -10191.443)"><rect width="159.872" height="51.54" x="2706.307" y="881.652" rx="11.629" ry="13.5" style="fill:#f61b02;fill-opacity:1;stroke:#ff46f0;stroke-width:2.13165;stroke-linecap:round;stroke-miterlimit:5.8;stroke-dasharray:none;stroke-opacity:1;paint-order:stroke fill markers"/><text xml:space="preserve" x="2787.501" y="925.229" style="font-style:normal;font-variant:normal;font-weight:400;font-stretch:normal;font-size:49.1473px;line-height:1;font-family:&quot;Amplitude BRK&quot;;-inkscape-font-specification:&quot;Amplitude BRK, Normal&quot;;font-variant-ligatures:normal;font-variant-caps:normal;font-variant-numeric:normal;font-variant-east-asian:normal;text-align:center;letter-spacing:0;word-spacing:-5.65061px;writing-mode:lr-tb;direction:ltr;text-anchor:middle;fill:#7d0046;fill-opacity:1;stroke:#46ff4d;stroke-width:.954447;stroke-linecap:round;stroke-miterlimit:5.8;stroke-dasharray:none;stroke-opacity:1;paint-order:stroke fill markers"><tspan x="2787.501" y="925.229" style="font-style:italic;font-variant:normal;font-weight:400;font-stretch:normal;font-size:49.1473px;font-family:&quot;Baskervald ADF Std&quot;;-inkscape-font-specification:&quot;Baskervald ADF Std, Italic&quot;;font-variant-ligatures:normal;font-variant-caps:normal;font-variant-numeric:normal;font-variant-east-asian:normal;fill:#7d0046;fill-opacity:1;stroke-width:.954447"><tspan style="font-style:normal;font-family:&quot;Amplitude BRK&quot;;-inkscape-font-specification:&quot;Amplitude BRK, Normal&quot;;fill:#7d0046;fill-opacity:1;stroke-width:.954447">chick</tspan></tspan></text></g><path d="M3458.06 651.41c-6.38.289-10.652-.362-15.254-2.289-6.357-2.661-10.383-6.332-14.338-11.288-6.407-8.027-10.666-18.088-11.898-31.575.486-.344.937.435 1.372.763 1.45 1.091 3.24 2.457 4.73 3.508.62 1.586 2.069 4.132 3.66 5.797 1.863 1.95 4.854 3.226 6.102 0 2.494-1.676 4.522-3.816 6.559-5.95 2.556 1.868 4.393 4.455 6.711 6.56 2.718-2.011 5.118-4.34 7.627-6.56 2.863 1.968 4.367 5.295 7.475 7.018 2.941-1.89 4.943-4.718 7.78-6.713 2.03 1.63 3.149 4.173 5.49 5.492 2.096-1.769 3.91-3.82 5.95-5.644 1.18.744 1.911 2.12 3.05 3.509.86 1.047 1.828 3.035 3.203 3.203 2.783.339 3.853-2.926 5.187-4.882.716.76 1.245 1.705 2.136 2.288 2.312-1.008 3.25-3.62 4.728-5.643 1.001-1.371 2.47-2.436 3.356-3.966.13-.028.144.06.153.152.326 14.67-5.056 27.729-12.203 35.694-6.121 6.822-19.424 9.973-31.576 10.525m-35.847-42.406c-1.06-.974-2.097-1.97-3.355-2.746 1.335.09 3.573.595 3.355 2.746m12.814-.915c-.59 1.687-1.271 3.042-2.136 4.88-.582 1.238-1.512 4.013-2.745 4.272-1.085.227-2.52-1.124-3.051-1.678-1.944-2.03-3.733-4.953-4.271-8.237 3.735-1.666 9.025-.669 12.203.763m-.915-36.457c2.959-2.96 6.678-4.793 9.762-7.17-.101-.661-1.148-.377-1.526-.762-1.653-1.394-3.948-6.409-.915-7.932 1.864 1.034 2.267 3.53 3.814 4.881.42-3.8 1.444-6.996 4.424-8.237 1.058.895.145 2.391-.153 3.356-.358 1.157-.818 2.274-.763 3.508 1.115-.105 1.135-1.306 2.441-1.22-.432 1.908-2.152 2.526-2.288 4.728 4.551-.555 8.906-2.468 14.796-2.135 8.13.46 15.334 4.031 19.83 9.915 6.312 8.26 12.232 18.674 7.932 32.948-4.232-1.389-9.761 1.103-11.592 4.271-.28.483-.186 1.207-.459 1.678-.41.709-2.033 1.911-2.745 2.594-.95.91-1.759 1.829-2.746 2.44-1.677-1.933-3.073-4.146-5.338-5.491-2.844 1.886-5.292 4.166-7.627 6.559-2.613-2.167-4.876-4.683-7.475-6.865-2.727 1.951-5.127 4.23-7.322 6.712-2.507-1.865-4.093-4.652-6.864-6.254-2.057.995-3.271 2.83-5.186 3.966.774-1.717 1.651-3.33 2.288-5.186-2.13-2.298-6.807-3.14-10.983-2.44-4.059-13.15 1.844-27.014 8.695-33.864m59.184 34.626c.241 1.501-2.166 4.23-2.898 5.492-.745 1.286-1.728 4.63-3.966 4.27-.971-.155-2.055-2.208-2.745-3.05-1.007-1.228-1.68-2.242-2.746-3.05.493-.516-.17-.879-.153-1.069.174-1.946 5.236-4.94 8.848-4.576 1.517.153 3.499.976 3.66 1.983m1.069.915c2.076-.924 3.995-2.004 5.948-3.05.273-.043.314.143.153.152-2.037 3.1-4.54 5.732-6.56 8.847-.755-.465-1.175-1.265-1.677-1.983.52-1.513 1.67-2.397 2.136-3.966m2.287 26.084c4.619-7.633 7.362-19.728 6.407-30.66-1.184-1.284-3.085.196-4.729.915-1.494.655-2.873 1.18-3.66 1.83-.216-1.005-1.416-1.024-1.679-1.983 2.787-9.18 1.397-18.204-2.593-25.32-2.32-4.139-4.9-8.296-7.779-11.136-6.629-6.54-19.44-9.907-31.576-6.101.961-.957 2.247-4.117-.457-4.119.923-1.774 1.713-5.61-.915-5.644-2.59-.034-4.515 3.958-5.034 6.102-1.133-.995-1.286-2.674-3.051-2.746-4.79-.194-3.168 8.431-.458 10.22-12.318 5.942-21.95 22.778-17.084 40.728-2.57 1.19-4.837-1.141-8.084-1.068-1.688 1.603-.77 4.136-.458 6.254 1.15 7.81 3.052 13.002 6.101 19.067 1.943 3.865 4.22 7.582 6.865 10.525 5.481 6.102 12.293 11.784 22.423 12.509 5.894.422 11.677.018 16.78-.763 4.98-.762 10.014-2.076 13.88-3.661 7.076-2.9 11.36-8.766 15.101-14.949"/><path fill="#f9e26e" d="M3436.857 604.733c-.587-.379-.937-.995-1.068-1.83.652.314.879 1.053 1.068 1.83m3.204-7.17c2.034-.019 1.495 4.344 1.067 6.102-.5.441-1.833.7-2.44.152-.758-1.823-.413-6.237 1.373-6.254m31.422 4.881c-4.306 5.487-18.103 5.24-23.796 1.22 3.272-7.346 19.02-6.93 23.796-1.22m9.153-6.559c2.107-1.029 2.702 3.114 2.135 5.34-.55.466-1.117.915-2.288.762-1.076-1.296-1.227-5.428.153-6.102m5.643 3.356c.429.51-.432 2.29-1.22 2.593.182-1.089.807-1.736 1.22-2.593m-49.88 8.695c-.636 1.855-1.513 3.469-2.287 5.186 1.915-1.135 3.13-2.971 5.186-3.966 2.771 1.602 4.357 4.39 6.864 6.254 2.195-2.483 4.595-4.76 7.322-6.712 2.599 2.182 4.862 4.698 7.475 6.865 2.335-2.393 4.783-4.673 7.627-6.56 2.265 1.346 3.66 3.56 5.338 5.492.987-.611 1.796-1.53 2.746-2.44.712-.683 2.335-1.885 2.745-2.594.273-.471.179-1.195.459-1.678 1.83-3.168 7.36-5.66 11.592-4.27 4.3-14.275-1.62-24.69-7.932-32.95-4.496-5.883-11.7-9.455-19.83-9.914-5.89-.333-10.245 1.58-14.796 2.135.136-2.202 1.856-2.82 2.288-4.728-1.306-.086-1.326 1.115-2.44 1.22-.056-1.234.404-2.351.762-3.508.298-.965 1.211-2.46.153-3.356-2.98 1.24-4.003 4.438-4.424 8.237-1.547-1.35-1.95-3.847-3.814-4.881-3.033 1.523-.738 6.538.915 7.932.378.385 1.425.1 1.526.762-3.084 2.377-6.803 4.21-9.762 7.17-6.851 6.85-12.754 20.714-8.695 33.863 4.176-.699 8.852.143 10.983 2.441"/><path d="M3482.771 601.224c.567-2.225-.028-6.368-2.135-5.339-1.38.674-1.229 4.806-.153 6.102 1.17.153 1.738-.296 2.288-.763M3448.908 603.512c2.053-2.88 6.466-4.512 11.135-4.271 4.061.21 7.457 1.83 10.068 3.203-4.599 4.165-15.411 3.958-21.203 1.068m22.575-1.068c-4.777-5.71-20.524-6.126-23.796 1.22 5.693 4.02 19.49 4.267 23.796-1.22"/><path fill="#ff8b00" d="M3460.043 599.24c-4.67-.24-9.082 1.393-11.135 4.272 5.792 2.89 16.604 3.097 21.203-1.068-2.611-1.374-6.007-2.993-10.068-3.203"/><path d="M3486.28 599.24c-.414.858-1.04 1.505-1.22 2.594.787-.303 1.648-2.083 1.22-2.593M3436.857 604.733c-.19-.777-.416-1.516-1.068-1.83.13.835.48 1.451 1.068 1.83"/><path fill="#f4ead4" d="M3493.907 613.122c2.02-3.115 4.522-5.747 6.56-8.847.16-.009.119-.195-.154-.153-1.953 1.047-3.872 2.127-5.948 3.051-.466 1.57-1.615 2.453-2.136 3.966.502.718.922 1.518 1.678 1.983"/><path fill="#f9e26e" d="M3489.636 604.275c-3.612-.364-8.674 2.63-8.848 4.576-.016.19.646.553.153 1.068 1.066.81 1.739 1.823 2.746 3.05.69.843 1.774 2.896 2.745 3.051 2.238.36 3.22-2.984 3.966-4.27.732-1.262 3.14-3.99 2.898-5.492-.161-1.007-2.143-1.83-3.66-1.983"/><path fill="#eddbb7" d="M3480.178 634.63c-1.154.962-3.959 1.26-4.881-.152-.936-1.435.042-3.263 1.526-3.814-.81-3.178 3.516-4.05 4.576-1.83 5.919-.93 3.208 9.97-1.22 5.796m-33.253 9.305c-1.166.923-2.171 2.18-3.661 2.44-6.612 1.16-8.728-8.49-2.746-9.914-.225-.734-.462-1.591-.152-2.44.443-.422 1.012-.717 1.982-.61-.285-1.365-.226-2.88.306-3.662 2.207-3.246 8.267-.381 7.474 3.966 7.795.602 3.557 14.165-3.203 10.22m-11.746-12.66c.047-.34.658-1.31 1.373-1.526 2.775-.838 2.23 3.192.458 3.356-.708.065-2.063-.139-1.83-1.83m66.66-26.085c-.009-.093-.023-.18-.153-.152-.887 1.53-2.355 2.595-3.356 3.966-1.477 2.023-2.416 4.635-4.728 5.643-.891-.583-1.42-1.528-2.136-2.288-1.334 1.956-2.404 5.22-5.187 4.882-1.375-.168-2.343-2.156-3.203-3.203-1.139-1.388-1.87-2.765-3.05-3.51-2.04 1.825-3.854 3.876-5.95 5.645-2.341-1.32-3.46-3.861-5.49-5.492-2.837 1.995-4.839 4.824-7.78 6.713-3.108-1.723-4.612-5.05-7.475-7.017-2.51 2.219-4.91 4.548-7.627 6.559-2.318-2.105-4.155-4.692-6.711-6.56-2.037 2.134-4.065 4.274-6.56 5.95-1.247 3.226-4.238 1.95-6.1 0-1.592-1.665-3.04-4.21-3.662-5.797-1.49-1.051-3.279-2.417-4.729-3.508-.435-.328-.886-1.107-1.372-.763 1.232 13.487 5.49 23.548 11.898 31.575 3.955 4.956 7.98 8.627 14.338 11.288 4.602 1.927 8.874 2.578 15.254 2.288 12.152-.552 25.455-3.703 31.576-10.525 7.147-7.965 12.529-21.023 12.203-35.694"/><path fill="#f9e26e" d="M3430.146 617.24c1.233-.258 2.163-3.033 2.745-4.27.865-1.839 1.545-3.194 2.136-4.881-3.178-1.432-8.468-2.429-12.203-.763.538 3.284 2.327 6.208 4.27 8.237.531.554 1.967 1.905 3.052 1.678"/><path fill="#f4ead4" d="M3481.399 628.834c-1.06-2.22-5.386-1.348-4.576 1.83-1.484.551-2.462 2.38-1.526 3.814.922 1.412 3.727 1.114 4.881.152 4.429 4.175 7.14-6.726 1.22-5.796M3450.128 633.715c.793-4.347-5.267-7.212-7.474-3.966-.532.781-.591 2.297-.306 3.661-.97-.106-1.539.19-1.982.61-.31.85-.073 1.707.152 2.441-5.982 1.424-3.866 11.074 2.746 9.915 1.49-.262 2.495-1.518 3.661-2.44 6.76 3.944 10.998-9.62 3.203-10.221M3436.552 629.749c-.715.216-1.326 1.186-1.373 1.525-.232 1.692 1.123 1.896 1.83 1.83 1.773-.163 2.318-4.193-.457-3.355M3418.858 606.258c1.258.776 2.295 1.772 3.355 2.746.218-2.15-2.02-2.657-3.355-2.746"/><path d="M3441.128 603.665c.428-1.758.967-6.12-1.067-6.102-1.786.017-2.13 4.43-1.373 6.254.607.548 1.94.29 2.44-.152"/><use xlink:href="#z" transform="translate(2.197 178.77)"/></g></svg>